# Blender 5.1.2
# www.blender.org
o Shovel
v 0.208196 1.544628 0.040560
v 0.208196 1.544628 -0.040560
v 0.204803 1.552621 -0.040563
v 0.204803 1.552621 0.040563
v 0.200020 1.542577 0.048275
v 0.192973 1.549682 0.048275
v 0.185775 1.548032 0.048275
v 0.195147 1.538784 0.048275
v 0.233876 1.650744 0.048275
v 0.228246 1.653018 0.048275
v 0.185775 1.548032 0.048275
v 0.100509 1.582481 0.048275
v 0.142887 1.687506 0.048275
v 0.242964 1.647073 0.040596
v 0.242964 1.647073 -0.040596
v 0.369810 1.961028 0.040665
v 0.366300 1.972828 -0.033906
v 0.366300 1.972828 0.033906
v 0.369810 1.961028 -0.040666
v 0.242964 1.647073 0.040596
v 0.360048 1.964972 0.048275
v 0.233876 1.650744 0.048275
v 0.228246 1.653018 0.048275
v 0.353289 1.962927 0.048275
v 0.360048 1.964972 0.048275
v 0.268220 1.997297 0.048275
v 0.264778 2.003464 0.048275
v 0.357862 1.976237 0.040486
v 0.366300 1.972828 0.033906
v 0.369810 1.961028 0.040665
v 0.274176 2.010048 0.040486
v 0.142887 1.687506 0.048275
v 0.242964 1.647073 -0.040596
v 0.340040 1.484542 0.039057
v 0.338081 1.492159 -0.035464
v 0.338081 1.492159 0.035464
v 0.340040 1.484542 -0.039057
v 0.146875 1.006443 -0.038384
v 0.146875 1.006443 0.038384
v 0.329703 1.488710 0.048275
v 0.136542 1.010618 0.048275
v 0.322628 1.486426 0.048275
v 0.132141 1.012396 0.048275
v 0.338081 1.492159 0.035464
v 0.338081 1.492159 -0.035464
v 0.329189 1.495743 -0.040528
v 0.329189 1.495743 0.040528
v 0.208196 1.544628 -0.040560
v 0.208196 1.544628 0.040560
v 0.338081 1.492159 0.035464
v 0.329703 1.488710 0.048275
v 0.340040 1.484542 0.039057
v 0.329189 1.495743 0.040528
v 0.200020 1.542577 0.048275
v 0.208196 1.544628 0.040560
v 0.195147 1.538784 0.048275
v 0.322628 1.486426 0.048275
v 0.132141 1.012396 0.048275
v -0.232994 1.159920 0.048275
v 0.087342 1.582339 0.048275
v 0.087342 1.582339 0.048275
v 0.185775 1.548032 0.048275
v 0.100509 1.582481 0.048275
v -0.040730 1.633232 0.048275
v -0.044233 1.639790 0.048275
v 0.086472 1.588453 0.048275
v -0.038977 1.644493 0.040528
v 0.082015 1.595608 0.040560
v -0.044608 1.646775 0.035464
v -0.054564 1.643973 0.039057
v 0.185775 1.548032 -0.048275
v 0.200020 1.542577 -0.048275
v 0.195147 1.538784 -0.048275
v 0.192973 1.549682 -0.048275
v 0.204803 1.552621 -0.040563
v 0.233876 1.650744 -0.048275
v 0.228246 1.653018 -0.048275
v 0.185775 1.548032 -0.048275
v 0.142887 1.687506 -0.048275
v 0.100509 1.582481 -0.048275
v 0.242964 1.647073 -0.040596
v 0.208196 1.544628 -0.040560
v 0.136542 1.010618 -0.048275
v 0.132141 1.012396 -0.048275
v 0.322628 1.486426 -0.048275
v 0.329703 1.488710 -0.048275
v 0.146875 1.006443 -0.038384
v 0.340040 1.484542 -0.039057
v 0.366300 1.972828 -0.033906
v 0.369810 1.961028 -0.040666
v 0.360048 1.964972 -0.048275
v 0.357862 1.976237 -0.040486
v 0.274176 2.010048 -0.040486
v 0.264778 2.003464 -0.048275
v 0.353289 1.962927 -0.048275
v 0.268220 1.997297 -0.048275
v 0.228246 1.653018 -0.048275
v 0.142887 1.687506 -0.048275
v 0.233876 1.650744 -0.048275
v 0.242964 1.647073 -0.040596
v 0.360048 1.964972 -0.048275
v 0.369810 1.961028 -0.040666
v 0.338081 1.492159 -0.035464
v 0.340040 1.484542 -0.039057
v 0.329703 1.488710 -0.048275
v 0.329189 1.495743 -0.040528
v 0.200020 1.542577 -0.048275
v 0.208196 1.544628 -0.040560
v 0.195147 1.538784 -0.048275
v 0.322628 1.486426 -0.048275
v 0.132141 1.012396 -0.048275
v 0.087342 1.582339 -0.048275
v 0.100509 1.582481 -0.048275
v 0.185775 1.548032 -0.048275
v 0.087342 1.582339 -0.048275
v -0.232994 1.159920 -0.048275
v -0.040730 1.633232 -0.048275
v -0.044233 1.639790 -0.048275
v 0.086472 1.588453 -0.048275
v -0.038977 1.644493 -0.040529
v 0.082015 1.595608 -0.040560
v -0.044608 1.646775 -0.035464
v -0.054564 1.643973 -0.039057
v 0.255016 2.007407 0.040665
v 0.265738 2.013458 0.033906
v 0.265738 2.013458 -0.033906
v 0.255016 2.007407 -0.040666
v 0.128170 1.693452 0.040596
v 0.264778 2.003464 0.048275
v 0.137257 1.689780 0.048275
v 0.268220 1.997297 0.048275
v 0.142887 1.687506 0.048275
v 0.264778 2.003464 0.048275
v 0.128170 1.693452 -0.040596
v 0.366300 1.972828 0.033906
v 0.274176 2.010048 0.040486
v 0.357862 1.976237 0.040486
v 0.265738 2.013458 0.033906
v 0.366300 1.972828 -0.033906
v 0.265738 2.013458 -0.033906
v 0.357862 1.976237 -0.040486
v 0.274176 2.010048 -0.040486
v -0.054564 1.643973 0.039057
v -0.044608 1.646775 0.035464
v -0.044608 1.646775 -0.035464
v -0.054564 1.643973 -0.039057
v -0.247729 1.165873 -0.038384
v -0.247729 1.165873 0.038384
v -0.044233 1.639790 0.048275
v -0.237395 1.161698 0.048275
v -0.040730 1.633232 0.048275
v -0.232994 1.159920 0.048275
v -0.044608 1.646775 0.035464
v -0.038977 1.644493 -0.040529
v -0.044608 1.646775 -0.035464
v -0.038977 1.644493 0.040528
v 0.082015 1.595608 -0.040560
v 0.082015 1.595608 0.040560
v 0.082015 1.595608 0.040560
v 0.090009 1.599001 -0.040563
v 0.082015 1.595608 -0.040560
v 0.090009 1.599001 0.040563
v 0.086472 1.588453 0.048275
v 0.096477 1.588669 0.048275
v 0.100509 1.582481 0.048275
v 0.087342 1.582339 0.048275
v 0.142887 1.687506 0.048275
v 0.100509 1.582481 0.048275
v 0.137257 1.689780 0.048275
v 0.128170 1.693452 0.040596
v 0.128170 1.693452 -0.040596
v 0.265738 2.013458 0.033906
v 0.264778 2.003464 0.048275
v 0.274176 2.010048 0.040486
v 0.255016 2.007407 0.040665
v 0.268220 1.997297 -0.048275
v 0.137257 1.689780 -0.048275
v 0.264778 2.003464 -0.048275
v 0.142887 1.687506 -0.048275
v 0.264778 2.003464 -0.048275
v 0.128170 1.693452 -0.040596
v 0.255016 2.007407 -0.040666
v 0.142887 1.687506 -0.048275
v 0.100509 1.582481 -0.048275
v 0.096477 1.588669 -0.048275
v 0.137257 1.689780 -0.048275
v 0.090009 1.599001 -0.040563
v 0.128170 1.693452 -0.040596
v 0.086472 1.588453 -0.048275
v 0.082015 1.595608 -0.040560
v 0.100509 1.582481 -0.048275
v 0.087342 1.582339 -0.048275
v -0.237395 1.161698 -0.048275
v -0.040730 1.633232 -0.048275
v -0.232994 1.159920 -0.048275
v -0.044233 1.639790 -0.048275
v -0.247729 1.165873 -0.038384
v -0.054564 1.643973 -0.039057
v 0.265738 2.013458 -0.033906
v 0.264778 2.003464 -0.048275
v 0.255016 2.007407 -0.040666
v 0.274176 2.010048 -0.040486
vn 0.3567 0.9274 -0.1123
vn 0.9482 -0.2608 -0.1817
vn 0.3568 0.9274 0.1122
vn 0.9481 -0.2609 0.1817
vn 0.1582 0.3746 0.9136
vn 0.2949 -0.0760 0.9525
vn -0.0000 -0.0000 1.0000
vn 0.4094 -0.1380 0.9018
vn 0.9386 -0.3169 0.1363
vn 0.9386 -0.3170 -0.1361
vn 0.9466 -0.2927 -0.1348
vn 0.4257 0.9048 -0.0155
vn 0.9466 -0.2927 0.1350
vn 0.4256 0.9048 0.0155
vn 0.4447 -0.0376 0.8949
vn 0.4096 -0.1380 0.9018
vn 0.4095 -0.1380 0.9018
vn 0.4448 -0.0375 0.8948
vn -0.3764 0.2398 0.8949
vn 0.2861 0.7371 0.6122
vn 0.4257 0.9047 0.0154
vn 0.9466 -0.2928 0.1349
vn 0.2194 0.7596 0.6123
vn 0.9386 -0.3169 -0.1361
vn 0.9473 -0.3063 -0.0939
vn 0.7506 0.6598 -0.0355
vn 0.9473 -0.3063 0.0940
vn 0.7506 0.6598 0.0355
vn 0.9436 -0.3187 -0.0896
vn 0.9436 -0.3187 0.0898
vn 0.5177 -0.0752 0.8523
vn 0.4778 -0.1618 0.8634
vn 0.3243 0.9407 -0.0996
vn 0.3243 0.9407 0.0996
vn 0.3568 0.9274 -0.1122
vn 0.3243 0.9407 0.0997
vn 0.5177 -0.0753 0.8522
vn 0.9473 -0.3064 0.0939
vn 0.1581 0.3745 0.9136
vn 0.3568 0.9274 0.1123
vn -0.4577 0.2543 0.8520
vn 0.1013 0.3936 0.9137
vn 0.3123 0.9448 0.0997
vn 0.2784 0.9539 0.1123
vn -0.1970 0.9798 0.0355
vn -0.9391 0.3307 0.0940
vn 0.2949 -0.0760 -0.9525
vn 0.1582 0.3746 -0.9136
vn -0.0000 -0.0000 -1.0000
vn 0.9482 -0.2607 -0.1816
vn 0.4094 -0.1380 -0.9018
vn 0.9386 -0.3169 -0.1360
vn 0.3569 0.9274 -0.1123
vn 0.4778 -0.1618 -0.8634
vn 0.5177 -0.0752 -0.8523
vn 0.9436 -0.3186 -0.0896
vn 0.9473 -0.3064 -0.0938
vn 0.9466 -0.2928 -0.1349
vn 0.4448 -0.0375 -0.8948
vn 0.4257 0.9048 -0.0154
vn 0.2861 0.7371 -0.6122
vn 0.2194 0.7596 -0.6123
vn -0.3765 0.2397 -0.8949
vn 0.4095 -0.1380 -0.9018
vn 0.4096 -0.1380 -0.9018
vn 0.4447 -0.0376 -0.8949
vn 0.9386 -0.3170 -0.1360
vn 0.9466 -0.2929 -0.1348
vn 0.9472 -0.3065 -0.0940
vn 0.5177 -0.0753 -0.8522
vn 0.3242 0.9407 -0.0997
vn 0.1581 0.3745 -0.9136
vn 0.3568 0.9274 -0.1123
vn -0.4577 0.2543 -0.8519
vn 0.1013 0.3936 -0.9137
vn 0.3123 0.9447 -0.0997
vn 0.2784 0.9539 -0.1123
vn -0.1970 0.9798 -0.0355
vn -0.9391 0.3306 -0.0941
vn 0.2099 0.9776 0.0155
vn 0.2100 0.9776 -0.0155
vn -0.9303 0.3411 0.1350
vn -0.9303 0.3411 -0.1348
vn -0.9386 0.3170 0.1363
vn -0.3765 0.2398 0.8949
vn -0.4095 0.1385 0.9017
vn -0.4094 0.1385 0.9018
vn -0.9386 0.3170 -0.1360
vn 0.2100 0.9776 0.0156
vn 0.2194 0.7596 0.6122
vn 0.4258 0.9047 0.0156
vn 0.2860 0.7371 0.6122
vn 0.4258 0.9047 -0.0156
vn 0.2100 0.9776 -0.0156
vn 0.2860 0.7371 -0.6122
vn 0.2194 0.7596 -0.6122
vn -0.9391 0.3306 0.0940
vn -0.9391 0.3306 -0.0940
vn -0.9436 0.3186 -0.0896
vn -0.9436 0.3186 0.0898
vn -0.4576 0.2543 0.8520
vn -0.4781 0.1611 0.8634
vn 0.3124 0.9447 0.0996
vn 0.3124 0.9447 -0.0996
vn 0.2784 0.9539 -0.1122
vn 0.2784 0.9539 0.1122
vn -0.9122 0.3674 0.1817
vn -0.9122 0.3674 -0.1817
vn 0.2785 0.9539 0.1123
vn 0.2785 0.9539 -0.1123
vn 0.1012 0.3937 0.9137
vn -0.2806 0.1184 0.9525
vn -0.4092 0.1385 0.9019
vn -0.3765 0.2397 0.8949
vn 0.2099 0.9776 0.0154
vn 0.2193 0.7597 0.6122
vn -0.4094 0.1385 -0.9018
vn -0.3764 0.2398 -0.8949
vn -0.3765 0.2398 -0.8949
vn -0.9303 0.3410 -0.1348
vn -0.2806 0.1184 -0.9525
vn -0.4092 0.1385 -0.9019
vn -0.9122 0.3673 -0.1816
vn -0.9386 0.3170 -0.1361
vn 0.1012 0.3937 -0.9137
vn -0.4575 0.2543 -0.8520
vn -0.4781 0.1611 -0.8634
vn -0.9436 0.3187 -0.0896
vn -0.9391 0.3306 -0.0938
vn 0.2193 0.7597 -0.6122
vn 0.2099 0.9776 -0.0154
vn -0.9303 0.3411 -0.1349
vt 0.165000 0.332500
vt 0.167500 0.332500
vt 0.167500 0.335000
vt 0.665000 0.332500
vt 0.667500 0.332500
vt 0.667500 0.335000
vt 0.585000 0.417500
vt 0.582500 0.417500
vt 0.582500 0.415000
vt 0.085000 0.417500
vt 0.082500 0.417500
vt 0.082500 0.415000
vt 0.335000 0.417500
vt 0.332500 0.417500
vt 0.332500 0.415000
vt 0.415000 0.332500
vt 0.417500 0.332500
vt 0.417500 0.335000
vt 0.915000 0.332500
vt 0.917500 0.332500
vt 0.917500 0.335000
vt 0.835000 0.417500
vt 0.832500 0.417500
vt 0.832500 0.415000
s 1
f 2/1/1 3/2/2 1/3/3
f 3/1/2 4/2/4 1/3/3
f 1/1/3 4/2/4 5/3/5
f 4/1/4 6/2/6 5/3/5
f 5/1/5 6/2/6 7/3/7
f 8/1/7 5/2/5 7/3/7
f 9/1/8 6/2/6 4/3/4
f 6/1/6 9/2/8 10/3/7
f 11/1/7 6/2/6 10/3/7
f 12/1/7 11/2/7 10/3/7
f 13/1/7 12/2/7 10/3/7
f 14/1/9 9/2/8 4/3/4
f 15/1/10 14/2/9 4/3/4
f 3/1/2 15/2/10 4/3/4
f 19/4/11 17/5/12 16/6/13
f 17/7/12 18/8/14 16/9/13
f 19/4/11 16/5/13 20/6/9
f 16/4/13 21/5/15 20/6/9
f 21/4/15 22/5/16 20/6/9
f 23/4/7 22/5/17 24/6/7
f 22/4/17 25/5/18 24/6/7
f 26/4/7 24/5/7 25/6/18
f 27/4/19 26/5/7 25/6/18
f 27/4/19 25/5/18 28/6/20
f 28/4/20 25/5/18 29/6/21
f 25/4/18 30/5/22 29/6/21
f 31/4/23 27/5/19 28/6/20
f 26/4/7 32/5/7 24/6/7
f 32/4/7 23/5/7 24/6/7
f 33/4/24 19/5/11 20/6/9
f 37/1/25 35/2/26 34/3/27
f 35/10/26 36/11/28 34/12/27
f 37/1/25 34/2/27 38/3/29
f 34/1/27 39/2/30 38/3/29
f 34/1/27 40/2/31 39/3/30
f 40/1/31 41/2/32 39/3/30
f 40/1/31 42/2/7 41/3/32
f 42/1/7 43/2/7 41/3/32
f 45/13/26 46/14/33 44/15/28
f 46/16/33 47/17/34 44/18/28
f 46/16/33 48/17/35 47/18/34
f 48/16/35 49/17/3 47/18/34
f 53/1/36 51/2/37 50/3/28
f 51/1/37 52/2/38 50/3/28
f 54/1/39 51/2/37 53/3/36
f 55/1/40 54/2/39 53/3/36
f 51/1/37 54/2/39 56/3/7
f 58/1/7 57/2/7 56/3/7
f 57/1/7 51/2/37 56/3/7
f 59/1/7 58/2/7 56/3/7
f 60/1/7 59/2/7 56/3/7
f 61/1/7 56/2/7 62/3/7
f 63/1/7 61/2/7 62/3/7
f 60/1/7 64/2/7 59/3/7
f 65/1/41 64/2/7 60/3/7
f 66/1/42 65/2/41 60/3/7
f 65/1/41 66/2/42 67/3/43
f 66/1/42 68/2/44 67/3/43
f 65/1/41 67/2/43 69/3/45
f 70/1/46 65/2/41 69/3/45
f 74/1/47 72/2/48 71/3/49
f 72/1/48 73/2/49 71/3/49
f 74/1/47 75/2/50 72/3/48
f 74/1/47 76/2/51 75/3/50
f 76/1/51 74/2/47 77/3/49
f 74/1/47 78/2/49 77/3/49
f 79/1/49 77/2/49 78/3/49
f 80/1/49 79/2/49 78/3/49
f 76/1/51 81/2/52 75/3/50
f 75/1/50 82/2/53 72/3/48
f 84/1/49 85/2/49 83/3/54
f 85/1/49 86/2/55 83/3/54
f 83/1/54 86/2/55 87/3/56
f 86/1/55 88/2/57 87/3/56
f 90/4/58 91/5/59 89/6/60
f 91/4/59 92/5/61 89/6/60
f 93/4/62 92/5/61 91/6/59
f 94/4/63 93/5/62 91/6/59
f 96/4/49 94/5/63 95/6/49
f 94/4/63 91/5/59 95/6/49
f 96/4/49 95/5/49 97/6/49
f 98/4/49 96/5/49 97/6/49
f 99/4/64 97/5/49 95/6/49
f 91/4/59 99/5/64 95/6/49
f 99/4/65 101/5/66 100/6/67
f 101/4/66 102/5/68 100/6/67
f 104/1/69 105/2/70 103/3/26
f 105/1/70 106/2/71 103/3/26
f 105/1/70 107/2/72 106/3/71
f 107/1/72 108/2/73 106/3/71
f 107/1/72 105/2/70 109/3/49
f 105/1/70 110/2/49 109/3/49
f 109/1/49 110/2/49 111/3/49
f 112/1/49 109/2/49 111/3/49
f 115/1/49 113/2/49 109/3/49
f 113/1/49 114/2/49 109/3/49
f 116/1/49 112/2/49 111/3/49
f 116/1/49 117/2/49 112/3/49
f 117/1/49 118/2/74 112/3/49
f 118/1/74 119/2/75 112/3/49
f 119/1/75 118/2/74 120/3/76
f 121/1/77 119/2/75 120/3/76
f 120/1/76 118/2/74 122/3/78
f 118/1/74 123/2/79 122/3/78
f 125/4/80 126/5/81 124/6/82
f 126/4/81 127/5/83 124/6/82
f 124/4/82 127/5/83 128/6/84
f 129/4/85 124/5/82 128/6/84
f 130/4/86 129/5/85 128/6/84
f 133/4/19 130/5/87 131/6/7
f 130/4/87 132/5/7 131/6/7
f 127/4/83 134/5/88 128/6/84
f 138/19/89 136/20/90 135/21/91
f 136/22/90 137/23/92 135/24/91
f 138/19/89 135/20/91 139/21/93
f 140/19/94 138/20/89 139/21/93
f 140/19/94 139/20/93 141/21/95
f 142/19/96 140/20/94 141/21/95
f 144/1/45 145/2/78 143/3/97
f 145/1/78 146/2/98 143/3/97
f 143/1/97 146/2/98 147/3/99
f 148/1/100 143/2/97 147/3/99
f 149/1/101 143/2/97 148/3/100
f 150/1/102 149/2/101 148/3/100
f 151/1/7 149/2/101 150/3/102
f 152/1/7 151/2/7 150/3/102
f 156/16/103 154/17/104 153/18/45
f 154/16/104 155/17/78 153/18/45
f 157/16/105 154/17/104 156/18/103
f 158/16/106 157/17/105 156/18/103
f 162/1/107 160/2/108 159/3/109
f 160/1/108 161/2/110 159/3/109
f 162/1/107 159/2/109 163/3/111
f 164/1/112 163/2/111 165/3/7
f 164/1/112 162/2/107 163/3/111
f 163/1/111 166/2/7 165/3/7
f 164/1/112 168/2/7 167/3/7
f 169/1/113 164/2/112 167/3/7
f 164/1/112 169/2/113 162/3/107
f 169/1/113 170/2/84 162/3/107
f 170/1/84 171/2/88 162/3/107
f 171/1/88 160/2/108 162/3/107
f 175/4/82 173/5/114 172/6/115
f 173/4/114 174/5/116 172/6/115
f 179/4/49 177/5/117 176/6/49
f 177/4/117 178/5/118 176/6/49
f 180/4/119 177/5/117 181/6/88
f 182/4/120 180/5/119 181/6/88
f 184/1/49 185/2/121 183/3/49
f 185/1/121 186/2/122 183/3/49
f 186/1/122 185/2/121 187/3/123
f 188/1/124 186/2/122 187/3/123
f 187/1/123 185/2/121 189/3/125
f 190/1/77 187/2/123 189/3/125
f 189/1/125 185/2/121 191/3/49
f 192/1/49 189/2/125 191/3/49
f 196/1/126 194/2/49 193/3/127
f 194/1/49 195/2/49 193/3/127
f 196/1/126 193/2/127 197/3/128
f 198/1/129 196/2/126 197/3/128
f 202/4/130 200/5/63 199/6/131
f 200/4/63 201/5/132 199/6/131
