<?xml version="1.0" encoding="utf-8"?>
<COLLADA xmlns:xsi="http://www.w3.org/2001/XMLSchema-instance" xmlns:xsd="http://www.w3.org/2001/XMLSchema" version="1.4.1" xmlns="http://www.collada.org/2005/11/COLLADASchema">
    <asset>
        <created>2022-10-28T08:36:21.642122-05:00</created>
        <modified>2022-10-28T08:36:21.642122-05:00</modified>
        <unit name="Meter" />
        <contributor>
            <authoring_tool>IONET Exporter</authoring_tool>
        </contributor>
    </asset>
    <library_images>
        <image id="Texture_36_CMP-image" name="Texture_36_CMP">
            <init_from>Texture_36_CMP.png</init_from>
        </image>
        <image id="Texture_36_CMP-image_0" name="Texture_36_CMP">
            <init_from>Texture_36_CMP.png</init_from>
        </image>
    </library_images>
    <library_materials>
        <material id="to_s10" name="to_s10">
            <instance_effect url="#to_s10-effect" />
        </material>
        <material id="to_s11" name="to_s11">
            <instance_effect url="#to_s11-effect" />
        </material>
    </library_materials>
    <library_effects>
        <effect id="to_s10-effect" name="to_s10">
            <profile_COMMON>
                <newparam sid="Texture_36_CMP-image_surface">
                    <surface type="2D">
                        <init_from>Texture_36_CMP-image</init_from>
                    </surface>
                </newparam>
                <newparam sid="Texture_36_CMP-image_sampler">
                    <sampler2D>
                        <source>Texture_36_CMP-image_surface</source>
                        <wrap_s>CLAMP</wrap_s>
                        <wrap_t>CLAMP</wrap_t>
                    </sampler2D>
                </newparam>
                <technique sid="standard">
                    <phong>
                        <emission>
                            <color sid="emission">0 0 0 1</color>
                        </emission>
                        <ambient>
                            <color sid="ambient">0 0 0 1</color>
                        </ambient>
                        <diffuse>
                            <texture texture="Texture_36_CMP-image_sampler" texcoord="CHANNEL0" />
                        </diffuse>
                        <specular>
                            <color sid="specular">0.2352941 0.4588235 0.7607843 0.5607843</color>
                        </specular>
                        <reflective>
                            <color sid="reflective">1 1 1 1</color>
                        </reflective>
                        <shininess>
                            <float sid="shininess">50</float>
                        </shininess>
                        <reflectivity>
                            <float sid="reflectivity">1</float>
                        </reflectivity>
                        <transparency>
                            <float sid="transparency">1</float>
                        </transparency>
                    </phong>
                </technique>
            </profile_COMMON>
        </effect>
        <effect id="to_s11-effect" name="to_s11">
            <profile_COMMON>
                <newparam sid="Texture_36_CMP-image_0_surface">
                    <surface type="2D">
                        <init_from>Texture_36_CMP-image_0</init_from>
                    </surface>
                </newparam>
                <newparam sid="Texture_36_CMP-image_0_sampler">
                    <sampler2D>
                        <source>Texture_36_CMP-image_0_surface</source>
                        <wrap_s>CLAMP</wrap_s>
                        <wrap_t>CLAMP</wrap_t>
                    </sampler2D>
                </newparam>
                <technique sid="standard">
                    <phong>
                        <emission>
                            <color sid="emission">0 0 0 1</color>
                        </emission>
                        <ambient>
                            <color sid="ambient">0 0 0 1</color>
                        </ambient>
                        <diffuse>
                            <texture texture="Texture_36_CMP-image_0_sampler" texcoord="CHANNEL0" />
                        </diffuse>
                        <specular>
                            <color sid="specular">0.2352941 0.4588235 0.7607843 0.5607843</color>
                        </specular>
                        <reflective>
                            <color sid="reflective">1 1 1 1</color>
                        </reflective>
                        <shininess>
                            <float sid="shininess">50</float>
                        </shininess>
                        <reflectivity>
                            <float sid="reflectivity">1</float>
                        </reflectivity>
                        <transparency>
                            <float sid="transparency">1</float>
                        </transparency>
                    </phong>
                </technique>
            </profile_COMMON>
        </effect>
    </library_effects>
    <library_geometries>
        <geometry id="cflag_1_0-geometry" name="cflag_1_0">
            <mesh>
                <source id="cflag_1_0-geometry-POSITION">
                    <float_array id="cflag_1_0-geometry-POSITION-array" count="288">188.5782 10.0701 272.0529 200.7826 27.30415 269.5017 193.7745 26.89813 274.0541 198.0542 13.72566 269.4832 200.7826 27.30415 269.5017 188.5782 10.0701 272.0529 198.0542 13.72566 269.4832 218.247 27.00627 257.5159 200.7826 27.30415 269.5017 217.3458 15.22247 257.5346 218.247 27.00627 257.5159 198.0542 13.72566 269.4832 217.3458 15.22247 257.5346 230.6525 25.59081 245.8048 218.247 27.00627 257.5159 229.221 11.7984 244.8427 230.6525 25.59081 245.8048 217.3458 15.22247 257.5346 229.221 11.7984 244.8427 238.4453 24.1979 238.3332 230.6525 25.59081 245.8048 236.2219 6.547777 235.8816 238.4453 24.1979 238.3332 229.221 11.7984 244.8427 208.4785 81.99924 283.978 203.2679 54.71821 270.1304 210.8634 81.28229 276.2343 199.058 56.86699 276.555 203.2679 54.71821 270.1304 208.4785 81.99924 283.978 199.058 56.86699 276.555 200.7826 27.30415 269.5017 203.2679 54.71821 270.1304 193.7745 26.89813 274.0541 200.7826 27.30415 269.5017 199.058 56.86699 276.555 208.4785 81.99924 283.978 218.9197 118.0044 282.2786 217.7127 120.7804 290.8646 210.8634 81.28229 276.2343 218.9197 118.0044 282.2786 208.4785 81.99924 283.978 210.8634 81.28229 276.2343 228.8763 116.0194 269.8716 218.9197 118.0044 282.2786 223.3133 80.37176 265.3264 228.8763 116.0194 269.8716 210.8634 81.28229 276.2343 223.3133 80.37176 265.3264 241.4557 117.0785 263.8614 228.8763 116.0194 269.8716 234.9919 80.84087 256.9106 241.4557 117.0785 263.8614 223.3133 80.37176 265.3264 234.9919 80.84087 256.9106 250.84 119.4017 263.7586 241.4557 117.0785 263.8614 244.6216 81.27793 254.9243 250.84 119.4017 263.7586 234.9919 80.84087 256.9106 210.8634 81.28229 276.2343 218.9741 54.58786 260.8094 223.3133 80.37176 265.3264 203.2679 54.71821 270.1304 218.9741 54.58786 260.8094 210.8634 81.28229 276.2343 203.2679 54.71821 270.1304 218.247 27.00627 257.5159 218.9741 54.58786 260.8094 200.7826 27.30415 269.5017 218.247 27.00627 257.5159 203.2679 54.71821 270.1304 223.3133 80.37176 265.3264 229.295 53.41985 249.0143 234.9919 80.84087 256.9106 218.9741 54.58786 260.8094 229.295 53.41985 249.0143 223.3133 80.37176 265.3264 218.9741 54.58786 260.8094 230.6525 25.59081 245.8048 229.295 53.41985 249.0143 218.247 27.00627 257.5159 230.6525 25.59081 245.8048 218.9741 54.58786 260.8094 234.9919 80.84087 256.9106 239.0921 55.13421 244.2968 244.6216 81.27793 254.9243 229.295 53.41985 249.0143 239.0921 55.13421 244.2968 234.9919 80.84087 256.9106 229.295 53.41985 249.0143 238.4453 24.1979 238.3332 239.0921 55.13421 244.2968 230.6525 25.59081 245.8048 238.4453 24.1979 238.3332 229.295 53.41985 249.0143</float_array>
                    <technique_common>
                        <accessor count="96" offset="0" source="cflag_1_0-geometry-POSITION-array" stride="3">
                            <param name="X" type="float" />
                            <param name="Y" type="float" />
                            <param name="Z" type="float" />
                        </accessor>
                    </technique_common>
                </source>
                <source id="cflag_1_0-geometry-NORMAL">
                    <float_array id="cflag_1_0-geometry-NORMAL-array" count="75">-0.4812835 0.1732468 -0.8510227 -0.5717846 0.05743993 -0.8183904 -0.5986087 0.08935264 -0.7960425 -0.5185695 0.1087619 -0.8480899 -0.6303985 0.03009124 -0.7756882 -0.6244096 0.08436102 -0.776528 -0.6758545 0.05992743 -0.7345946 -0.6997352 0.1234885 -0.7036484 -0.6399772 0.08563201 -0.7636074 -0.7015759 0.1570152 -0.6950809 -0.8749542 0.3566655 -0.3274827 -0.6926616 -0.03173237 -0.7205644 -0.764503 0.3415056 -0.5467259 -0.8051043 0.0182798 -0.5928516 -0.8330503 0.2498784 -0.4935465 -0.9283594 0.2578573 -0.2676878 -0.6041564 0.2232543 -0.7649527 -0.5912144 0.3042377 -0.7469304 -0.3371995 0.2289189 -0.9131773 -0.4004384 0.3282886 -0.8554974 -0.1477877 0.2336679 -0.9604518 -0.2107238 0.3408542 -0.9161953 -0.6344291 -0.0783131 -0.7690038 -0.5913625 -0.0431413 -0.8052511 -0.4649627 -0.00927454 -0.8852817</float_array>
                    <technique_common>
                        <accessor count="25" offset="0" source="cflag_1_0-geometry-NORMAL-array" stride="3">
                            <param name="X" type="float" />
                            <param name="Y" type="float" />
                            <param name="Z" type="float" />
                        </accessor>
                    </technique_common>
                </source>
                <source id="cflag_1_0-geometry-TEXCOORD">
                    <float_array id="cflag_1_0-geometry-TEXCOORD-array" count="50">0.9967635 0 0.9141935 0.2196878 0.9967635 0.2196878 0.9141935 0.01363522 0.7490537 0.2196878 0.7490537 0.02517271 0.5839139 0.2196878 0.5839139 0.01887947 0.5043757 0.2196878 0.5043757 0 0.9967635 0.6729484 0.9141935 0.4447536 0.9141935 0.6729484 0.9967635 0.4447537 0.9141935 0.9999999 0.9967635 1 0.7490537 1 0.7490537 0.6729484 0.5839139 1 0.5839139 0.6729484 0.5043757 1 0.5043757 0.6729484 0.7490537 0.4447536 0.5839139 0.4447536 0.5043757 0.4447537</float_array>
                    <technique_common>
                        <accessor count="25" offset="0" source="cflag_1_0-geometry-TEXCOORD-array" stride="2">
                            <param name="S" type="float" />
                            <param name="T" type="float" />
                        </accessor>
                    </technique_common>
                </source>
                <source id="cflag_1_0-geometry-COLOR">
                    <float_array id="cflag_1_0-geometry-COLOR-array" count="72">1 1 1 1 1 1 0.9803922 1 0.9764706 1 0.8980392 1 0.8588235 0.9411765 0.8156863 1 0.7411765 0.8313726 0.7411765 1 0.6784314 0.7647059 0.6941177 1 0.6666667 0.7568628 0.6901961 1 0.6588235 0.7450981 0.6784314 1 0.5764706 0.6705883 0.627451 1 0.7882353 0.8705882 0.7568628 1 1 1 0.9529412 1 0.7333333 0.8117647 0.7137255 1 0.9803922 1 0.8862745 1 0.945098 1 0.854902 1 1 1 0.9098039 1 1 1 0.972549 1 0.9294118 1 0.854902 1 0.7803922 0.8627451 0.7568628 1</float_array>
                    <technique_common>
                        <accessor count="18" offset="0" source="cflag_1_0-geometry-COLOR-array" stride="4">
                            <param name="R" type="double" />
                            <param name="G" type="double" />
                            <param name="B" type="double" />
                            <param name="A" type="double" />
                        </accessor>
                    </technique_common>
                </source>
                <vertices id="cflag_1_0-vertices">
                    <input semantic="POSITION" source="#cflag_1_0-geometry-POSITION" />
                </vertices>
                <triangles count="32" material="to_s10">
                    <input semantic="VERTEX" source="#cflag_1_0-vertices" offset="0" set="0" />
                    <input semantic="NORMAL" source="#cflag_1_0-geometry-NORMAL" offset="1" set="0" />
                    <input semantic="TEXCOORD" source="#cflag_1_0-geometry-TEXCOORD" offset="2" set="0" />
                    <input semantic="COLOR" source="#cflag_1_0-geometry-COLOR" offset="3" set="0" />
                    <p>2 2 2 0 1 1 1 0 0 0 0 0 5 0 0 0 4 1 1 0 3 3 3 0 8 1 1 0 7 4 4 1 6 3 3 0 11 3 3 0 10 4 4 1 9 5 5 2 14 4 4 1 13 6 6 3 12 5 5 2 17 5 5 2 16 6 6 3 15 7 7 4 20 6 6 3 19 8 8 5 18 7 7 4 23 7 7 4 22 8 8 5 21 9 9 6 26 12 12 0 25 11 11 0 24 10 10 0 29 10 10 0 28 11 11 0 27 13 13 0 32 11 11 0 31 1 1 0 30 13 13 0 35 13 13 0 34 1 1 0 33 2 2 0 38 15 15 8 37 14 14 7 36 10 10 0 41 10 10 0 40 14 14 7 39 12 12 0 44 14 14 7 43 16 16 9 42 12 12 0 47 12 12 0 46 16 16 9 45 17 17 10 50 16 16 9 49 18 18 11 48 17 17 10 53 17 17 10 52 18 18 11 51 19 19 12 56 18 18 11 55 20 20 13 54 19 19 12 59 19 19 12 58 20 20 13 57 21 21 14 62 17 17 10 61 22 22 15 60 12 12 0 65 12 12 0 64 22 22 15 63 11 11 0 68 22 22 15 67 4 4 1 66 11 11 0 71 11 11 0 70 4 4 1 69 1 1 0 74 19 19 12 73 23 23 16 72 17 17 10 77 17 17 10 76 23 23 16 75 22 22 15 80 23 23 16 79 6 6 3 78 22 22 15 83 22 22 15 82 6 6 3 81 4 4 1 86 21 21 14 85 24 24 17 84 19 19 12 89 19 19 12 88 24 24 17 87 23 23 16 92 24 24 17 91 8 8 5 90 23 23 16 95 23 23 16 94 8 8 5 93 6 6 3</p>
                </triangles>
            </mesh>
        </geometry>
        <geometry id="cflag_4_0-geometry" name="cflag_4_0">
            <mesh>
                <source id="cflag_4_0-geometry-POSITION">
                    <float_array id="cflag_4_0-geometry-POSITION-array" count="288">172.5727 12.07953 -261.7591 186.2299 28.71602 -259.378 178.745 28.75157 -263.1618 182.0012 15.14684 -260.0163 186.2299 28.71602 -259.378 172.5727 12.07953 -261.7591 182.0012 15.14684 -260.0163 204.6768 27.54666 -249.042 186.2299 28.71602 -259.378 202.4664 15.43633 -250.113 204.6768 27.54666 -249.042 182.0012 15.14684 -260.0163 202.4664 15.43633 -250.113 217.8947 26.70577 -238.0165 204.6768 27.54666 -249.042 214.9764 12.86417 -237.8716 217.8947 26.70577 -238.0165 202.4664 15.43633 -250.113 214.9764 12.86417 -237.8716 226.236 25.76808 -231.3155 217.8947 26.70577 -238.0165 221.9764 8.56844 -228.4838 226.236 25.76808 -231.3155 214.9764 12.86417 -237.8716 219.8997 80.26 -267.5724 195.2634 56.05891 -263.1965 218.2991 79.64109 -263.9438 195.3582 56.79417 -266.5143 195.2634 56.05891 -263.1965 219.8997 80.26 -267.5724 195.3582 56.79417 -266.5143 186.2299 28.71602 -259.378 195.2634 56.05891 -263.1965 178.745 28.75157 -263.1618 186.2299 28.71602 -259.378 195.3582 56.79417 -266.5143 219.8997 80.26 -267.5724 239.5589 114.7673 -265.1577 246.6194 116.7048 -267.0233 218.2991 79.64109 -263.9438 239.5589 114.7673 -265.1577 219.8997 80.26 -267.5724 218.2991 79.64109 -263.9438 226.0748 113.7551 -272.3052 239.5589 114.7673 -265.1577 219.0125 78.62325 -264.0691 226.0748 113.7551 -272.3052 218.2991 79.64109 -263.9438 219.0125 78.62325 -264.0691 218.4636 114.9735 -283.524 226.0748 113.7551 -272.3052 220.1839 79.08694 -265.1564 218.4636 114.9735 -283.524 219.0125 78.62325 -264.0691 220.1839 79.08694 -265.1564 218.6522 116.9094 -291.7231 218.4636 114.9735 -283.524 223.8992 79.46088 -268.3332 218.6522 116.9094 -291.7231 220.1839 79.08694 -265.1564 218.2991 79.64109 -263.9438 211.615 54.56592 -255.2084 219.0125 78.62325 -264.0691 195.2634 56.05891 -263.1965 211.615 54.56592 -255.2084 218.2991 79.64109 -263.9438 195.2634 56.05891 -263.1965 204.6768 27.54666 -249.042 211.615 54.56592 -255.2084 186.2299 28.71602 -259.378 204.6768 27.54666 -249.042 195.2634 56.05891 -263.1965 219.0125 78.62325 -264.0691 223.1488 54.43678 -244.6104 220.1839 79.08694 -265.1564 211.615 54.56592 -255.2084 223.1488 54.43678 -244.6104 219.0125 78.62325 -264.0691 211.615 54.56592 -255.2084 217.8947 26.70577 -238.0165 223.1488 54.43678 -244.6104 204.6768 27.54666 -249.042 217.8947 26.70577 -238.0165 211.615 54.56592 -255.2084 220.1839 79.08694 -265.1564 228.8977 54.72199 -245.4999 223.8992 79.46088 -268.3332 223.1488 54.43678 -244.6104 228.8977 54.72199 -245.4999 220.1839 79.08694 -265.1564 223.1488 54.43678 -244.6104 226.236 25.76808 -231.3155 228.8977 54.72199 -245.4999 217.8947 26.70577 -238.0165 226.236 25.76808 -231.3155 223.1488 54.43678 -244.6104</float_array>
                    <technique_common>
                        <accessor count="96" offset="0" source="cflag_4_0-geometry-POSITION-array" stride="3">
                            <param name="X" type="float" />
                            <param name="Y" type="float" />
                            <param name="Z" type="float" />
                        </accessor>
                    </technique_common>
                </source>
                <source id="cflag_4_0-geometry-NORMAL">
                    <float_array id="cflag_4_0-geometry-NORMAL-array" count="75">-0.3528495 0.4600155 0.8147902 -0.4394164 0.4245883 0.7898614 -0.4622055 0.4609489 0.7545657 -0.3844237 0.4380365 0.8126146 -0.502926 0.3926663 0.7699861 -0.4938364 0.4238185 0.7592782 -0.5332283 0.4287313 0.7280642 -0.5602141 0.4554803 0.6918799 -0.4785828 0.4629683 0.7431747 -0.55198 0.4820129 0.6804276 -0.497346 0.4242708 0.6261629 -0.5449401 0.4532176 0.6977149 -0.5308319 0.4266286 0.7050173 -0.6232666 0.4898163 0.5897342 -0.3238932 0.3350469 0.8805329 -0.1290663 0.3240148 0.9010348 -0.6232721 0.3279843 0.7099001 -0.5438743 0.4038287 0.732196 -0.8066775 0.3389663 0.4755926 -0.5096791 0.4189912 0.6955477 -0.8434522 0.338346 0.3277001 -0.4450414 0.4141556 0.6434137 -0.4902225 0.4174992 0.7578052 -0.430211 0.443948 0.7788512 -0.3350788 0.4684539 0.792447</float_array>
                    <technique_common>
                        <accessor count="25" offset="0" source="cflag_4_0-geometry-NORMAL-array" stride="3">
                            <param name="X" type="float" />
                            <param name="Y" type="float" />
                            <param name="Z" type="float" />
                        </accessor>
                    </technique_common>
                </source>
                <source id="cflag_4_0-geometry-TEXCOORD">
                    <float_array id="cflag_4_0-geometry-TEXCOORD-array" count="50">0.4962879 0 0.4137178 0.2196878 0.4962879 0.2196878 0.4137178 0.01363522 0.248578 0.2196878 0.248578 0.02517271 0.08343825 0.2196878 0.08343825 0.01887947 0.003899896 0.2196878 0.003899896 0 0.4962879 0.6729484 0.4137178 0.4447536 0.4137178 0.6729484 0.4962879 0.4447537 0.4137178 0.9999999 0.4962879 1 0.248578 1 0.248578 0.6729484 0.08343825 1 0.08343825 0.6729484 0.003899896 1 0.003899896 0.6729484 0.248578 0.4447536 0.08343825 0.4447536 0.003899896 0.4447537</float_array>
                    <technique_common>
                        <accessor count="25" offset="0" source="cflag_4_0-geometry-TEXCOORD-array" stride="2">
                            <param name="S" type="float" />
                            <param name="T" type="float" />
                        </accessor>
                    </technique_common>
                </source>
                <source id="cflag_4_0-geometry-COLOR">
                    <float_array id="cflag_4_0-geometry-COLOR-array" count="84">1 1 1 1 0.8823529 0.9803922 0.8588235 1 0.8823529 0.9803922 0.854902 1 0.7058824 0.8078431 0.7372549 1 0.7137255 0.8156863 0.7450981 1 0.6705883 0.7764706 0.7176471 1 0.6745098 0.7803922 0.7215686 1 0.8431373 0.9372549 0.8196079 1 0.9803922 1 0.9215686 1 0.8156863 0.9137255 0.8078431 1 0.6509804 0.7490196 0.6862745 1 0.6431373 0.7372549 0.6784314 1 0.6745098 0.772549 0.7058824 1 0.7843137 0.8823529 0.7882353 1 0.6235294 0.7215686 0.6705883 1 0.6784314 0.7764706 0.7137255 1 0.6078432 0.7058824 0.6588235 1 0.6313726 0.7294118 0.6784314 1 0.8627451 0.9607843 0.8431373 1 0.6941177 0.7960784 0.7294118 1 0.6588235 0.7607843 0.7058824 1</float_array>
                    <technique_common>
                        <accessor count="21" offset="0" source="cflag_4_0-geometry-COLOR-array" stride="4">
                            <param name="R" type="double" />
                            <param name="G" type="double" />
                            <param name="B" type="double" />
                            <param name="A" type="double" />
                        </accessor>
                    </technique_common>
                </source>
                <vertices id="cflag_4_0-vertices">
                    <input semantic="POSITION" source="#cflag_4_0-geometry-POSITION" />
                </vertices>
                <triangles count="32" material="to_s11">
                    <input semantic="VERTEX" source="#cflag_4_0-vertices" offset="0" set="0" />
                    <input semantic="NORMAL" source="#cflag_4_0-geometry-NORMAL" offset="1" set="0" />
                    <input semantic="TEXCOORD" source="#cflag_4_0-geometry-TEXCOORD" offset="2" set="0" />
                    <input semantic="COLOR" source="#cflag_4_0-geometry-COLOR" offset="3" set="0" />
                    <p>2 2 2 0 1 1 1 0 0 0 0 0 5 0 0 0 4 1 1 0 3 3 3 0 8 1 1 0 7 4 4 1 6 3 3 0 11 3 3 0 10 4 4 1 9 5 5 2 14 4 4 1 13 6 6 3 12 5 5 2 17 5 5 2 16 6 6 3 15 7 7 4 20 6 6 3 19 8 8 5 18 7 7 4 23 7 7 4 22 8 8 5 21 9 9 6 26 12 12 9 25 11 11 8 24 10 10 7 29 10 10 7 28 11 11 8 27 13 13 0 32 11 11 8 31 1 1 0 30 13 13 0 35 13 13 0 34 1 1 0 33 2 2 0 38 15 15 11 37 14 14 10 36 10 10 7 41 10 10 7 40 14 14 10 39 12 12 9 44 14 14 10 43 16 16 12 42 12 12 9 47 12 12 9 46 16 16 12 45 17 17 13 50 16 16 12 49 18 18 14 48 17 17 13 53 17 17 13 52 18 18 14 51 19 19 15 56 18 18 14 55 20 20 16 54 19 19 15 59 19 19 15 58 20 20 16 57 21 21 17 62 17 17 13 61 22 22 18 60 12 12 9 65 12 12 9 64 22 22 18 63 11 11 8 68 22 22 18 67 4 4 1 66 11 11 8 71 11 11 8 70 4 4 1 69 1 1 0 74 19 19 15 73 23 23 19 72 17 17 13 77 17 17 13 76 23 23 19 75 22 22 18 80 23 23 19 79 6 6 3 78 22 22 18 83 22 22 18 82 6 6 3 81 4 4 1 86 21 21 17 85 24 24 20 84 19 19 15 89 19 19 15 88 24 24 20 87 23 23 19 92 24 24 20 91 8 8 5 90 23 23 19 95 23 23 19 94 8 8 5 93 6 6 3</p>
                </triangles>
            </mesh>
        </geometry>
        <geometry id="cflag_3_0-geometry" name="cflag_3_0">
            <mesh>
                <source id="cflag_3_0-geometry-POSITION">
                    <float_array id="cflag_3_0-geometry-POSITION-array" count="288">-189.9342 7.109172 -271.7939 -196.3998 24.78814 -264.8123 -193.9098 24.65674 -272.8314 -193.099 8.812676 -263.2307 -196.3998 24.78814 -264.8123 -189.9342 7.109172 -271.7939 -193.099 8.812676 -263.2307 -213.2085 24.57503 -252.0392 -196.3998 24.78814 -264.8123 -209.9261 9.791871 -249.3938 -213.2085 24.57503 -252.0392 -193.099 8.812676 -263.2307 -209.9261 9.791871 -249.3938 -225.4947 24.06254 -240.1905 -213.2085 24.57503 -252.0392 -223.3701 8.056608 -237.5242 -225.4947 24.06254 -240.1905 -209.9261 9.791871 -249.3938 -223.3701 8.056608 -237.5242 -234.7815 23.48293 -235.1715 -225.4947 24.06254 -240.1905 -233.3178 6.974965 -233.4019 -234.7815 23.48293 -235.1715 -223.3701 8.056608 -237.5242 -209.9967 79.16666 -283.8696 -204.7948 51.3429 -269.9631 -212.3032 78.46215 -276.1975 -202.4041 51.77556 -277.5529 -204.7948 51.3429 -269.9631 -209.9967 79.16666 -283.8696 -202.4041 51.77556 -277.5529 -196.3998 24.78814 -264.8123 -204.7948 51.3429 -269.9631 -193.9098 24.65674 -272.8314 -196.3998 24.78814 -264.8123 -202.4041 51.77556 -277.5529 -209.9967 79.16666 -283.8696 -219.5255 115.8895 -283.994 -218.3326 118.1359 -291.0525 -212.3032 78.46215 -276.1975 -219.5255 115.8895 -283.994 -209.9967 79.16666 -283.8696 -212.3032 78.46215 -276.1975 -228.5244 114.0873 -271.0316 -219.5255 115.8895 -283.994 -224.5596 77.79104 -265.1381 -228.5244 114.0873 -271.0316 -212.3032 78.46215 -276.1975 -224.5596 77.79104 -265.1381 -241.2837 115.2926 -264.7285 -228.5244 114.0873 -271.0316 -235.7557 78.42373 -256.221 -241.2837 115.2926 -264.7285 -224.5596 77.79104 -265.1381 -235.7557 78.42373 -256.221 -250.5231 117.7659 -264.4349 -241.2837 115.2926 -264.7285 -244.9991 79.05009 -253.7347 -250.5231 117.7659 -264.4349 -235.7557 78.42373 -256.221 -212.3032 78.46215 -276.1975 -220.3844 51.59018 -260.4872 -224.5596 77.79104 -265.1381 -204.7948 51.3429 -269.9631 -220.3844 51.59018 -260.4872 -212.3032 78.46215 -276.1975 -204.7948 51.3429 -269.9631 -213.2085 24.57503 -252.0392 -220.3844 51.59018 -260.4872 -196.3998 24.78814 -264.8123 -213.2085 24.57503 -252.0392 -204.7948 51.3429 -269.9631 -224.5596 77.79104 -265.1381 -230.2385 51.20628 -248.2709 -235.7557 78.42373 -256.221 -220.3844 51.59018 -260.4872 -230.2385 51.20628 -248.2709 -224.5596 77.79104 -265.1381 -220.3844 51.59018 -260.4872 -225.4947 24.06254 -240.1905 -230.2385 51.20628 -248.2709 -213.2085 24.57503 -252.0392 -225.4947 24.06254 -240.1905 -220.3844 51.59018 -260.4872 -235.7557 78.42373 -256.221 -239.7421 51.01056 -244.7023 -244.9991 79.05009 -253.7347 -230.2385 51.20628 -248.2709 -239.7421 51.01056 -244.7023 -235.7557 78.42373 -256.221 -230.2385 51.20628 -248.2709 -234.7815 23.48293 -235.1715 -239.7421 51.01056 -244.7023 -225.4947 24.06254 -240.1905 -234.7815 23.48293 -235.1715 -230.2385 51.20628 -248.2709</float_array>
                    <technique_common>
                        <accessor count="96" offset="0" source="cflag_3_0-geometry-POSITION-array" stride="3">
                            <param name="X" type="float" />
                            <param name="Y" type="float" />
                            <param name="Z" type="float" />
                        </accessor>
                    </technique_common>
                </source>
                <source id="cflag_3_0-geometry-NORMAL">
                    <float_array id="cflag_3_0-geometry-NORMAL-array" count="75">0.9296213 0.2246083 0.2921562 0.7770181 0.2999499 0.5534192 0.9150127 0.2803546 0.2900914 0.8010901 0.2392872 0.5486313 0.6197041 0.2936709 0.7278216 0.6268858 0.2364781 0.7423559 0.5395999 0.2790523 0.7943311 0.5351437 0.20542 0.8194045 0.3965908 0.2568911 0.8813187 0.4113255 0.1676313 0.8959414 0.9163401 0.2807488 0.2854838 0.7578475 0.336755 0.5588052 0.8078101 0.2786108 0.5194409 0.8983002 0.3267352 0.29377 0.845335 0.2428723 0.4758379 0.9317802 0.2426929 0.2699738 0.6301342 0.2318687 0.7410586 0.6281448 0.2577603 0.7341619 0.367201 0.2529511 0.8950862 0.4357778 0.2853549 0.8536219 0.1870383 0.2675486 0.9452166 0.2424554 0.3009517 0.9223034 0.6183897 0.3168811 0.7191527 0.5215525 0.3339087 0.7851675 0.3379697 0.3388079 0.8780579</float_array>
                    <technique_common>
                        <accessor count="25" offset="0" source="cflag_3_0-geometry-NORMAL-array" stride="3">
                            <param name="X" type="float" />
                            <param name="Y" type="float" />
                            <param name="Z" type="float" />
                        </accessor>
                    </technique_common>
                </source>
                <source id="cflag_3_0-geometry-TEXCOORD">
                    <float_array id="cflag_3_0-geometry-TEXCOORD-array" count="50">0.4962879 0 0.4137178 0.2196878 0.4962879 0.2196878 0.4137178 0.01363522 0.248578 0.2196878 0.248578 0.02517271 0.08343825 0.2196878 0.08343825 0.01887947 0.003899896 0.2196878 0.003899896 0 0.4962879 0.6729484 0.4137178 0.4447536 0.4137178 0.6729484 0.4962879 0.4447537 0.4137178 0.9999999 0.4962879 1 0.248578 1 0.248578 0.6729484 0.08343825 1 0.08343825 0.6729484 0.003899896 1 0.003899896 0.6729484 0.248578 0.4447536 0.08343825 0.4447536 0.003899896 0.4447537</float_array>
                    <technique_common>
                        <accessor count="25" offset="0" source="cflag_3_0-geometry-TEXCOORD-array" stride="2">
                            <param name="S" type="float" />
                            <param name="T" type="float" />
                        </accessor>
                    </technique_common>
                </source>
                <source id="cflag_3_0-geometry-COLOR">
                    <float_array id="cflag_3_0-geometry-COLOR-array" count="52">1 1 1 1 1 1 0.9960784 1 0.7921569 0.8666667 0.7529412 1 1 1 0.9372549 1 0.9058824 0.9803922 0.8313726 1 0.9960784 1 0.8980392 1 0.8196079 0.8941177 0.7686275 1 0.7490196 0.8196079 0.7176471 1 0.8705882 0.9490196 0.8117647 1 1 1 0.9137255 1 0.7450981 0.827451 0.7333333 1 1 1 0.945098 1 0.5607843 0.6509804 0.6117647 1</float_array>
                    <technique_common>
                        <accessor count="13" offset="0" source="cflag_3_0-geometry-COLOR-array" stride="4">
                            <param name="R" type="double" />
                            <param name="G" type="double" />
                            <param name="B" type="double" />
                            <param name="A" type="double" />
                        </accessor>
                    </technique_common>
                </source>
                <vertices id="cflag_3_0-vertices">
                    <input semantic="POSITION" source="#cflag_3_0-geometry-POSITION" />
                </vertices>
                <triangles count="32" material="to_s11">
                    <input semantic="VERTEX" source="#cflag_3_0-vertices" offset="0" set="0" />
                    <input semantic="NORMAL" source="#cflag_3_0-geometry-NORMAL" offset="1" set="0" />
                    <input semantic="TEXCOORD" source="#cflag_3_0-geometry-TEXCOORD" offset="2" set="0" />
                    <input semantic="COLOR" source="#cflag_3_0-geometry-COLOR" offset="3" set="0" />
                    <p>2 2 2 1 1 1 1 0 0 0 0 0 5 0 0 0 4 1 1 0 3 3 3 0 8 1 1 0 7 4 4 0 6 3 3 0 11 3 3 0 10 4 4 0 9 5 5 0 14 4 4 0 13 6 6 0 12 5 5 0 17 5 5 0 16 6 6 0 15 7 7 0 20 6 6 0 19 8 8 0 18 7 7 0 23 7 7 0 22 8 8 0 21 9 9 0 26 12 12 4 25 11 11 3 24 10 10 2 29 10 10 2 28 11 11 3 27 13 13 5 32 11 11 3 31 1 1 0 30 13 13 5 35 13 13 5 34 1 1 0 33 2 2 1 38 15 15 7 37 14 14 6 36 10 10 2 41 10 10 2 40 14 14 6 39 12 12 4 44 14 14 6 43 16 16 8 42 12 12 4 47 12 12 4 46 16 16 8 45 17 17 9 50 16 16 8 49 18 18 10 48 17 17 9 53 17 17 9 52 18 18 10 51 19 19 11 56 18 18 10 55 20 20 12 54 19 19 11 59 19 19 11 58 20 20 12 57 21 21 3 62 17 17 9 61 22 22 0 60 12 12 4 65 12 12 4 64 22 22 0 63 11 11 3 68 22 22 0 67 4 4 0 66 11 11 3 71 11 11 3 70 4 4 0 69 1 1 0 74 19 19 11 73 23 23 0 72 17 17 9 77 17 17 9 76 23 23 0 75 22 22 0 80 23 23 0 79 6 6 0 78 22 22 0 83 22 22 0 82 6 6 0 81 4 4 0 86 21 21 3 85 24 24 0 84 19 19 11 89 19 19 11 88 24 24 0 87 23 23 0 92 24 24 0 91 8 8 0 90 23 23 0 95 23 23 0 94 8 8 0 93 6 6 0</p>
                </triangles>
            </mesh>
        </geometry>
        <geometry id="cflag_2_0-geometry" name="cflag_2_0">
            <mesh>
                <source id="cflag_2_0-geometry-POSITION">
                    <float_array id="cflag_2_0-geometry-POSITION-array" count="288">-240.1144 7.140164 232.8003 -234.8791 22.0437 242.1441 -241.2447 21.46592 236.7921 -234.8022 8.952894 239.8717 -234.8791 22.0437 242.1441 -240.1144 7.140164 232.8003 -234.8022 8.952894 239.8717 -218.3135 22.76834 255.2336 -234.8791 22.0437 242.1441 -217.9992 11.10578 254.7998 -218.3135 22.76834 255.2336 -234.8022 8.952894 239.8717 -217.9992 11.10578 254.7998 -202.0332 22.40666 263.972 -218.3135 22.76834 255.2336 -200.6937 9.4127 262.7424 -202.0332 22.40666 263.972 -217.9992 11.10578 254.7998 -200.6937 9.4127 262.7424 -194.4046 21.75364 269.5812 -202.0332 22.40666 263.972 -191.3966 7.26213 267.1391 -194.4046 21.75364 269.5812 -200.6937 9.4127 262.7424 -245.8499 80.49799 256.8254 -237.4237 51.84472 251.3516 -237.9009 78.97107 257.653 -244.4597 53.48402 248.9592 -237.4237 51.84472 251.3516 -245.8499 80.49799 256.8254 -244.4597 53.48402 248.9592 -234.8791 22.0437 242.1441 -237.4237 51.84472 251.3516 -241.2447 21.46592 236.7921 -234.8791 22.0437 242.1441 -244.4597 53.48402 248.9592 -245.8499 80.49799 256.8254 -239.9391 116.0465 264.6635 -248.3437 118.9266 264.8766 -237.9009 78.97107 257.653 -239.9391 116.0465 264.6635 -245.8499 80.49799 256.8254 -237.9009 78.97107 257.653 -226.0748 113.7551 272.3051 -239.9391 116.0465 264.6635 -224.2173 77.56659 267.4407 -226.0748 113.7551 272.3051 -237.9009 78.97107 257.653 -224.2173 77.56659 267.4407 -218.7904 114.9121 283.9854 -226.0748 113.7551 272.3051 -214.3205 77.73303 277.2703 -218.7904 114.9121 283.9854 -224.2173 77.56659 267.4407 -214.3205 77.73303 277.2703 -216.6477 117.7075 292.9299 -218.7904 114.9121 283.9854 -210.0573 78.79343 285.817 -216.6477 117.7075 292.9299 -214.3205 77.73303 277.2703 -237.9009 78.97107 257.653 -224.4219 50.66462 264.1809 -224.2173 77.56659 267.4407 -237.4237 51.84472 251.3516 -224.4219 50.66462 264.1809 -237.9009 78.97107 257.653 -237.4237 51.84472 251.3516 -218.3135 22.76834 255.2336 -224.4219 50.66462 264.1809 -234.8791 22.0437 242.1441 -218.3135 22.76834 255.2336 -237.4237 51.84472 251.3516 -224.2173 77.56659 267.4407 -208.9113 49.67517 270.0844 -214.3205 77.73303 277.2703 -224.4219 50.66462 264.1809 -208.9113 49.67517 270.0844 -224.2173 77.56659 267.4407 -224.4219 50.66462 264.1809 -202.0332 22.40666 263.972 -208.9113 49.67517 270.0844 -218.3135 22.76834 255.2336 -202.0332 22.40666 263.972 -224.4219 50.66462 264.1809 -214.3205 77.73303 277.2703 -202.0184 50.36481 277.814 -210.0573 78.79343 285.817 -208.9113 49.67517 270.0844 -202.0184 50.36481 277.814 -214.3205 77.73303 277.2703 -208.9113 49.67517 270.0844 -194.4046 21.75364 269.5812 -202.0184 50.36481 277.814 -202.0332 22.40666 263.972 -194.4046 21.75364 269.5812 -208.9113 49.67517 270.0844</float_array>
                    <technique_common>
                        <accessor count="96" offset="0" source="cflag_2_0-geometry-POSITION-array" stride="3">
                            <param name="X" type="float" />
                            <param name="Y" type="float" />
                            <param name="Z" type="float" />
                        </accessor>
                    </technique_common>
                </source>
                <source id="cflag_2_0-geometry-NORMAL">
                    <float_array id="cflag_2_0-geometry-NORMAL-array" count="75">0.6971574 0.1887216 -0.6916326 0.6184381 0.2333193 -0.7503976 0.6003233 0.2592929 -0.7565574 0.6678351 0.1416036 -0.7307152 0.5371659 0.2105941 -0.8167637 0.5448893 0.09252275 -0.8333878 0.5091038 0.2415337 -0.8261203 0.4863457 0.1421732 -0.8621222 0.5828992 0.2698428 -0.7664289 0.5228296 0.1935972 -0.8301622 0.1729874 0.2274381 -0.9583044 0.5153601 0.262906 -0.8156497 0.395905 0.1936845 -0.8976333 0.3768839 0.2919011 -0.8790633 0.3262833 0.1866547 -0.9266602 0.09056193 0.2000484 -0.9755917 0.6619409 0.1651719 -0.731131 0.624609 0.1687548 -0.7624864 0.8440348 0.1838603 -0.5037863 0.7569596 0.2312542 -0.6111739 0.9050331 0.1997859 -0.3755005 0.8406735 0.2678535 -0.4706619 0.5559376 0.2495887 -0.7928675 0.5910082 0.3075456 -0.7457379 0.7012264 0.3382492 -0.6275899</float_array>
                    <technique_common>
                        <accessor count="25" offset="0" source="cflag_2_0-geometry-NORMAL-array" stride="3">
                            <param name="X" type="float" />
                            <param name="Y" type="float" />
                            <param name="Z" type="float" />
                        </accessor>
                    </technique_common>
                </source>
                <source id="cflag_2_0-geometry-TEXCOORD">
                    <float_array id="cflag_2_0-geometry-TEXCOORD-array" count="50">0.9967635 0 0.9141935 0.2196878 0.9967635 0.2196878 0.9141935 0.01363522 0.7490537 0.2196878 0.7490537 0.02517271 0.5839139 0.2196878 0.5839139 0.01887947 0.5043757 0.2196878 0.5043757 0 0.9967635 0.6729484 0.9141935 0.4447536 0.9141935 0.6729484 0.9967635 0.4447537 0.9141935 0.9999999 0.9967635 1 0.7490537 1 0.7490537 0.6729484 0.5839139 1 0.5839139 0.6729484 0.5043757 1 0.5043757 0.6729484 0.7490537 0.4447536 0.5839139 0.4447536 0.5043757 0.4447537</float_array>
                    <technique_common>
                        <accessor count="25" offset="0" source="cflag_2_0-geometry-TEXCOORD-array" stride="2">
                            <param name="S" type="float" />
                            <param name="T" type="float" />
                        </accessor>
                    </technique_common>
                </source>
                <source id="cflag_2_0-geometry-COLOR">
                    <float_array id="cflag_2_0-geometry-COLOR-array" count="76">1 1 0.945098 1 1 1 0.9333333 1 1 1 0.9372549 1 1 1 0.9215686 1 1 1 0.9254902 1 0.9490196 0.9843137 0.7568628 1 1 1 0.8941177 1 1 1 0.8392157 1 1 1 0.8901961 1 0.4980392 0.5333334 0.4392157 1 0.3019608 0.3372549 0.3058824 1 0.8235294 0.8588235 0.6705883 1 1 1 0.8509804 1 0.6627451 0.7058824 0.5764706 1 1 1 0.8745098 1 0.4705882 0.5176471 0.454902 1 1 1 0.8470588 1 1 1 0.9019608 1 1 1 0.9176471 1</float_array>
                    <technique_common>
                        <accessor count="19" offset="0" source="cflag_2_0-geometry-COLOR-array" stride="4">
                            <param name="R" type="double" />
                            <param name="G" type="double" />
                            <param name="B" type="double" />
                            <param name="A" type="double" />
                        </accessor>
                    </technique_common>
                </source>
                <vertices id="cflag_2_0-vertices">
                    <input semantic="POSITION" source="#cflag_2_0-geometry-POSITION" />
                </vertices>
                <triangles count="32" material="to_s11">
                    <input semantic="VERTEX" source="#cflag_2_0-vertices" offset="0" set="0" />
                    <input semantic="NORMAL" source="#cflag_2_0-geometry-NORMAL" offset="1" set="0" />
                    <input semantic="TEXCOORD" source="#cflag_2_0-geometry-TEXCOORD" offset="2" set="0" />
                    <input semantic="COLOR" source="#cflag_2_0-geometry-COLOR" offset="3" set="0" />
                    <p>2 2 2 1 1 1 1 1 0 0 0 0 5 0 0 0 4 1 1 1 3 3 3 2 8 1 1 1 7 4 4 3 6 3 3 2 11 3 3 2 10 4 4 3 9 5 5 3 14 4 4 3 13 6 6 4 12 5 5 3 17 5 5 3 16 6 6 4 15 7 7 4 20 6 6 4 19 8 8 1 18 7 7 4 23 7 7 4 22 8 8 1 21 9 9 1 26 12 12 7 25 11 11 6 24 10 10 5 29 10 10 5 28 11 11 6 27 13 13 8 32 11 11 6 31 1 1 1 30 13 13 8 35 13 13 8 34 1 1 1 33 2 2 1 38 15 15 10 37 14 14 9 36 10 10 5 41 10 10 5 40 14 14 9 39 12 12 7 44 14 14 9 43 16 16 11 42 12 12 7 47 12 12 7 46 16 16 11 45 17 17 12 50 16 16 11 49 18 18 13 48 17 17 12 53 17 17 12 52 18 18 13 51 19 19 14 56 18 18 13 55 20 20 15 54 19 19 14 59 19 19 14 58 20 20 15 57 21 21 16 62 17 17 12 61 22 22 8 60 12 12 7 65 12 12 7 64 22 22 8 63 11 11 6 68 22 22 8 67 4 4 3 66 11 11 6 71 11 11 6 70 4 4 3 69 1 1 1 74 19 19 14 73 23 23 17 72 17 17 12 77 17 17 12 76 23 23 17 75 22 22 8 80 23 23 17 79 6 6 4 78 22 22 8 83 22 22 8 82 6 6 4 81 4 4 3 86 21 21 16 85 24 24 18 84 19 19 14 89 19 19 14 88 24 24 18 87 23 23 17 92 24 24 18 91 8 8 1 90 23 23 17 95 23 23 17 94 8 8 1 93 6 6 4</p>
                </triangles>
            </mesh>
        </geometry>
    </library_geometries>
    <library_controllers>
        <controller id="cflag_1_0-controller" name="cflag_1_0">
            <skin source="#cflag_1_0-geometry">
                <bind_shape_matrix>1 0 0 0 0 1 0 0 0 0 1 0 0 0 0 1</bind_shape_matrix>
                <source id="cflag_1_0-joints">
                    <Name_array id="cflag_1_0-joints-array" count="4">ct1_b1 ct1_b3 ct1_b2 ct1_b</Name_array>
                    <technique_common>
                        <accessor count="4" offset="0" source="#cflag_1_0-joints-array" stride="1">
                            <param name="JOINT" type="Name" />
                        </accessor>
                    </technique_common>
                </source>
                <source id="cflag_1_0-matrices">
                    <float_array id="cflag_1_0-matrices-array" count="64">0.8173066 -0.0003822533 -0.5762032 -29.63227 0.1666076 0.9574433 0.235684 -178.1176 0.5515929 -0.2886235 0.7825878 -307.5486 1E-06 1E-06 1E-06 1.000001 0.7997068 -0.02334488 -0.5999371 -18.9525 -0.2344316 0.9077803 -0.3478183 131.8062 0.5527325 0.4187992 0.7204842 -307.0837 1E-06 1E-06 1E-06 1.000001 0.7997068 -0.02334488 -0.5999371 -17.35158 -0.1347313 0.9667813 -0.2172157 33.30344 0.5850804 0.2545415 0.7699953 -343.2469 1E-06 1E-06 1E-06 1.000001 0.8090158 -0.02573761 -0.5872234 -23.89093 0.07265961 0.9957587 0.05645721 -148.2614 0.5832811 -0.08833983 0.8074539 -342.8412 1E-06 1E-06 1E-06 1.000001</float_array>
                    <technique_common>
                        <accessor count="4" offset="0" source="#cflag_1_0-matrices-array" stride="16">
                            <param name="TRANSFORM" type="float4x4" />
                        </accessor>
                    </technique_common>
                </source>
                <source id="cflag_1_0-weights">
                    <float_array id="cflag_1_0-weights-array" count="8">0.08595407 0.9140459 1 0.9997101 0.000289917 0.942428 0.04890487 0.008667124</float_array>
                    <technique_common>
                        <accessor count="8" offset="0" source="#cflag_1_0-weights-array" stride="1">
                            <param name="WEIGHT" type="float" />
                        </accessor>
                    </technique_common>
                </source>
                <joints>
                    <input semantic="JOINT" source="#cflag_1_0-joints" />
                    <input semantic="INV_BIND_MATRIX" source="#cflag_1_0-matrices" />
                </joints>
                <vertex_weights count="96">
                    <input semantic="JOINT" source="#cflag_1_0-joints" offset="0" set="0" />
                    <input semantic="WEIGHT" source="#cflag_1_0-weights" offset="1" set="0" />
                    <vcount>2 1 1 1 1 2 1 1 1 1 1 1 1 1 1 1 1 1 1 1 1 1 1 1 1 1 1 1 1 1 1 1 1 1 1 1 1 1 2 1 1 1 1 1 1 1 1 1 1 1 1 1 1 1 1 3 1 1 3 1 1 1 1 1 1 1 1 1 1 1 1 1 1 1 1 1 1 1 1 1 1 1 1 1 1 1 1 1 1 1 1 1 1 1 1 1</vcount>
                    <v>0 0 1 1 1 2 1 2 1 2 1 2 0 0 1 1 1 2 1 2 1 2 1 2 1 2 1 2 1 2 1 2 1 2 1 2 1 2 1 2 1 2 1 2 1 2 1 2 1 2 1 2 0 2 2 2 0 2 2 2 2 2 0 2 2 2 1 2 2 2 1 2 1 2 2 2 0 2 3 2 3 3 0 4 0 2 3 2 0 2 0 2 3 2 3 2 0 2 3 2 0 2 0 2 3 2 3 2 0 2 3 2 0 2 0 2 3 5 0 6 2 7 3 2 0 2 3 5 0 6 2 7 0 2 0 2 2 2 0 2 2 2 2 2 0 2 2 2 1 2 2 2 1 2 1 2 2 2 0 2 2 2 0 2 2 2 2 2 0 2 2 2 1 2 2 2 1 2 1 2 2 2 0 2 2 2 0 2 2 2 2 2 0 2 2 2 1 2 2 2 1 2 1 2 2 2</v>
                </vertex_weights>
            </skin>
        </controller>
        <controller id="cflag_4_0-controller" name="cflag_4_0">
            <skin source="#cflag_4_0-geometry">
                <bind_shape_matrix>1 0 0 0 0 1 0 0 0 0 1 0 0 0 0 1</bind_shape_matrix>
                <source id="cflag_4_0-joints">
                    <Name_array id="cflag_4_0-joints-array" count="4">ct2_b3 ct2_b1 ct2_b2 ct2_b</Name_array>
                    <technique_common>
                        <accessor count="4" offset="0" source="#cflag_4_0-joints-array" stride="1">
                            <param name="JOINT" type="Name" />
                        </accessor>
                    </technique_common>
                </source>
                <source id="cflag_4_0-matrices">
                    <float_array id="cflag_4_0-matrices-array" count="64">0.7845826 -0.07340817 0.6156654 -3.732494 -0.1475523 0.9423332 0.3003975 90.46165 0.6022133 0.3265299 -0.7285037 -309.1768 1E-06 1E-06 1E-06 1.000001 0.7985929 -0.01622605 0.6016551 -14.74755 0.1428809 0.976173 -0.1633194 -151.1702 0.5846686 -0.2163896 -0.7818806 -317.507 1E-06 1E-06 1E-06 1.000001 0.7845826 -0.07340817 0.6156654 -4.900866 -0.04057055 0.9847608 0.1691225 -1.987503 0.6186976 0.1576691 -0.7696452 -335.949 1E-06 1E-06 1E-06 1.000001 0.7949194 -0.02816259 0.6060634 -11.4733 0.1280567 0.9842079 -0.1222225 -174.1908 0.5930495 -0.1747664 -0.7859696 -328.2165 1E-06 1E-06 1E-06 1.000001</float_array>
                    <technique_common>
                        <accessor count="4" offset="0" source="#cflag_4_0-matrices-array" stride="16">
                            <param name="TRANSFORM" type="float4x4" />
                        </accessor>
                    </technique_common>
                </source>
                <source id="cflag_4_0-weights">
                    <float_array id="cflag_4_0-weights-array" count="53">1 0.06575643 0.5811956 0.353048 0.1145105 0.4941719 0.3913176 0.6856947 0.3143053 0.04246442 0.6463736 0.311162 0.1089035 0.5046617 0.3864347 0.4676396 0.4588882 0.07347219 0.4921131 0.4934214 0.01446555 0.4833839 0.4817492 0.03486687 0.1095153 0.4459436 0.4445411 0.9758955 0.02097635 0.003128099 0.9302157 0.05852319 0.01126116 0.4999924 0.5000076 0.985238 0.01291574 0.001846342 0.4915076 0.4866567 0.02183566 0.9407492 0.04985124 0.009399557 0.4730974 0.4590305 0.06787213 0.4948494 0.4964377 0.008712902 0.1212945 0.4417481 0.4369574</float_array>
                    <technique_common>
                        <accessor count="53" offset="0" source="#cflag_4_0-weights-array" stride="1">
                            <param name="WEIGHT" type="float" />
                        </accessor>
                    </technique_common>
                </source>
                <joints>
                    <input semantic="JOINT" source="#cflag_4_0-joints" />
                    <input semantic="INV_BIND_MATRIX" source="#cflag_4_0-matrices" />
                </joints>
                <vertex_weights count="96">
                    <input semantic="JOINT" source="#cflag_4_0-joints" offset="0" set="0" />
                    <input semantic="WEIGHT" source="#cflag_4_0-weights" offset="1" set="0" />
                    <vcount>1 3 3 1 3 1 1 2 3 1 2 1 1 3 2 1 3 1 1 3 3 1 3 1 3 3 3 3 3 3 3 3 3 3 3 3 3 3 3 3 3 3 3 1 3 2 1 3 2 3 1 3 3 2 3 3 3 3 3 3 3 2 2 3 2 3 3 2 2 3 2 3 2 3 3 2 3 2 2 3 3 2 3 2 3 3 3 3 3 3 3 3 3 3 3 3</vcount>
                    <v>0 0 1 1 2 2 0 3 1 4 2 5 0 6 0 0 1 1 2 2 0 3 0 0 0 0 2 7 0 8 1 1 2 2 0 3 0 0 2 7 0 8 0 0 0 0 1 9 2 10 0 11 2 7 0 8 0 0 1 9 2 10 0 11 0 0 0 0 1 12 2 13 0 14 1 9 2 10 0 11 0 0 1 12 2 13 0 14 0 0 3 15 1 16 2 17 1 18 2 19 0 20 3 21 1 22 2 23 3 24 1 25 2 26 1 18 2 19 0 20 3 15 1 16 2 17 3 24 1 25 2 26 1 1 2 2 0 3 1 18 2 19 0 20 1 4 2 5 0 6 1 1 2 2 0 3 3 24 1 25 2 26 3 15 1 16 2 17 3 27 1 28 2 29 3 30 1 31 2 32 3 21 1 22 2 23 3 27 1 28 2 29 3 15 1 16 2 17 3 21 1 22 2 23 3 0 3 27 1 28 2 29 3 33 1 34 3 0 3 21 1 22 2 23 3 33 1 34 3 35 1 36 2 37 3 0 3 38 1 39 2 40 3 35 1 36 2 37 3 33 1 34 3 38 1 39 2 40 3 41 1 42 2 43 3 35 1 36 2 37 3 44 1 45 2 46 3 41 1 42 2 43 3 38 1 39 2 40 3 21 1 22 2 23 1 33 2 34 3 33 1 34 1 18 2 19 0 20 1 33 2 34 3 21 1 22 2 23 1 18 2 19 0 20 2 7 0 8 1 33 2 34 1 1 2 2 0 3 2 7 0 8 1 18 2 19 0 20 3 33 1 34 1 47 2 48 0 49 3 38 1 39 2 40 1 33 2 34 1 47 2 48 0 49 3 33 1 34 1 33 2 34 1 9 2 10 0 11 1 47 2 48 0 49 2 7 0 8 1 9 2 10 0 11 1 33 2 34 3 38 1 39 2 40 3 50 1 51 2 52 3 44 1 45 2 46 1 47 2 48 0 49 3 50 1 51 2 52 3 38 1 39 2 40 1 47 2 48 0 49 1 12 2 13 0 14 3 50 1 51 2 52 1 9 2 10 0 11 1 12 2 13 0 14 1 47 2 48 0 49</v>
                </vertex_weights>
            </skin>
        </controller>
        <controller id="cflag_3_0-controller" name="cflag_3_0">
            <skin source="#cflag_3_0-geometry">
                <bind_shape_matrix>1 0 0 0 0 1 0 0 0 0 1 0 0 0 0 1</bind_shape_matrix>
                <source id="cflag_3_0-joints">
                    <Name_array id="cflag_3_0-joints-array" count="1">cflag_3</Name_array>
                    <technique_common>
                        <accessor count="1" offset="0" source="#cflag_3_0-joints-array" stride="1">
                            <param name="JOINT" type="Name" />
                        </accessor>
                    </technique_common>
                </source>
                <source id="cflag_3_0-matrices">
                    <float_array id="cflag_3_0-matrices-array" count="16">1.000001 1E-06 1E-06 1E-06 1E-06 1.000001 1E-06 1E-06 1E-06 1E-06 1.000001 1E-06 1E-06 1E-06 1E-06 1.000001</float_array>
                    <technique_common>
                        <accessor count="1" offset="0" source="#cflag_3_0-matrices-array" stride="16">
                            <param name="TRANSFORM" type="float4x4" />
                        </accessor>
                    </technique_common>
                </source>
                <source id="cflag_3_0-weights">
                    <float_array id="cflag_3_0-weights-array" count="1">1</float_array>
                    <technique_common>
                        <accessor count="1" offset="0" source="#cflag_3_0-weights-array" stride="1">
                            <param name="WEIGHT" type="float" />
                        </accessor>
                    </technique_common>
                </source>
                <joints>
                    <input semantic="JOINT" source="#cflag_3_0-joints" />
                    <input semantic="INV_BIND_MATRIX" source="#cflag_3_0-matrices" />
                </joints>
                <vertex_weights count="96">
                    <input semantic="JOINT" source="#cflag_3_0-joints" offset="0" set="0" />
                    <input semantic="WEIGHT" source="#cflag_3_0-weights" offset="1" set="0" />
                    <vcount>1 1 1 1 1 1 1 1 1 1 1 1 1 1 1 1 1 1 1 1 1 1 1 1 1 1 1 1 1 1 1 1 1 1 1 1 1 1 1 1 1 1 1 1 1 1 1 1 1 1 1 1 1 1 1 1 1 1 1 1 1 1 1 1 1 1 1 1 1 1 1 1 1 1 1 1 1 1 1 1 1 1 1 1 1 1 1 1 1 1 1 1 1 1 1 1</vcount>
                    <v>0 0 0 0 0 0 0 0 0 0 0 0 0 0 0 0 0 0 0 0 0 0 0 0 0 0 0 0 0 0 0 0 0 0 0 0 0 0 0 0 0 0 0 0 0 0 0 0 0 0 0 0 0 0 0 0 0 0 0 0 0 0 0 0 0 0 0 0 0 0 0 0 0 0 0 0 0 0 0 0 0 0 0 0 0 0 0 0 0 0 0 0 0 0 0 0 0 0 0 0 0 0 0 0 0 0 0 0 0 0 0 0 0 0 0 0 0 0 0 0 0 0 0 0 0 0 0 0 0 0 0 0 0 0 0 0 0 0 0 0 0 0 0 0 0 0 0 0 0 0 0 0 0 0 0 0 0 0 0 0 0 0 0 0 0 0 0 0 0 0 0 0 0 0 0 0 0 0 0 0 0 0 0 0 0 0 0 0 0 0 0 0</v>
                </vertex_weights>
            </skin>
        </controller>
        <controller id="cflag_2_0-controller" name="cflag_2_0">
            <skin source="#cflag_2_0-geometry">
                <bind_shape_matrix>1 0 0 0 0 1 0 0 0 0 1 0 0 0 0 1</bind_shape_matrix>
                <source id="cflag_2_0-joints">
                    <Name_array id="cflag_2_0-joints-array" count="1">cflag_2</Name_array>
                    <technique_common>
                        <accessor count="1" offset="0" source="#cflag_2_0-joints-array" stride="1">
                            <param name="JOINT" type="Name" />
                        </accessor>
                    </technique_common>
                </source>
                <source id="cflag_2_0-matrices">
                    <float_array id="cflag_2_0-matrices-array" count="16">1.000001 1E-06 1E-06 1E-06 1E-06 1.000001 1E-06 1E-06 1E-06 1E-06 1.000001 1E-06 1E-06 1E-06 1E-06 1.000001</float_array>
                    <technique_common>
                        <accessor count="1" offset="0" source="#cflag_2_0-matrices-array" stride="16">
                            <param name="TRANSFORM" type="float4x4" />
                        </accessor>
                    </technique_common>
                </source>
                <source id="cflag_2_0-weights">
                    <float_array id="cflag_2_0-weights-array" count="1">1</float_array>
                    <technique_common>
                        <accessor count="1" offset="0" source="#cflag_2_0-weights-array" stride="1">
                            <param name="WEIGHT" type="float" />
                        </accessor>
                    </technique_common>
                </source>
                <joints>
                    <input semantic="JOINT" source="#cflag_2_0-joints" />
                    <input semantic="INV_BIND_MATRIX" source="#cflag_2_0-matrices" />
                </joints>
                <vertex_weights count="96">
                    <input semantic="JOINT" source="#cflag_2_0-joints" offset="0" set="0" />
                    <input semantic="WEIGHT" source="#cflag_2_0-weights" offset="1" set="0" />
                    <vcount>1 1 1 1 1 1 1 1 1 1 1 1 1 1 1 1 1 1 1 1 1 1 1 1 1 1 1 1 1 1 1 1 1 1 1 1 1 1 1 1 1 1 1 1 1 1 1 1 1 1 1 1 1 1 1 1 1 1 1 1 1 1 1 1 1 1 1 1 1 1 1 1 1 1 1 1 1 1 1 1 1 1 1 1 1 1 1 1 1 1 1 1 1 1 1 1</vcount>
                    <v>0 0 0 0 0 0 0 0 0 0 0 0 0 0 0 0 0 0 0 0 0 0 0 0 0 0 0 0 0 0 0 0 0 0 0 0 0 0 0 0 0 0 0 0 0 0 0 0 0 0 0 0 0 0 0 0 0 0 0 0 0 0 0 0 0 0 0 0 0 0 0 0 0 0 0 0 0 0 0 0 0 0 0 0 0 0 0 0 0 0 0 0 0 0 0 0 0 0 0 0 0 0 0 0 0 0 0 0 0 0 0 0 0 0 0 0 0 0 0 0 0 0 0 0 0 0 0 0 0 0 0 0 0 0 0 0 0 0 0 0 0 0 0 0 0 0 0 0 0 0 0 0 0 0 0 0 0 0 0 0 0 0 0 0 0 0 0 0 0 0 0 0 0 0 0 0 0 0 0 0 0 0 0 0 0 0 0 0 0 0 0 0</v>
                </vertex_weights>
            </skin>
        </controller>
    </library_controllers>
    <library_visual_scenes>
        <visual_scene id="Scene" name="Scene">
            <node id="frag_m" sid="frag_m" name="frag_m" type="JOINT">
                <matrix sid="transform">1 0 0 0 0 1 0 0 0 0 1 0 0 0 0 1</matrix>
                <node id="ct1_b" sid="ct1_b" name="ct1_b" type="JOINT">
                    <matrix sid="transform">0.8090149 0.07265861 0.5832801 230.0731 -0.02573862 0.9957577 -0.08834083 116.7307 -0.5872244 0.05645622 0.8074529 271.1691 0 0 0 1</matrix>
                    <node id="ct1_b1" sid="ct1_b1" name="ct1_b1" type="JOINT">
                        <matrix sid="transform">0.9995835 -0.02825486 -0.005879235 -1.111835 0.02647234 0.9787917 -0.2031403 -35.61252 0.01149425 0.2029 0.979132 -5.229838 0 0 0 1</matrix>
                        <node id="ct1_b2" sid="ct1_b2" name="ct1_b2" type="JOINT">
                            <matrix sid="transform">0.9992998 0.01467316 0.03441719 -0.9679276 -0.03051132 0.8519948 0.5226605 -27.61976 -0.02165419 -0.5233446 0.8518459 1.898257 0 0 0 1</matrix>
                            <node id="ct1_b3" sid="ct1_b3" name="ct1_b3" type="JOINT">
                                <matrix sid="transform">1 0 0 1.600918 0 0.9847608 0.1739141 -43.08795 0 -0.1739141 0.9847608 -17.91997 0 0 0 1</matrix>
                            </node>
                        </node>
                    </node>
                </node>
                <node id="ct2_b" sid="ct2_b" name="ct2_b" type="JOINT">
                    <matrix sid="transform">0.7949184 0.1280557 0.5930486 226.0748 -0.02816359 0.9842069 -0.1747674 113.7551 0.6060624 -0.1222235 -0.7859706 -272.3052 0 0 0 1</matrix>
                    <node id="ct2_b1" sid="ct2_b1" name="ct2_b1" type="JOINT">
                        <matrix sid="transform">0.9999123 -0.01289696 -0.003011668 0.3671023 0.01275724 0.9990134 -0.04253885 -36.48803 0.003557318 0.0424967 0.9990903 -4.521688 0 0 0 1</matrix>
                        <node id="ct2_b2" sid="ct2_b2" name="ct2_b2" type="JOINT">
                            <matrix sid="transform">0.9981688 0.05337279 0.02846694 -0.1861374 -0.06010956 0.9278771 0.3680094 -25.9882 -0.006772132 -0.3690467 0.9293862 -6.047248 0 0 0 1</matrix>
                            <node id="ct2_b3" sid="ct2_b3" name="ct2_b3" type="JOINT">
                                <matrix sid="transform">1 0 0 -1.16836 0 0.9847608 0.1739141 -37.3004 0 -0.1739141 0.9847608 -15.7512 0 0 0 1</matrix>
                            </node>
                        </node>
                    </node>
                </node>
                <node id="cflag_1" sid="cflag_1" name="cflag_1" type="JOINT">
                    <matrix sid="transform">1 0 0 0 0 1 0 0 0 0 1 0 0 0 0 1</matrix>
                </node>
                <node id="cflag_4" sid="cflag_4" name="cflag_4" type="JOINT">
                    <matrix sid="transform">1 0 0 0 0 1 0 0 0 0 1 0 0 0 0 1</matrix>
                </node>
                <node id="cflag_3" sid="cflag_3" name="cflag_3" type="JOINT">
                    <matrix sid="transform">1 0 0 0 0 1 0 0 0 0 1 0 0 0 0 1</matrix>
                </node>
                <node id="cflag_2" sid="cflag_2" name="cflag_2" type="JOINT">
                    <matrix sid="transform">1 0 0 0 0 1 0 0 0 0 1 0 0 0 0 1</matrix>
                </node>
            </node>
            <node id="cflag_1_0" sid="cflag_1_0" name="cflag_1_0">
                <instance_controller url="#cflag_1_0-controller">
                    <skeleton>#frag_m</skeleton>
                    <bind_material>
                        <technique_common>
                            <instance_material target="#to_s10" symbol="to_s10" />
                        </technique_common>
                    </bind_material>
                </instance_controller>
            </node>
            <node id="cflag_4_0" sid="cflag_4_0" name="cflag_4_0">
                <instance_controller url="#cflag_4_0-controller">
                    <skeleton>#frag_m</skeleton>
                    <bind_material>
                        <technique_common>
                            <instance_material target="#to_s11" symbol="to_s11" />
                        </technique_common>
                    </bind_material>
                </instance_controller>
            </node>
            <node id="cflag_3_0" sid="cflag_3_0" name="cflag_3_0">
                <instance_controller url="#cflag_3_0-controller">
                    <skeleton>#frag_m</skeleton>
                    <bind_material>
                        <technique_common>
                            <instance_material target="#to_s11" symbol="to_s11" />
                        </technique_common>
                    </bind_material>
                </instance_controller>
            </node>
            <node id="cflag_2_0" sid="cflag_2_0" name="cflag_2_0">
                <instance_controller url="#cflag_2_0-controller">
                    <skeleton>#frag_m</skeleton>
                    <bind_material>
                        <technique_common>
                            <instance_material target="#to_s11" symbol="to_s11" />
                        </technique_common>
                    </bind_material>
                </instance_controller>
            </node>
        </visual_scene>
    </library_visual_scenes>
    <scene>
        <instance_visual_scene url="#Scene" />
    </scene>
</COLLADA>