mtllib g_skay.mtl
v 15635.41 -154.4048 12471.34
vt 0.05 0.00181067
vn -0.7452726 -0.3019809 -0.5944546
v 10477.13 2935.765 15875.56
vt 0 0.1467087
vn -0.4691667 -0.5239173 -0.7109101
v 11016.31 -154.4048 16692.55
vt 0 0.00181067
vn -0.5250991 -0.3019806 -0.7956624
v 14870.16 2935.765 11860.95
vt 0.05 0.1467087
vn -0.6658878 -0.5239174 -0.5311346
v 8912.379 5723.448 13504.56
vt 0 0.3086437
vn -0.3198276 -0.8141569 -0.4846223
v 12649.32 5723.448 10089.52
vt 0.05 0.3086437
vn -0.4539311 -0.8141569 -0.3620707
v 6475.222 7935.765 9811.637
vt 0 0.5238695
vn -0.1922108 -0.9371386 -0.2912495
v 9190.265 7935.765 7330.467
vt 0.05 0.5238695
vn -0.2728046 -0.9371386 -0.2175981
v 4600.201 8803 6970.494
vt 0 0.6692222
vn -0.1359835 -0.9690468 -0.2060504
v 6529.052 8803 5207.793
vt 0.05 0.6692222
vn -0.1930011 -0.9690468 -0.1539443
v 18724.02 -154.4048 7029.338
vt 0.1 0.00181067
vn -0.8924929 -0.3019809 -0.335058
v 17807.6 2935.765 6685.296
vt 0.1 0.1467087
vn -0.7974266 -0.5239173 -0.2993684
v 15148.05 5723.448 5686.854
vt 0.1 0.3086437
vn -0.5436001 -0.8141568 -0.2040773
v 11005.7 7935.765 4131.741
vt 0.1 0.5238695
vn -0.326694 -0.9371386 -0.1226469
v 7818.793 8803 2935.318
vt 0.1 0.6692222
vn -0.2311263 -0.9690468 -0.08676907
v 19979.78 -154.4048 899.2579
vt 0.15 0.00181067
vn -0.95235 -0.3019806 -0.0428635
v 19001.9 2935.765 855.2459
vt 0.15 0.1467087
vn -0.8509077 -0.5239173 -0.03829782
v 16163.98 5723.448 727.5145
vt 0.15 0.3086437
vn -0.5800577 -0.8141568 -0.0261074
v 11743.82 7935.765 528.5708
vt 0.15 0.5238695
vn -0.3486045 -0.9371386 -0.01569012
v 8343.177 8803 375.513
vt 0.15 0.6692222
vn -0.2466274 -0.9690468 -0.01110028
v 19279.79 -154.4048 -5318.846
vt 0.2 0.00181067
vn -0.9189843 -0.3019804 0.2535266
v 18336.17 2935.765 -5058.523
vt 0.2 0.1467087
vn -0.8210961 -0.5239171 0.2265215
v 15597.67 5723.448 -4303.037
vt 0.2 0.3086437
vn -0.5597354 -0.8141569 0.1544181
v 11332.37 7935.765 -3126.339
vt 0.2 0.5238695
vn -0.3363911 -0.9371386 0.09280255
v 8050.873 8803 -2221.05
vt 0.2 0.6692222
vn -0.2379868 -0.9690468 0.06565506
v 16692.55 -154.4048 -11016.3
vt 0.25 0.00181067
vn -0.7956621 -0.3019803 0.5250998
v 15875.56 2935.765 -10477.13
vt 0.25 0.1467087
vn -0.7109099 -0.5239171 0.4691673
v 13504.56 5723.448 -8912.378
vt 0.25 0.3086437
vn -0.4846222 -0.8141568 0.319828
v 9811.636 7935.765 -6475.221
vt 0.25 0.5238695
vn -0.2912494 -0.9371386 0.192211
v 6970.493 8803 -4600.2
vt 0.25 0.6692222
vn -0.2060503 -0.9690468 0.1359836
v 12471.34 -154.4048 -15635.41
vt 0.3 0.00181067
vn -0.5944548 -0.3019802 0.7452727
v 11860.94 2935.765 -14870.16
vt 0.3 0.1467087
vn -0.5311348 -0.5239171 0.6658879
v 10089.52 5723.448 -12649.31
vt 0.3 0.3086437
vn -0.3620708 -0.8141568 0.453931
v 7330.467 7935.765 -9190.264
vt 0.3 0.5238695
vn -0.2175982 -0.9371386 0.2728046
v 5207.793 8803 -6529.051
vt 0.3 0.6692222
vn -0.1539443 -0.9690468 0.1930012
v 7029.336 -154.4048 -18724.01
vt 0.35 0.00181067
vn -0.3350582 -0.30198 0.8924932
v 6685.297 2935.765 -17807.6
vt 0.35 0.1467087
vn -0.2993685 -0.523917 0.7974267
v 5686.853 5723.448 -15148.04
vt 0.35 0.3086437
vn -0.2040774 -0.8141569 0.5436001
v 4131.741 7935.765 -11005.7
vt 0.35 0.5238695
vn -0.1226469 -0.9371386 0.3266942
v 2935.318 8803 -7818.792
vt 0.35 0.6692222
vn -0.08676905 -0.9690468 0.2311264
v 899.2584 -154.4048 -19979.78
vt 0.4 0.00181067
vn -0.04286367 -0.30198 0.9523501
v 855.2456 2935.765 -19001.9
vt 0.4 0.1467087
vn -0.0382979 -0.5239169 0.8509079
v 727.5156 5723.448 -16163.98
vt 0.4 0.3086437
vn -0.02610741 -0.8141568 0.5800578
v 528.571 7935.765 -11743.82
vt 0.4 0.5238695
vn -0.01569009 -0.9371386 0.3486045
v 375.5135 8803 -8343.177
vt 0.4 0.6692222
vn -0.01110023 -0.9690468 0.2466274
v -5318.845 -154.4048 -19279.78
vt 0.45 0.00181067
vn 0.2535266 -0.3019801 0.9189844
v -5058.522 2935.765 -18336.16
vt 0.45 0.1467087
vn 0.2265214 -0.523917 0.8210962
v -4303.036 5723.448 -15597.67
vt 0.45 0.3086437
vn 0.154418 -0.8141568 0.5597354
v -3126.339 7935.765 -11332.37
vt 0.45 0.5238695
vn 0.09280254 -0.9371386 0.3363912
v -2221.049 8803 -8050.872
vt 0.45 0.6692222
vn 0.06565508 -0.9690468 0.2379868
v -11016.3 -154.4048 -16692.55
vt 0.5000001 0.00181067
vn 0.5250998 -0.3019799 0.7956622
v -10477.13 2935.765 -15875.56
vt 0.5000001 0.1467087
vn 0.4691673 -0.523917 0.71091
v -8912.376 5723.448 -13504.56
vt 0.5000001 0.3086437
vn 0.3198279 -0.8141569 0.4846222
v -6475.221 7935.765 -9811.636
vt 0.5000001 0.5238695
vn 0.1922111 -0.9371386 0.2912495
v -4600.199 8803 -6970.492
vt 0.5000001 0.6692222
vn 0.1359836 -0.9690468 0.2060503
v -15635.41 -154.4048 -12471.33
vt 0.5500001 0.00181067
vn 0.7452728 -0.3019798 0.5944549
v -14870.16 2935.765 -11860.94
vt 0.5500001 0.1467087
vn 0.665888 -0.523917 0.5311348
v -12649.31 5723.448 -10089.52
vt 0.5500001 0.3086437
vn 0.4539309 -0.8141569 0.3620707
v -9190.263 7935.765 -7330.466
vt 0.5500001 0.5238695
vn 0.2728046 -0.9371386 0.2175982
v -6529.05 8803 -5207.792
vt 0.5500001 0.6692222
vn 0.1930012 -0.9690468 0.1539442
v -18724.01 -154.4048 -7029.336
vt 0.6000001 0.00181067
vn 0.8924932 -0.30198 0.3350581
v -17807.59 2935.765 -6685.297
vt 0.6000001 0.1467087
vn 0.7974268 -0.523917 0.2993684
v -15148.04 5723.448 -5686.853
vt 0.6000001 0.3086437
vn 0.5436 -0.8141569 0.2040773
v -11005.7 7935.765 -4131.74
vt 0.6000001 0.5238695
vn 0.3266941 -0.9371386 0.1226469
v -7818.791 8803 -2935.317
vt 0.6000001 0.6692222
vn 0.2311264 -0.9690468 0.08676907
v -19979.78 -154.4048 -899.2587
vt 0.6500001 0.00181067
vn 0.9523501 -0.3019801 0.04286362
v -19001.9 2935.765 -855.2451
vt 0.6500001 0.1467087
vn 0.8509079 -0.523917 0.03829794
v -16163.98 5723.448 -727.515
vt 0.6500001 0.3086437
vn 0.5800578 -0.8141568 0.02610745
v -11743.82 7935.765 -528.5708
vt 0.6500001 0.5238695
vn 0.3486046 -0.9371386 0.0156901
v -8343.175 8803 -375.5133
vt 0.6500001 0.6692222
vn 0.2466274 -0.9690468 0.01110028
v -19279.78 -154.4048 5318.845
vt 0.7000001 0.00181067
vn 0.9189844 -0.3019802 -0.2535265
v -18336.16 2935.765 5058.521
vt 0.7000001 0.1467087
vn 0.8210962 -0.523917 -0.2265214
v -15597.67 5723.448 4303.036
vt 0.7000001 0.3086437
vn 0.5597354 -0.8141568 -0.1544181
v -11332.37 7935.765 3126.338
vt 0.7000001 0.5238695
vn 0.3363912 -0.9371386 -0.0928026
v -8050.871 8803 2221.049
vt 0.7000001 0.6692222
vn 0.2379868 -0.9690468 -0.06565508
v -16692.55 -154.4048 11016.3
vt 0.7500001 0.00181067
vn 0.7956621 -0.3019802 -0.5250999
v -15875.56 2935.765 10477.13
vt 0.7500001 0.1467087
vn 0.71091 -0.523917 -0.4691674
v -13504.55 5723.448 8912.375
vt 0.7500001 0.3086437
vn 0.4846222 -0.8141568 -0.3198281
v -9811.634 7935.765 6475.22
vt 0.7500001 0.5238695
vn 0.2912495 -0.9371385 -0.1922111
v -6970.491 8803 4600.199
vt 0.7500001 0.6692222
vn 0.2060503 -0.9690468 -0.1359836
v -12471.33 -154.4048 15635.41
vt 0.8000001 0.00181067
vn 0.5944548 -0.3019801 -0.7452728
v -11860.94 2935.765 14870.16
vt 0.8000001 0.1467087
vn 0.5311348 -0.523917 -0.665888
v -10089.52 5723.448 12649.31
vt 0.8000001 0.3086437
vn 0.3620708 -0.8141568 -0.453931
v -7330.465 7935.765 9190.261
vt 0.8000001 0.5238695
vn 0.2175983 -0.9371385 -0.2728046
v -5207.792 8803 6529.049
vt 0.8000001 0.6692222
vn 0.1539443 -0.9690468 -0.1930012
v -7029.336 -154.4048 18724.01
vt 0.8500001 0.00181067
vn 0.3350583 -0.30198 -0.8924931
v -6685.295 2935.765 17807.59
vt 0.8500001 0.1467087
vn 0.2993686 -0.5239169 -0.7974268
v -5686.853 5723.448 15148.04
vt 0.8500001 0.3086437
vn 0.2040774 -0.8141568 -0.5436001
v -4131.74 7935.765 11005.7
vt 0.8500001 0.5238695
vn 0.1226469 -0.9371386 -0.3266942
v -2935.317 8803 7818.791
vt 0.8500001 0.6692222
vn 0.08676907 -0.9690468 -0.2311264
v -899.2581 -154.4048 19979.77
vt 0.9000002 0.00181067
vn 0.0428637 -0.30198 -0.9523501
v -855.2448 2935.765 19001.9
vt 0.9000002 0.1467087
vn 0.03829794 -0.523917 -0.8509079
v -727.5153 5723.448 16163.98
vt 0.9000002 0.3086437
vn 0.02610741 -0.8141568 -0.5800578
v -528.5705 7935.765 11743.82
vt 0.9000002 0.5238695
vn 0.01569002 -0.9371385 -0.3486047
v -375.5131 8803 8343.174
vt 0.9000002 0.6692222
vn 0.0111002 -0.9690468 -0.2466274
v 5318.845 -154.4048 19279.78
vt 0.9500002 0.00181067
vn -0.2535259 -0.3019802 -0.9189846
v 5058.521 2935.765 18336.16
vt 0.9500002 0.1467087
vn -0.2265209 -0.523917 -0.8210964
v 4303.036 5723.448 15597.67
vt 0.9500002 0.3086437
vn -0.1544176 -0.8141568 -0.5597355
v 3126.338 7935.765 11332.37
vt 0.9500002 0.5238695
vn -0.09280235 -0.9371385 -0.3363913
v 2221.048 8803 8050.87
vt 0.9500002 0.6692222
vn -0.06565496 -0.9690468 -0.2379869
vt 1 0.00181067
vt 1 0.1467087
vt 1 0.3086437
vt 1 0.5238695
vt 1 0.6692222
v 4831.608 9356.161 3853.855
vt 0.05 0.7619349
vn -0.1278002 -0.9865474 -0.1019377
v 0 9845.596 0
vt 0.025 0.9950241
vn 3.661631E-08 -1 -2.237396E-08
v 3404.226 9356.161 5158.283
vt 0 0.7619349
vn -0.09004451 -0.9865474 -0.1364411
v 5786.039 9356.161 2172.185
vt 0.1 0.7619349
vn -0.1530458 -0.9865474 -0.05745607
vt 0.075 0.9950241
v 6174.092 9356.161 277.8862
vt 0.15 0.7619349
vn -0.16331 -0.9865474 -0.007350295
vt 0.125 0.9950241
v 5957.782 9356.161 -1643.614
vt 0.2 0.7619349
vn -0.1575884 -0.9865474 0.04347505
vt 0.175 0.9950241
v 5158.282 9356.161 -3404.225
vt 0.25 0.7619349
vn -0.136441 -0.9865474 0.09004474
vt 0.225 0.9950241
v 3853.854 9356.161 -4831.607
vt 0.3 0.7619349
vn -0.1019377 -0.9865474 0.1278001
vt 0.275 0.9950241
v 2172.184 9356.161 -5786.038
vt 0.35 0.7619349
vn -0.05745603 -0.9865474 0.1530456
vt 0.325 0.9950241
v 277.8865 9356.161 -6174.091
vt 0.4 0.7619349
vn -0.007350222 -0.9865474 0.1633099
vt 0.375 0.9950241
v -1643.614 9356.161 -5957.781
vt 0.45 0.7619349
vn 0.043475 -0.9865474 0.1575884
vt 0.425 0.9950241
v -3404.225 9356.161 -5158.282
vt 0.5000001 0.7619349
vn 0.09004464 -0.9865474 0.136441
vt 0.475 0.9950241
v -4831.607 9356.161 -3853.854
vt 0.5500001 0.7619349
vn 0.1278002 -0.9865474 0.1019377
vt 0.525 0.9950241
v -5786.038 9356.161 -2172.184
vt 0.6000001 0.7619349
vn 0.1530457 -0.9865474 0.05745614
vt 0.575 0.9950241
v -6174.091 9356.161 -277.8861
vt 0.6500001 0.7619349
vn 0.1633101 -0.9865474 0.007350289
vt 0.625 0.9950241
v -5957.78 9356.161 1643.614
vt 0.7000001 0.7619349
vn 0.1575885 -0.9865474 -0.04347505
vt 0.675 0.9950241
v -5158.281 9356.161 3404.225
vt 0.7500001 0.7619349
vn 0.136441 -0.9865474 -0.09004471
vt 0.725 0.9950241
v -3853.854 9356.161 4831.606
vt 0.8000001 0.7619349
vn 0.1019378 -0.9865474 -0.1278002
vt 0.775 0.9950241
v -2172.184 9356.161 5786.037
vt 0.8500001 0.7619349
vn 0.05745615 -0.9865474 -0.1530457
vt 0.825 0.9950241
v -277.886 9356.161 6174.089
vt 0.9000002 0.7619349
vn 0.007350444 -0.9865474 -0.1633101
vt 0.875 0.9950241
v 1643.613 9356.161 5957.779
vt 0.9500002 0.7619349
vn -0.04347472 -0.9865474 -0.1575886
vt 0.925 0.9950241
vt 1 0.7619349
vt 0.975 0.9950241
vn -0.1539441 -0.9690469 0.1930009
vn -0.08676883 -0.9690469 0.2311261
vn -0.2060502 -0.9690468 0.1359835
vn -0.2379866 -0.9690468 0.06565505
vn -0.2466272 -0.9690468 -0.01110028
vn -0.2311263 -0.9690468 -0.08676893
vn -0.1930011 -0.9690468 -0.1539441
vn -0.1359833 -0.9690468 -0.2060503
vn -0.01110021 -0.9690469 0.2466271
vn 0.06565501 -0.9690468 0.2379865
vn 0.1359835 -0.9690468 0.2060502
vn 0.193001 -0.9690468 0.1539441
vn 0.2311263 -0.9690468 0.08676903
vn 0.2466272 -0.9690468 0.01110034
vn 0.2379866 -0.9690468 -0.06565501
vn 0.2060502 -0.9690468 -0.1359836
vn 0.1539443 -0.9690468 -0.1930011
vn 0.08676894 -0.9690468 -0.2311262
vn 0.01110035 -0.9690468 -0.2466273
vn -0.06565464 -0.9690468 -0.2379868
o skay_0
g polygon_0
usemtl skay:lambert_sky
f 3/3/3 2/2/2 1/1/1
f 1/1/1 2/2/2 4/4/4
f 2/2/2 5/5/5 4/4/4
f 4/4/4 5/5/5 6/6/6
f 5/5/5 7/7/7 6/6/6
f 6/6/6 7/7/7 8/8/8
f 7/7/7 9/9/9 8/8/8
f 8/8/8 9/9/9 10/10/10
f 1/1/1 4/4/4 11/11/11
f 11/11/11 4/4/4 12/12/12
f 4/4/4 6/6/6 12/12/12
f 12/12/12 6/6/6 13/13/13
f 6/6/6 8/8/8 13/13/13
f 13/13/13 8/8/8 14/14/14
f 8/8/8 10/10/10 14/14/14
f 14/14/14 10/10/10 15/15/15
f 11/11/11 12/12/12 16/16/16
f 16/16/16 12/12/12 17/17/17
f 12/12/12 13/13/13 17/17/17
f 17/17/17 13/13/13 18/18/18
f 13/13/13 14/14/14 18/18/18
f 18/18/18 14/14/14 19/19/19
f 14/14/14 15/15/15 19/19/19
f 19/19/19 15/15/15 20/20/20
f 16/16/16 17/17/17 21/21/21
f 21/21/21 17/17/17 22/22/22
f 17/17/17 18/18/18 22/22/22
f 22/22/22 18/18/18 23/23/23
f 18/18/18 19/19/19 23/23/23
f 23/23/23 19/19/19 24/24/24
f 19/19/19 20/20/20 24/24/24
f 24/24/24 20/20/20 25/25/25
f 21/21/21 22/22/22 26/26/26
f 26/26/26 22/22/22 27/27/27
f 22/22/22 23/23/23 27/27/27
f 27/27/27 23/23/23 28/28/28
f 23/23/23 24/24/24 28/28/28
f 28/28/28 24/24/24 29/29/29
f 24/24/24 25/25/25 29/29/29
f 29/29/29 25/25/25 30/30/30
f 26/26/26 27/27/27 31/31/31
f 31/31/31 27/27/27 32/32/32
f 27/27/27 28/28/28 32/32/32
f 32/32/32 28/28/28 33/33/33
f 28/28/28 29/29/29 33/33/33
f 33/33/33 29/29/29 34/34/34
f 29/29/29 30/30/30 34/34/34
f 34/34/34 30/30/30 35/35/35
f 31/31/31 32/32/32 36/36/36
f 36/36/36 32/32/32 37/37/37
f 32/32/32 33/33/33 37/37/37
f 37/37/37 33/33/33 38/38/38
f 33/33/33 34/34/34 38/38/38
f 38/38/38 34/34/34 39/39/39
f 34/34/34 35/35/35 39/39/39
f 39/39/39 35/35/35 40/40/40
f 36/36/36 37/37/37 41/41/41
f 41/41/41 37/37/37 42/42/42
f 37/37/37 38/38/38 42/42/42
f 42/42/42 38/38/38 43/43/43
f 38/38/38 39/39/39 43/43/43
f 43/43/43 39/39/39 44/44/44
f 39/39/39 40/40/40 44/44/44
f 44/44/44 40/40/40 45/45/45
f 41/41/41 42/42/42 46/46/46
f 46/46/46 42/42/42 47/47/47
f 42/42/42 43/43/43 47/47/47
f 47/47/47 43/43/43 48/48/48
f 43/43/43 44/44/44 48/48/48
f 48/48/48 44/44/44 49/49/49
f 44/44/44 45/45/45 49/49/49
f 49/49/49 45/45/45 50/50/50
f 46/46/46 47/47/47 51/51/51
f 51/51/51 47/47/47 52/52/52
f 47/47/47 48/48/48 52/52/52
f 52/52/52 48/48/48 53/53/53
f 48/48/48 49/49/49 53/53/53
f 53/53/53 49/49/49 54/54/54
f 49/49/49 50/50/50 54/54/54
f 54/54/54 50/50/50 55/55/55
f 51/51/51 52/52/52 56/56/56
f 56/56/56 52/52/52 57/57/57
f 52/52/52 53/53/53 57/57/57
f 57/57/57 53/53/53 58/58/58
f 53/53/53 54/54/54 58/58/58
f 58/58/58 54/54/54 59/59/59
f 54/54/54 55/55/55 59/59/59
f 59/59/59 55/55/55 60/60/60
f 56/56/56 57/57/57 61/61/61
f 61/61/61 57/57/57 62/62/62
f 57/57/57 58/58/58 62/62/62
f 62/62/62 58/58/58 63/63/63
f 58/58/58 59/59/59 63/63/63
f 63/63/63 59/59/59 64/64/64
f 59/59/59 60/60/60 64/64/64
f 64/64/64 60/60/60 65/65/65
f 61/61/61 62/62/62 66/66/66
f 66/66/66 62/62/62 67/67/67
f 62/62/62 63/63/63 67/67/67
f 67/67/67 63/63/63 68/68/68
f 63/63/63 64/64/64 68/68/68
f 68/68/68 64/64/64 69/69/69
f 64/64/64 65/65/65 69/69/69
f 69/69/69 65/65/65 70/70/70
f 66/66/66 67/67/67 71/71/71
f 71/71/71 67/67/67 72/72/72
f 67/67/67 68/68/68 72/72/72
f 72/72/72 68/68/68 73/73/73
f 68/68/68 69/69/69 73/73/73
f 73/73/73 69/69/69 74/74/74
f 69/69/69 70/70/70 74/74/74
f 74/74/74 70/70/70 75/75/75
f 71/71/71 72/72/72 76/76/76
f 76/76/76 72/72/72 77/77/77
f 72/72/72 73/73/73 77/77/77
f 77/77/77 73/73/73 78/78/78
f 73/73/73 74/74/74 78/78/78
f 78/78/78 74/74/74 79/79/79
f 74/74/74 75/75/75 79/79/79
f 79/79/79 75/75/75 80/80/80
f 76/76/76 77/77/77 81/81/81
f 81/81/81 77/77/77 82/82/82
f 77/77/77 78/78/78 82/82/82
f 82/82/82 78/78/78 83/83/83
f 78/78/78 79/79/79 83/83/83
f 83/83/83 79/79/79 84/84/84
f 79/79/79 80/80/80 84/84/84
f 84/84/84 80/80/80 85/85/85
f 81/81/81 82/82/82 86/86/86
f 86/86/86 82/82/82 87/87/87
f 82/82/82 83/83/83 87/87/87
f 87/87/87 83/83/83 88/88/88
f 83/83/83 84/84/84 88/88/88
f 88/88/88 84/84/84 89/89/89
f 84/84/84 85/85/85 89/89/89
f 89/89/89 85/85/85 90/90/90
f 86/86/86 87/87/87 91/91/91
f 91/91/91 87/87/87 92/92/92
f 87/87/87 88/88/88 92/92/92
f 92/92/92 88/88/88 93/93/93
f 88/88/88 89/89/89 93/93/93
f 93/93/93 89/89/89 94/94/94
f 89/89/89 90/90/90 94/94/94
f 94/94/94 90/90/90 95/95/95
f 91/91/91 92/92/92 96/96/96
f 96/96/96 92/92/92 97/97/97
f 92/92/92 93/93/93 97/97/97
f 97/97/97 93/93/93 98/98/98
f 93/93/93 94/94/94 98/98/98
f 98/98/98 94/94/94 99/99/99
f 94/94/94 95/95/95 99/99/99
f 99/99/99 95/95/95 100/100/100
f 96/96/96 97/97/97 3/101/3
f 3/101/3 97/97/97 2/102/2
f 97/97/97 98/98/98 2/102/2
f 2/102/2 98/98/98 5/103/5
f 98/98/98 99/99/99 5/103/5
f 5/103/5 99/99/99 7/104/7
f 99/99/99 100/100/100 7/104/7
f 7/104/7 100/100/100 9/105/9
f 103/108/103 102/107/102 101/106/101
f 101/106/101 102/110/102 104/109/104
f 104/109/104 102/112/102 105/111/105
f 105/111/105 102/114/102 106/113/106
f 106/113/106 102/116/102 107/115/107
f 107/115/107 102/118/102 108/117/108
f 108/117/108 102/120/102 109/119/109
f 109/119/109 102/122/102 110/121/110
f 110/121/110 102/124/102 111/123/111
f 111/123/111 102/126/102 112/125/112
f 112/125/112 102/128/102 113/127/113
f 113/127/113 102/130/102 114/129/114
f 114/129/114 102/132/102 115/131/115
f 115/131/115 102/134/102 116/133/116
f 116/133/116 102/136/102 117/135/117
f 117/135/117 102/138/102 118/137/118
f 118/137/118 102/140/102 119/139/119
f 119/139/119 102/142/102 120/141/120
f 120/141/120 102/144/102 121/143/121
f 121/143/121 102/146/102 103/145/103
f 40/40/123 35/35/122 109/119/109
f 109/119/109 35/35/122 108/117/108
f 35/35/122 30/30/124 108/117/108
f 108/117/108 30/30/124 107/115/107
f 30/30/124 25/25/125 107/115/107
f 107/115/107 25/25/125 106/113/106
f 25/25/125 20/20/126 106/113/106
f 106/113/106 20/20/126 105/111/105
f 20/20/126 15/15/127 105/111/105
f 105/111/105 15/15/127 104/109/104
f 15/15/127 10/10/128 104/109/104
f 104/109/104 10/10/128 101/106/101
f 10/10/128 9/9/129 101/106/101
f 101/106/101 9/9/129 103/108/103
f 109/119/109 110/121/110 40/40/123
f 40/40/123 110/121/110 45/45/130
f 110/121/110 111/123/111 45/45/130
f 45/45/130 111/123/111 50/50/131
f 111/123/111 112/125/112 50/50/131
f 50/50/131 112/125/112 55/55/132
f 112/125/112 113/127/113 55/55/132
f 55/55/132 113/127/113 60/60/133
f 113/127/113 114/129/114 60/60/133
f 60/60/133 114/129/114 65/65/134
f 114/129/114 115/131/115 65/65/134
f 65/65/134 115/131/115 70/70/135
f 115/131/115 116/133/116 70/70/135
f 70/70/135 116/133/116 75/75/136
f 116/133/116 117/135/117 75/75/136
f 75/75/136 117/135/117 80/80/137
f 117/135/117 118/137/118 80/80/137
f 80/80/137 118/137/118 85/85/138
f 118/137/118 119/139/119 85/85/138
f 85/85/138 119/139/119 90/90/139
f 119/139/119 120/141/120 90/90/139
f 90/90/139 120/141/120 95/95/140
f 120/141/120 121/143/121 95/95/140
f 95/95/140 121/143/121 100/100/141
f 121/143/121 103/145/103 100/100/141
f 100/100/141 103/145/103 9/105/129
vn -0.5250992 0.3019806 -0.7956623
v 14870.16 -3244.574 11860.95
vt 0.05 0.2
vn -0.6658879 0.5239171 -0.5311347
vn -0.7452726 0.3019807 -0.5944546
v 10477.13 -3244.574 15875.56
vt 0 0.2
vn -0.4691668 0.5239172 -0.7109102
v 12649.32 -6032.258 10089.52
vt 0.05 0.4000001
vn -0.4539311 0.8141569 -0.3620707
v 8912.379 -6032.258 13504.56
vt 0 0.4000001
vn -0.3198276 0.8141569 -0.4846223
v 9190.265 -8244.574 7330.467
vt 0.05 0.6000001
vn -0.2728044 0.9371386 -0.217598
v 6475.222 -8244.574 9811.637
vt 0 0.6000001
vn -0.1922107 0.9371386 -0.2912494
v 4831.608 -9664.969 3853.855
vt 0.05 0.8000002
vn -0.1278001 0.9865474 -0.1019378
v 3404.226 -9664.969 5158.283
vt 0 0.8000002
vn -0.09004451 0.9865474 -0.1364411
v 17807.6 -3244.574 6685.296
vt 0.1 0.2
vn -0.7974268 0.5239171 -0.2993684
vn -0.892493 0.3019806 -0.3350581
v 15148.05 -6032.258 5686.854
vt 0.1 0.4000001
vn -0.5436001 0.8141568 -0.2040773
v 11005.7 -8244.574 4131.741
vt 0.1 0.6000001
vn -0.326694 0.9371386 -0.1226468
v 5786.039 -9664.969 2172.185
vt 0.1 0.8000002
vn -0.1530457 0.9865474 -0.05745615
v 19001.9 -3244.574 855.2459
vt 0.15 0.2
vn -0.8509078 0.5239171 -0.03829787
vn -0.95235 0.3019806 -0.04286359
v 16163.98 -6032.258 727.5145
vt 0.15 0.4000001
vn -0.5800578 0.8141568 -0.02610739
v 11743.82 -8244.574 528.5708
vt 0.15 0.6000001
vn -0.3486044 0.9371386 -0.01569006
v 6174.092 -9664.969 277.8862
vt 0.15 0.8000002
vn -0.16331 0.9865474 -0.007350308
v 18336.17 -3244.574 -5058.523
vt 0.2 0.2
vn -0.8210962 0.523917 0.2265215
vn -0.9189842 0.3019804 0.2535267
v 15597.67 -6032.258 -4303.037
vt 0.2 0.4000001
vn -0.5597354 0.8141568 0.154418
v 11332.37 -8244.574 -3126.339
vt 0.2 0.6000001
vn -0.3363909 0.9371386 0.09280251
v 5957.782 -9664.969 -1643.614
vt 0.2 0.8000002
vn -0.1575884 0.9865474 0.043475
v 15875.56 -3244.574 -10477.13
vt 0.25 0.2
vn -0.71091 0.523917 0.4691674
vn -0.795662 0.3019803 0.5250998
v 13504.56 -6032.258 -8912.378
vt 0.25 0.4000001
vn -0.4846222 0.8141568 0.319828
v 9811.636 -8244.574 -6475.221
vt 0.25 0.6000001
vn -0.2912493 0.9371386 0.1922109
v 5158.282 -9664.969 -3404.225
vt 0.25 0.8000002
vn -0.136441 0.9865474 0.0900447
v 11860.94 -3244.574 -14870.16
vt 0.3 0.2
vn -0.5311348 0.523917 0.665888
vn -0.5944548 0.3019802 0.7452727
v 10089.52 -6032.258 -12649.31
vt 0.3 0.4000001
vn -0.3620707 0.8141568 0.453931
v 7330.467 -8244.574 -9190.264
vt 0.3 0.6000001
vn -0.2175981 0.9371386 0.2728044
v 3853.854 -9664.969 -4831.607
vt 0.3 0.8000002
vn -0.1019378 0.9865474 0.1278002
v 6685.297 -3244.574 -17807.6
vt 0.35 0.2
vn -0.2993686 0.5239169 0.7974268
vn -0.3350582 0.30198 0.8924931
v 5686.853 -6032.258 -15148.04
vt 0.35 0.4000001
vn -0.2040774 0.8141569 0.5436
v 4131.741 -8244.574 -11005.7
vt 0.35 0.6000001
vn -0.1226468 0.9371386 0.3266939
v 2172.184 -9664.969 -5786.038
vt 0.35 0.8000002
vn -0.05745607 0.9865474 0.1530457
v 855.2456 -3244.574 -19001.9
vt 0.4 0.2
vn -0.03829795 0.5239169 0.850908
vn -0.0428637 0.30198 0.9523501
v 727.5156 -6032.258 -16163.98
vt 0.4 0.4000001
vn -0.02610742 0.8141569 0.5800577
v 528.571 -8244.574 -11743.82
vt 0.4 0.6000001
vn -0.01569009 0.9371386 0.3486044
v 277.8865 -9664.969 -6174.091
vt 0.4 0.8000002
vn -0.007350277 0.9865474 0.16331
v -5058.522 -3244.574 -18336.16
vt 0.45 0.2
vn 0.2265214 0.5239169 0.8210963
vn 0.2535266 0.30198 0.9189844
v -4303.036 -6032.258 -15597.67
vt 0.45 0.4000001
vn 0.1544181 0.8141568 0.5597355
v -3126.339 -8244.574 -11332.37
vt 0.45 0.6000001
vn 0.09280247 0.9371386 0.336391
v -1643.614 -9664.969 -5957.781
vt 0.45 0.8000002
vn 0.04347492 0.9865474 0.1575885
v -10477.13 -3244.574 -15875.56
vt 0.5000001 0.2
vn 0.4691673 0.523917 0.7109101
vn 0.5250998 0.3019799 0.7956622
v -8912.376 -6032.258 -13504.56
vt 0.5000001 0.4000001
vn 0.3198279 0.8141569 0.4846222
v -6475.221 -8244.574 -9811.636
vt 0.5000001 0.6000001
vn 0.1922109 0.9371386 0.2912493
v -3404.225 -9664.969 -5158.282
vt 0.5000001 0.8000002
vn 0.09004464 0.9865474 0.1364411
v -14870.16 -3244.574 -11860.94
vt 0.5500001 0.2
vn 0.665888 0.523917 0.5311348
vn 0.7452728 0.30198 0.5944548
v -12649.31 -6032.258 -10089.52
vt 0.5500001 0.4000001
vn 0.453931 0.8141569 0.3620707
v -9190.263 -8244.574 -7330.466
vt 0.5500001 0.6000001
vn 0.2728045 0.9371386 0.2175981
v -4831.607 -9664.969 -3853.854
vt 0.5500001 0.8000002
vn 0.1278002 0.9865474 0.1019378
v -17807.59 -3244.574 -6685.297
vt 0.6000001 0.2
vn 0.7974268 0.523917 0.2993685
vn 0.8924932 0.3019801 0.3350581
v -15148.04 -6032.258 -5686.853
vt 0.6000001 0.4000001
vn 0.5436001 0.8141569 0.2040773
v -11005.7 -8244.574 -4131.74
vt 0.6000001 0.6000001
vn 0.326694 0.9371386 0.1226469
v -5786.038 -9664.969 -2172.184
vt 0.6000001 0.8000002
vn 0.1530456 0.9865474 0.05745621
v -19001.9 -3244.574 -855.2451
vt 0.6500001 0.2
vn 0.8509079 0.5239169 0.03829785
vn 0.9523501 0.3019802 0.04286357
v -16163.98 -6032.258 -727.515
vt 0.6500001 0.4000001
vn 0.5800577 0.8141569 0.0261074
v -11743.82 -8244.574 -528.5708
vt 0.6500001 0.6000001
vn 0.3486044 0.9371386 0.01569013
v -6174.091 -9664.969 -277.8861
vt 0.6500001 0.8000002
vn 0.16331 0.9865474 0.007350363
v -18336.16 -3244.574 5058.521
vt 0.7000001 0.2
vn 0.8210962 0.523917 -0.2265216
vn 0.9189843 0.3019803 -0.2535266
v -15597.67 -6032.258 4303.036
vt 0.7000001 0.4000001
vn 0.5597354 0.8141568 -0.1544181
v -11332.37 -8244.574 3126.338
vt 0.7000001 0.6000001
vn 0.336391 0.9371386 -0.09280254
v -5957.78 -9664.969 1643.614
vt 0.7000001 0.8000002
vn 0.1575886 0.9865474 -0.04347508
v -15875.56 -3244.574 10477.13
vt 0.7500001 0.2
vn 0.71091 0.5239169 -0.4691674
vn 0.795662 0.3019802 -0.5250998
v -13504.55 -6032.258 8912.375
vt 0.7500001 0.4000001
vn 0.4846222 0.8141568 -0.3198281
v -9811.634 -8244.574 6475.22
vt 0.7500001 0.6000001
vn 0.2912493 0.9371386 -0.192211
v -5158.281 -9664.969 3404.225
vt 0.7500001 0.8000002
vn 0.1364411 0.9865474 -0.09004474
v -11860.94 -3244.574 14870.16
vt 0.8000001 0.2
vn 0.5311349 0.5239168 -0.6658881
vn 0.5944548 0.30198 -0.7452728
v -10089.52 -6032.258 12649.31
vt 0.8000001 0.4000001
vn 0.3620709 0.8141568 -0.4539311
v -7330.465 -8244.574 9190.261
vt 0.8000001 0.6000001
vn 0.2175982 0.9371386 -0.2728045
v -3853.854 -9664.969 4831.606
vt 0.8000001 0.8000002
vn 0.1019378 0.9865474 -0.1278002
v -6685.295 -3244.574 17807.59
vt 0.8500001 0.2
vn 0.2993686 0.5239168 -0.7974269
vn 0.3350582 0.30198 -0.8924932
v -5686.853 -6032.258 15148.04
vt 0.8500001 0.4000001
vn 0.2040774 0.8141568 -0.5436001
v -4131.74 -8244.574 11005.7
vt 0.8500001 0.6000001
vn 0.1226468 0.9371386 -0.326694
v -2172.184 -9664.969 5786.037
vt 0.8500001 0.8000002
vn 0.05745614 0.9865474 -0.1530457
v -855.2448 -3244.574 19001.9
vt 0.9000002 0.2
vn 0.03829787 0.5239168 -0.850908
vn 0.04286359 0.30198 -0.9523501
v -727.5153 -6032.258 16163.98
vt 0.9000002 0.4000001
vn 0.02610741 0.8141568 -0.5800578
v -528.5705 -8244.574 11743.82
vt 0.9000002 0.6000001
vn 0.0156901 0.9371386 -0.3486044
v -277.886 -9664.969 6174.089
vt 0.9000002 0.8000002
vn 0.007350272 0.9865474 -0.1633101
v 5058.521 -3244.574 18336.16
vt 0.9500002 0.2
vn -0.2265209 0.523917 -0.8210964
vn -0.2535258 0.3019802 -0.9189845
v 4303.036 -6032.258 15597.67
vt 0.9500002 0.4000001
vn -0.1544176 0.8141568 -0.5597355
v 3126.338 -8244.574 11332.37
vt 0.9500002 0.6000001
vn -0.09280221 0.9371386 -0.3363912
v 1643.613 -9664.969 5957.779
vt 0.9500002 0.8000002
vn -0.04347491 0.9865474 -0.1575885
vt 1 0.2
vt 1 0.4000001
vt 1 0.6000001
vt 1 0.8000002
v -1.180507E-12 -10154.4 3.256745E-13
vn 5.96216E-09 1 2.33409E-09
o skay_ref_0
g polygon_0
usemtl skay:mirr_lambert_sky
f 1/1/144 122/147/143 3/3/142
f 3/3/142 122/147/143 123/148/145
f 122/147/143 124/149/146 123/148/145
f 123/148/145 124/149/146 125/150/147
f 124/149/146 126/151/148 125/150/147
f 125/150/147 126/151/148 127/152/149
f 126/151/148 128/153/150 127/152/149
f 127/152/149 128/153/150 129/154/151
f 11/11/153 130/155/152 1/1/144
f 1/1/144 130/155/152 122/147/143
f 130/155/152 131/156/154 122/147/143
f 122/147/143 131/156/154 124/149/146
f 131/156/154 132/157/155 124/149/146
f 124/149/146 132/157/155 126/151/148
f 132/157/155 133/158/156 126/151/148
f 126/151/148 133/158/156 128/153/150
f 16/16/158 134/159/157 11/11/153
f 11/11/153 134/159/157 130/155/152
f 134/159/157 135/160/159 130/155/152
f 130/155/152 135/160/159 131/156/154
f 135/160/159 136/161/160 131/156/154
f 131/156/154 136/161/160 132/157/155
f 136/161/160 137/162/161 132/157/155
f 132/157/155 137/162/161 133/158/156
f 21/21/163 138/163/162 16/16/158
f 16/16/158 138/163/162 134/159/157
f 138/163/162 139/164/164 134/159/157
f 134/159/157 139/164/164 135/160/159
f 139/164/164 140/165/165 135/160/159
f 135/160/159 140/165/165 136/161/160
f 140/165/165 141/166/166 136/161/160
f 136/161/160 141/166/166 137/162/161
f 26/26/168 142/167/167 21/21/163
f 21/21/163 142/167/167 138/163/162
f 142/167/167 143/168/169 138/163/162
f 138/163/162 143/168/169 139/164/164
f 143/168/169 144/169/170 139/164/164
f 139/164/164 144/169/170 140/165/165
f 144/169/170 145/170/171 140/165/165
f 140/165/165 145/170/171 141/166/166
f 31/31/173 146/171/172 26/26/168
f 26/26/168 146/171/172 142/167/167
f 146/171/172 147/172/174 142/167/167
f 142/167/167 147/172/174 143/168/169
f 147/172/174 148/173/175 143/168/169
f 143/168/169 148/173/175 144/169/170
f 148/173/175 149/174/176 144/169/170
f 144/169/170 149/174/176 145/170/171
f 36/36/178 150/175/177 31/31/173
f 31/31/173 150/175/177 146/171/172
f 150/175/177 151/176/179 146/171/172
f 146/171/172 151/176/179 147/172/174
f 151/176/179 152/177/180 147/172/174
f 147/172/174 152/177/180 148/173/175
f 152/177/180 153/178/181 148/173/175
f 148/173/175 153/178/181 149/174/176
f 41/41/183 154/179/182 36/36/178
f 36/36/178 154/179/182 150/175/177
f 154/179/182 155/180/184 150/175/177
f 150/175/177 155/180/184 151/176/179
f 155/180/184 156/181/185 151/176/179
f 151/176/179 156/181/185 152/177/180
f 156/181/185 157/182/186 152/177/180
f 152/177/180 157/182/186 153/178/181
f 46/46/188 158/183/187 41/41/183
f 41/41/183 158/183/187 154/179/182
f 158/183/187 159/184/189 154/179/182
f 154/179/182 159/184/189 155/180/184
f 159/184/189 160/185/190 155/180/184
f 155/180/184 160/185/190 156/181/185
f 160/185/190 161/186/191 156/181/185
f 156/181/185 161/186/191 157/182/186
f 51/51/193 162/187/192 46/46/188
f 46/46/188 162/187/192 158/183/187
f 162/187/192 163/188/194 158/183/187
f 158/183/187 163/188/194 159/184/189
f 163/188/194 164/189/195 159/184/189
f 159/184/189 164/189/195 160/185/190
f 164/189/195 165/190/196 160/185/190
f 160/185/190 165/190/196 161/186/191
f 56/56/198 166/191/197 51/51/193
f 51/51/193 166/191/197 162/187/192
f 166/191/197 167/192/199 162/187/192
f 162/187/192 167/192/199 163/188/194
f 167/192/199 168/193/200 163/188/194
f 163/188/194 168/193/200 164/189/195
f 168/193/200 169/194/201 164/189/195
f 164/189/195 169/194/201 165/190/196
f 61/61/203 170/195/202 56/56/198
f 56/56/198 170/195/202 166/191/197
f 170/195/202 171/196/204 166/191/197
f 166/191/197 171/196/204 167/192/199
f 171/196/204 172/197/205 167/192/199
f 167/192/199 172/197/205 168/193/200
f 172/197/205 173/198/206 168/193/200
f 168/193/200 173/198/206 169/194/201
f 66/66/208 174/199/207 61/61/203
f 61/61/203 174/199/207 170/195/202
f 174/199/207 175/200/209 170/195/202
f 170/195/202 175/200/209 171/196/204
f 175/200/209 176/201/210 171/196/204
f 171/196/204 176/201/210 172/197/205
f 176/201/210 177/202/211 172/197/205
f 172/197/205 177/202/211 173/198/206
f 71/71/213 178/203/212 66/66/208
f 66/66/208 178/203/212 174/199/207
f 178/203/212 179/204/214 174/199/207
f 174/199/207 179/204/214 175/200/209
f 179/204/214 180/205/215 175/200/209
f 175/200/209 180/205/215 176/201/210
f 180/205/215 181/206/216 176/201/210
f 176/201/210 181/206/216 177/202/211
f 76/76/218 182/207/217 71/71/213
f 71/71/213 182/207/217 178/203/212
f 182/207/217 183/208/219 178/203/212
f 178/203/212 183/208/219 179/204/214
f 183/208/219 184/209/220 179/204/214
f 179/204/214 184/209/220 180/205/215
f 184/209/220 185/210/221 180/205/215
f 180/205/215 185/210/221 181/206/216
f 81/81/223 186/211/222 76/76/218
f 76/76/218 186/211/222 182/207/217
f 186/211/222 187/212/224 182/207/217
f 182/207/217 187/212/224 183/208/219
f 187/212/224 188/213/225 183/208/219
f 183/208/219 188/213/225 184/209/220
f 188/213/225 189/214/226 184/209/220
f 184/209/220 189/214/226 185/210/221
f 86/86/228 190/215/227 81/81/223
f 81/81/223 190/215/227 186/211/222
f 190/215/227 191/216/229 186/211/222
f 186/211/222 191/216/229 187/212/224
f 191/216/229 192/217/230 187/212/224
f 187/212/224 192/217/230 188/213/225
f 192/217/230 193/218/231 188/213/225
f 188/213/225 193/218/231 189/214/226
f 91/91/233 194/219/232 86/86/228
f 86/86/228 194/219/232 190/215/227
f 194/219/232 195/220/234 190/215/227
f 190/215/227 195/220/234 191/216/229
f 195/220/234 196/221/235 191/216/229
f 191/216/229 196/221/235 192/217/230
f 196/221/235 197/222/236 192/217/230
f 192/217/230 197/222/236 193/218/231
f 96/96/238 198/223/237 91/91/233
f 91/91/233 198/223/237 194/219/232
f 198/223/237 199/224/239 194/219/232
f 194/219/232 199/224/239 195/220/234
f 199/224/239 200/225/240 195/220/234
f 195/220/234 200/225/240 196/221/235
f 200/225/240 201/226/241 196/221/235
f 196/221/235 201/226/241 197/222/236
f 3/101/142 123/227/145 96/96/238
f 96/96/238 123/227/145 198/223/237
f 123/227/145 125/228/147 198/223/237
f 198/223/237 125/228/147 199/224/239
f 125/228/147 127/229/149 199/224/239
f 199/224/239 127/229/149 200/225/240
f 127/229/149 129/230/151 200/225/240
f 200/225/240 129/230/151 201/226/241
f 129/154/151 128/153/150 202/107/242
f 128/153/150 133/158/156 202/110/242
f 133/158/156 137/162/161 202/112/242
f 137/162/161 141/166/166 202/114/242
f 141/166/166 145/170/171 202/116/242
f 145/170/171 149/174/176 202/118/242
f 149/174/176 153/178/181 202/120/242
f 153/178/181 157/182/186 202/122/242
f 157/182/186 161/186/191 202/124/242
f 161/186/191 165/190/196 202/126/242
f 165/190/196 169/194/201 202/128/242
f 169/194/201 173/198/206 202/130/242
f 173/198/206 177/202/211 202/132/242
f 177/202/211 181/206/216 202/134/242
f 181/206/216 185/210/221 202/136/242
f 185/210/221 189/214/226 202/138/242
f 189/214/226 193/218/231 202/140/242
f 193/218/231 197/222/236 202/142/242
f 197/222/236 201/226/241 202/144/242
f 201/226/241 129/230/151 202/146/242
v 7320.432 7435.497 -6730.668
vt 0 1
vn -0.00102626 -0.001800684 0.001157984
v 7242.152 7454.221 -6770.921
vn -0.001025942 -0.00180031 0.001158847
v 7292.108 7466.833 -6707.053
vn -0.001026433 -0.001800491 0.00115813
v 7278.186 7424.832 -6784.678
vn -0.001025748 -0.001800467 0.001158773
v 7209.065 7427.714 -6841.344
vn -0.001025527 -0.001800066 0.001159592
v 7250.207 7402.416 -6844.231
vn -0.001025275 -0.00180022 0.001159576
v 7191.805 7391.449 -6912.891
vn -0.001025559 -0.001800647 0.001158661
v 7235.61 7371.749 -6904.734
vn -0.001025597 -0.001800654 0.001158618
v 7195.214 7348.949 -6976.005
vn -0.001025681 -0.001801179 0.001157727
v 7238.494 7335.809 -6958.106
vn -0.00102599 -0.001801073 0.001157618
v 7215.276 7301.387 -7032.215
vn -0.001025961 -0.001800605 0.00115837
v 7255.459 7295.587 -7005.64
vn -0.001025669 -0.001800578 0.001158671
v 7258.432 7244.054 -7083.061
vn -0.001026317 -0.001800038 0.001158937
v 7291.953 7247.104 -7048.637
vn -0.001024756 -0.001799816 0.001160662
v 7314.47 7187.911 -7120.621
vn -0.001025527 -0.001800647 0.001158689
v 7339.342 7199.627 -7080.4
vn -0.001024303 -0.001800101 0.001160621
v 7381.357 7141.832 -7133.113
vn -0.0010248 -0.001801274 0.00115836
v 7395.904 7160.66 -7090.965
vn -0.001023998 -0.001800434 0.001160373
v 7453.799 7103.037 -7129.337
vn -0.001025592 -0.00180089 0.001158255
v 7457.165 7127.854 -7087.771
vn -0.001025484 -0.00180072 0.001158613
v 7527.617 7076.054 -7105.878
vn -0.001026392 -0.001800558 0.001158062
v 7519.589 7105.036 -7067.933
vn -0.001026346 -0.001800762 0.001157786
v 7598.272 7060.277 -7067.773
vn -0.001025557 -0.001800625 0.001158698
v 7579.338 7091.694 -7035.71
vn -0.001025596 -0.001800642 0.001158636
v 7659.497 7060.722 -7012.979
vn -0.001024681 -0.001800757 0.001159268
v 7631.113 7092.07 -6989.374
vn -0.001024852 -0.001800566 0.001159413
v 7709.696 7073.286 -6949.077
vn -0.00102517 -0.001800939 0.001158552
v 7673.564 7102.695 -6935.335
vn -0.001025362 -0.001800782 0.001158626
v 7742.54 7099.84 -6878.688
vn -0.001025582 -0.001801183 0.001157807
v 7701.338 7125.15 -6875.811
vn -0.001025835 -0.00180103 0.001157823
v 7759.407 7136.182 -6807.197
vn -0.001025554 -0.001800625 0.001158699
v 7715.602 7155.883 -6815.354
vn -0.001025522 -0.00180061 0.001158752
v 7753.942 7182.667 -6739.882
vn -0.001025434 -0.001800108 0.001159609
v 7710.98 7195.193 -6758.43
vn -0.001025136 -0.001800198 0.001159733
v 7731.822 7234.003 -6679.74
vn -0.001025133 -0.001800674 0.001158997
v 7692.274 7238.604 -6707.57
vn -0.001025446 -0.001800698 0.001158682
v 7690.725 7287.563 -6632.827
vn -0.001024748 -0.001801249 0.001158445
v 7657.521 7283.898 -6667.898
vn -0.001026438 -0.001801542 0.001156492
v 7636.742 7339.721 -6599.468
vn -0.001025556 -0.001800623 0.0011587
v 7611.87 7328.004 -6639.688
vn -0.001026924 -0.001801269 0.001156487
v 7570.248 7385.723 -6586.919
vn -0.001026312 -0.001799974 0.001159041
v 7555.64 7366.906 -6629.077
vn -0.001027219 -0.001800905 0.00115679
v 7498.049 7424.471 -6590.662
vn -0.001025519 -0.001800359 0.001159144
v 7494.585 7399.673 -6632.242
vn -0.00102564 -0.00180054 0.001158756
v 7423.988 7451.5 -6614.155
vn -0.00102472 -0.001800691 0.001159335
v 7431.955 7422.531 -6652.108
vn -0.00102478 -0.001800489 0.001159596
v 7352.94 7467.354 -6652.314
vn -0.001025557 -0.001800624 0.001158698
v 7371.874 7435.938 -6684.378
vn -0.001025523 -0.001800609 0.001158752
o sun1_0
g polygon_0
usemtl lambert1
f 205/231/245 204/231/244 203/231/243
f 203/231/243 204/231/244 206/231/246
f 204/231/244 207/231/247 206/231/246
f 206/231/246 207/231/247 208/231/248
f 207/231/247 209/231/249 208/231/248
f 208/231/248 209/231/249 210/231/250
f 209/231/249 211/231/251 210/231/250
f 210/231/250 211/231/251 212/231/252
f 211/231/251 213/231/253 212/231/252
f 212/231/252 213/231/253 214/231/254
f 213/231/253 215/231/255 214/231/254
f 214/231/254 215/231/255 216/231/256
f 215/231/255 217/231/257 216/231/256
f 216/231/256 217/231/257 218/231/258
f 217/231/257 219/231/259 218/231/258
f 218/231/258 219/231/259 220/231/260
f 219/231/259 221/231/261 220/231/260
f 220/231/260 221/231/261 222/231/262
f 221/231/261 223/231/263 222/231/262
f 222/231/262 223/231/263 224/231/264
f 223/231/263 225/231/265 224/231/264
f 224/231/264 225/231/265 226/231/266
f 225/231/265 227/231/267 226/231/266
f 226/231/266 227/231/267 228/231/268
f 227/231/267 229/231/269 228/231/268
f 228/231/268 229/231/269 230/231/270
f 229/231/269 231/231/271 230/231/270
f 230/231/270 231/231/271 232/231/272
f 231/231/271 233/231/273 232/231/272
f 232/231/272 233/231/273 234/231/274
f 233/231/273 235/231/275 234/231/274
f 234/231/274 235/231/275 236/231/276
f 235/231/275 237/231/277 236/231/276
f 236/231/276 237/231/277 238/231/278
f 237/231/277 239/231/279 238/231/278
f 238/231/278 239/231/279 240/231/280
f 239/231/279 241/231/281 240/231/280
f 240/231/280 241/231/281 242/231/282
f 241/231/281 243/231/283 242/231/282
f 242/231/282 243/231/283 244/231/284
f 243/231/283 245/231/285 244/231/284
f 244/231/284 245/231/285 246/231/286
f 245/231/285 247/231/287 246/231/286
f 246/231/286 247/231/287 248/231/288
f 247/231/287 249/231/289 248/231/288
f 248/231/288 249/231/289 250/231/290
f 205/231/245 203/231/243 249/231/289
f 249/231/289 203/231/243 250/231/290
f 203/231/243 232/231/272 250/231/290
f 250/231/290 232/231/272 234/231/274
f 244/231/284 240/231/280 242/231/282
f 226/231/266 228/231/268 210/231/250
f 210/231/250 228/231/268 208/231/248
f 228/231/268 230/231/270 208/231/248
f 208/231/248 230/231/270 206/231/246
f 230/231/270 232/231/272 206/231/246
f 206/231/246 232/231/272 203/231/243
f 210/231/250 212/231/252 226/231/266
f 226/231/266 212/231/252 224/231/264
f 212/231/252 214/231/254 224/231/264
f 224/231/264 214/231/254 222/231/262
f 214/231/254 216/231/256 222/231/262
f 222/231/262 216/231/256 220/231/260
f 220/231/260 216/231/256 218/231/258
f 234/231/274 236/231/276 250/231/290
f 250/231/290 236/231/276 248/231/288
f 236/231/276 238/231/278 248/231/288
f 248/231/288 238/231/278 246/231/286
f 238/231/278 240/231/280 246/231/286
f 246/231/286 240/231/280 244/231/284
v 6338.233 8042.41 -6093.906
vn -0.0006976974 -0.00133109 0.0007313287
v 5245.207 8238.634 -6779.521
vn -0.0006976973 -0.00133109 0.0007313287
v 5756.506 8557.077 -5712.138
v 6013.858 7840.385 -6771.069
v 5298.398 7627.721 -7840.697
v 6047.603 7452.814 -7444.294
v 5899.611 6888.869 -8611.916
vn -0.0006976973 -0.00133109 0.0007313288
v 6429.021 6984.075 -7933.566
v 6889.617 6219.935 -8884.962
vn -0.0006976974 -0.00133109 0.0007313288
v 7057.095 6559.694 -8106.791
v 8002.129 5799.525 -8588.797
v 7762.888 6292.981 -7918.899
vn -0.0006976975 -0.00133109 0.0007313288
v 8938.943 5741.505 -7800.667
v 8357.216 6256.171 -7418.898
v 9450.242 6059.948 -6733.284
vn -0.0006976975 -0.00133109 0.0007313287
v 8681.591 6458.196 -6741.735
v 9397.051 6670.861 -5672.107
v 8647.846 6845.768 -6068.51
v 8795.838 7409.713 -4900.889
v 8266.428 7314.506 -5579.239
v 7805.832 8078.647 -4627.843
v 7638.354 7738.887 -5406.014
v 6693.321 8499.056 -4924.007
vn -0.0006976973 -0.00133109 0.0007313286
v 6932.562 8005.601 -5593.905
v 6841.58 7597.088 -6424.236
v 7139.567 7578.633 -6173.543
v 6678.942 7495.796 -6763.756
v 6695.862 7301.473 -7101.302
v 6887.1 7066.454 -7346.615
v 7202.007 6853.676 -7433.468
v 7555.882 6719.949 -7339.262
v 7853.87 6701.494 -7088.568
v 8016.506 6802.786 -6749.049
v 7999.587 6997.109 -6411.503
v 7808.349 7232.127 -6166.189
v 7493.442 7444.906 -6079.337
v 7296.47 7255.009 -6612.883
v 7461.145 7169.688 -6611.073
v 7347.725 7149.291 -6756.402
v 7512.4 7063.97 -6754.592
v 7398.979 7043.573 -6899.921
v 7234.304 7128.894 -6901.732
v 7183.049 7234.612 -6758.213
o sun_0
g polygon_0
usemtl lambert10
f 253/231/292 252/231/292 251/231/291
f 251/231/291 252/231/292 254/231/292
f 252/231/292 255/231/292 254/231/292
f 254/231/292 255/231/292 256/231/291
f 255/231/292 257/231/293 256/231/291
f 256/231/291 257/231/293 258/231/293
f 257/231/293 259/231/294 258/231/293
f 258/231/293 259/231/294 260/231/291
f 259/231/294 261/231/294 260/231/291
f 260/231/291 261/231/294 262/231/295
f 261/231/294 263/231/291 262/231/295
f 262/231/295 263/231/291 264/231/291
f 263/231/291 265/231/296 264/231/291
f 264/231/291 265/231/296 266/231/296
f 265/231/296 267/231/296 266/231/296
f 266/231/296 267/231/296 268/231/291
f 267/231/296 269/231/296 268/231/291
f 268/231/291 269/231/296 270/231/296
f 269/231/296 271/231/291 270/231/296
f 270/231/296 271/231/291 272/231/291
f 271/231/291 273/231/297 272/231/291
f 272/231/291 273/231/297 274/231/292
f 253/231/292 251/231/291 273/231/297
f 273/231/297 251/231/291 274/231/292
f 251/231/291 275/231/295 274/231/292
f 274/231/292 275/231/295 276/231/292
f 254/231/292 256/231/291 277/231/292
f 277/231/292 256/231/291 278/231/296
f 256/231/291 258/231/293 278/231/296
f 278/231/296 258/231/293 279/231/294
f 258/231/293 260/231/291 279/231/294
f 279/231/294 260/231/291 280/231/296
f 260/231/291 262/231/295 280/231/296
f 280/231/296 262/231/295 281/231/295
f 262/231/295 264/231/291 281/231/295
f 281/231/295 264/231/291 282/231/292
f 264/231/291 266/231/296 282/231/292
f 282/231/292 266/231/296 283/231/296
f 266/231/296 268/231/291 283/231/296
f 283/231/296 268/231/291 284/231/293
f 268/231/291 270/231/296 284/231/293
f 284/231/293 270/231/296 285/231/291
f 270/231/296 272/231/291 285/231/291
f 285/231/291 272/231/291 286/231/293
f 272/231/291 274/231/292 286/231/293
f 286/231/293 274/231/292 276/231/292
f 254/231/292 277/231/292 275/231/295
f 251/231/291 254/231/292 275/231/295
f 276/231/292 287/231/295 286/231/293
f 286/231/293 287/231/295 288/231/294
f 287/231/295 289/231/291 288/231/294
f 288/231/294 289/231/291 290/231/294
f 289/231/291 291/231/292 290/231/294
f 290/231/294 291/231/292 282/231/292
f 291/231/292 281/231/295 282/231/292
f 281/231/295 291/231/292 280/231/296
f 291/231/292 292/231/291 280/231/296
f 280/231/296 292/231/291 279/231/294
f 292/231/291 278/231/296 279/231/294
f 278/231/296 292/231/291 293/231/296
f 292/231/291 289/231/291 293/231/296
f 293/231/296 289/231/291 287/231/295
f 287/231/295 275/231/295 293/231/296
f 293/231/296 275/231/295 277/231/292
f 277/231/292 278/231/296 293/231/296
f 292/231/291 291/231/292 289/231/291
f 276/231/292 275/231/295 287/231/295
f 282/231/292 283/231/296 290/231/294
f 290/231/294 283/231/296 284/231/293
f 284/231/293 288/231/294 290/231/294
f 288/231/294 284/231/293 285/231/291
f 285/231/291 286/231/293 288/231/294
