<?xml version="1.0" encoding="utf-8"?>
<COLLADA xmlns:xsi="http://www.w3.org/2001/XMLSchema-instance" xmlns:xsd="http://www.w3.org/2001/XMLSchema" version="1.4.1" xmlns="http://www.collada.org/2005/11/COLLADASchema">
    <asset>
        <created>2022-10-28T08:36:21.3090289-05:00</created>
        <modified>2022-10-28T08:36:21.3090289-05:00</modified>
        <unit name="Meter" />
        <contributor>
            <authoring_tool>IONET Exporter</authoring_tool>
        </contributor>
    </asset>
    <library_images>
        <image id="Texture_35_CMP-image" name="Texture_35_CMP">
            <init_from>Texture_35_CMP.png</init_from>
        </image>
    </library_images>
    <library_materials>
        <material id="flag_l" name="flag_l">
            <instance_effect url="#flag_l-effect" />
        </material>
    </library_materials>
    <library_effects>
        <effect id="flag_l-effect" name="flag_l">
            <profile_COMMON>
                <newparam sid="Texture_35_CMP-image_surface">
                    <surface type="2D">
                        <init_from>Texture_35_CMP-image</init_from>
                    </surface>
                </newparam>
                <newparam sid="Texture_35_CMP-image_sampler">
                    <sampler2D>
                        <source>Texture_35_CMP-image_surface</source>
                        <wrap_s>CLAMP</wrap_s>
                        <wrap_t>CLAMP</wrap_t>
                    </sampler2D>
                </newparam>
                <technique sid="standard">
                    <phong>
                        <emission>
                            <color sid="emission">0 0 0 1</color>
                        </emission>
                        <ambient>
                            <color sid="ambient">0 0 0 1</color>
                        </ambient>
                        <diffuse>
                            <texture texture="Texture_35_CMP-image_sampler" texcoord="CHANNEL0" />
                        </diffuse>
                        <specular>
                            <color sid="specular">0.227451 0.5137255 0.07058824 0.4352941</color>
                        </specular>
                        <reflective>
                            <color sid="reflective">1 1 1 1</color>
                        </reflective>
                        <shininess>
                            <float sid="shininess">50</float>
                        </shininess>
                        <reflectivity>
                            <float sid="reflectivity">1</float>
                        </reflectivity>
                        <transparency>
                            <float sid="transparency">1</float>
                        </transparency>
                    </phong>
                </technique>
            </profile_COMMON>
        </effect>
    </library_effects>
    <library_geometries>
        <geometry id="pflag07_0-geometry" name="pflag07_0">
            <mesh>
                <source id="pflag07_0-geometry-POSITION">
                    <float_array id="pflag07_0-geometry-POSITION-array" count="900">-34010.43 -7064.667 68142.32 -24936.5 1380.92 76779.03 -34414.31 -11106.11 114031 -24757.58 223.5454 47711.92 -24936.5 1380.92 76779.03 -34010.43 -7064.667 68142.32 -24757.58 223.5454 47711.92 -18886.13 8623.354 51267.78 -24936.5 1380.92 76779.03 -20779.77 4774.474 35345.55 -18886.13 8623.354 51267.78 -24757.58 223.5454 47711.92 -20779.77 4774.474 35345.55 -15506.43 14329.52 36833.04 -18886.13 8623.354 51267.78 -18228.47 8652.511 23080.84 -15506.43 14329.52 36833.04 -20779.77 4774.474 35345.55 -18228.47 8652.511 23080.84 -11665.9 21022.35 20579.94 -15506.43 14329.52 36833.04 -12056.43 13822.56 10380.88 -11665.9 21022.35 20579.94 -18228.47 8652.511 23080.84 -12056.43 13822.56 10380.88 -7076.125 28747.41 3415.313 -11665.9 21022.35 20579.94 -4058.304 17287.15 869.586 -7076.125 28747.41 3415.313 -12056.43 13822.56 10380.88 -12056.43 13822.56 10380.88 -6046.133 7143.307 5303.807 -4058.304 17287.15 869.586 -14037.57 3768.524 14182.78 -6046.133 7143.307 5303.807 -12056.43 13822.56 10380.88 -14037.57 3768.524 14182.78 -1731.714 1928.921 6976.409 -6046.133 7143.307 5303.807 -10789.61 -1054.63 14435.95 -1731.714 1928.921 6976.409 -14037.57 3768.524 14182.78 -10789.61 -1054.63 14435.95 -869.9519 -117.5811 7136.688 -1731.714 1928.921 6976.409 -1918.993 -634.2479 9243.71 -869.9519 -117.5811 7136.688 -10789.61 -1054.63 14435.95 -1918.993 -634.2479 9243.71 -29.16898 1447.498 4385.673 -869.9519 -117.5811 7136.688 -811.8212 1217.118 5392.804 -29.16898 1447.498 4385.673 -1918.993 -634.2479 9243.71 -811.8212 1217.118 5392.804 361.8184 1547.571 3123.938 -29.16898 1447.498 4385.673 968.1505 1594.127 2589.747 -29.16898 1447.498 4385.673 361.8184 1547.571 3123.938 968.1505 1594.127 2589.747 623.3225 1697.162 3498.17 -29.16898 1447.498 4385.673 1406.612 1655.603 2201.152 623.3225 1697.162 3498.17 968.1505 1594.127 2589.747 1406.612 1655.603 2201.152 1070.706 2052.811 2714.897 623.3225 1697.162 3498.17 1640.662 1692.213 2016.136 1070.706 2052.811 2714.897 1406.612 1655.603 2201.152 1640.662 1692.213 2016.136 1630.612 2353.138 1932.136 1070.706 2052.811 2714.897 2139.702 1531.146 1908.56 1630.612 2353.138 1932.136 1640.662 1692.213 2016.136 2139.702 1531.146 1908.56 2129.073 2638.455 1228.446 1630.612 2353.138 1932.136 2290.27 1795.564 1446.107 2129.073 2638.455 1228.446 2139.702 1531.146 1908.56 2139.702 1531.146 1908.56 2045.333 1340.793 1801.448 2290.27 1795.564 1446.107 1842.053 1382.149 1913.614 2045.333 1340.793 1801.448 2139.702 1531.146 1908.56 1842.053 1382.149 1913.614 1917.103 1145.958 1866.745 2045.333 1340.793 1801.448 1779.114 1122.608 1968.823 1917.103 1145.958 1866.745 1842.053 1382.149 1913.614 1779.114 1122.608 1968.823 1879.427 1036.214 1822.836 1917.103 1145.958 1866.745 1801.063 991.5443 1892.505 1879.427 1036.214 1822.836 1779.114 1122.608 1968.823 1801.063 991.5443 1892.505 1911.271 1069.185 1656.039 1879.427 1036.214 1822.836 1880.632 1069.654 1656.492 1911.271 1069.185 1656.039 1801.063 991.5443 1892.505 1801.063 991.5443 1892.505 1712.832 1006.308 1953.534 1880.632 1069.654 1656.492 1658.926 1116.2 2053.523 1712.832 1006.308 1953.534 1801.063 991.5443 1892.505 1658.926 1116.2 2053.523 1454.346 1104.914 2244.934 1712.832 1006.308 1953.534 1487.393 1349.49 2179.759 1454.346 1104.914 2244.934 1658.926 1116.2 2053.523 1487.393 1349.49 2179.759 1032.642 1257.468 2627.669 1454.346 1104.914 2244.934 968.1505 1594.127 2589.747 1032.642 1257.468 2627.669 1487.393 1349.49 2179.759 968.1505 1594.127 2589.747 361.8184 1547.571 3123.938 1032.642 1257.468 2627.669 -18228.47 8652.511 23080.84 -14037.57 3768.524 14182.78 -12056.43 13822.56 10380.88 -19068.76 225.5466 24627.33 -14037.57 3768.524 14182.78 -18228.47 8652.511 23080.84 -19068.76 225.5466 24627.33 -10789.61 -1054.63 14435.95 -14037.57 3768.524 14182.78 -20084.98 -4406.17 23663.44 -10789.61 -1054.63 14435.95 -19068.76 225.5466 24627.33 -20084.98 -4406.17 23663.44 -1918.993 -634.2479 9243.71 -10789.61 -1054.63 14435.95 -3226.574 -1838.874 12458.11 -1918.993 -634.2479 9243.71 -20084.98 -4406.17 23663.44 -3226.574 -1838.874 12458.11 -811.8212 1217.118 5392.804 -1918.993 -634.2479 9243.71 -20779.77 4774.474 35345.55 -19068.76 225.5466 24627.33 -18228.47 8652.511 23080.84 -24897.17 -3625.264 36092.45 -19068.76 225.5466 24627.33 -20779.77 4774.474 35345.55 -24897.17 -3625.264 36092.45 -20084.98 -4406.17 23663.44 -19068.76 225.5466 24627.33 -28362.44 -8214.95 34767.55 -20084.98 -4406.17 23663.44 -24897.17 -3625.264 36092.45 -28362.44 -8214.95 34767.55 -3226.574 -1838.874 12458.11 -20084.98 -4406.17 23663.44 -24757.58 223.5454 47711.92 -24897.17 -3625.264 36092.45 -20779.77 4774.474 35345.55 -33436.38 -8384.114 50136.71 -24897.17 -3625.264 36092.45 -24757.58 223.5454 47711.92 -33436.38 -8384.114 50136.71 -28362.44 -8214.95 34767.55 -24897.17 -3625.264 36092.45 -33436.38 -8384.114 50136.71 -24757.58 223.5454 47711.92 -34010.43 -7064.667 68142.32 623.3225 1697.162 3498.17 -869.9519 -117.5811 7136.688 -29.16898 1447.498 4385.673 92.94583 1983.213 4079.68 -869.9519 -117.5811 7136.688 623.3225 1697.162 3498.17 92.94583 1983.213 4079.68 -1731.714 1928.921 6976.409 -869.9519 -117.5811 7136.688 -1475.91 3579.008 3338.986 -1731.714 1928.921 6976.409 92.94583 1983.213 4079.68 -1475.91 3579.008 3338.986 -6046.133 7143.307 5303.807 -1731.714 1928.921 6976.409 -1652.951 9195.49 -338.869 -6046.133 7143.307 5303.807 -1475.91 3579.008 3338.986 -1652.951 9195.49 -338.869 -4058.304 17287.15 869.586 -6046.133 7143.307 5303.807 1070.706 2052.811 2714.897 92.94583 1983.213 4079.68 623.3225 1697.162 3498.17 1021.807 2522.221 2327.352 92.94583 1983.213 4079.68 1070.706 2052.811 2714.897 1021.807 2522.221 2327.352 -1475.91 3579.008 3338.986 92.94583 1983.213 4079.68 679.6711 5041.311 -88.42181 -1475.91 3579.008 3338.986 1021.807 2522.221 2327.352 679.6711 5041.311 -88.42181 -1652.951 9195.49 -338.869 -1475.91 3579.008 3338.986 1630.612 2353.138 1932.136 1021.807 2522.221 2327.352 1070.706 2052.811 2714.897 1867.943 3642.231 831.5731 1021.807 2522.221 2327.352 1630.612 2353.138 1932.136 1867.943 3642.231 831.5731 679.6711 5041.311 -88.42181 1021.807 2522.221 2327.352 1630.612 2353.138 1932.136 2129.073 2638.455 1228.446 1867.943 3642.231 831.5731 1487.393 1349.49 2179.759 1406.612 1655.603 2201.152 968.1505 1594.127 2589.747 1700.394 1394.327 1986.647 1406.612 1655.603 2201.152 1487.393 1349.49 2179.759 1700.394 1394.327 1986.647 1640.662 1692.213 2016.136 1406.612 1655.603 2201.152 1842.053 1382.149 1913.614 1640.662 1692.213 2016.136 1700.394 1394.327 1986.647 1842.053 1382.149 1913.614 2139.702 1531.146 1908.56 1640.662 1692.213 2016.136 1658.926 1116.2 2053.523 1700.394 1394.327 1986.647 1487.393 1349.49 2179.759 1779.114 1122.608 1968.823 1700.394 1394.327 1986.647 1658.926 1116.2 2053.523 1779.114 1122.608 1968.823 1842.053 1382.149 1913.614 1700.394 1394.327 1986.647 1801.063 991.5443 1892.505 1779.114 1122.608 1968.823 1658.926 1116.2 2053.523 2045.333 1340.793 1801.448 2289.987 1371.609 1598.765 2290.27 1795.564 1446.107 2055.597 1170.749 1771.683 2289.987 1371.609 1598.765 2045.333 1340.793 1801.448 2055.597 1170.749 1771.683 2191.424 1171.962 1667.847 2289.987 1371.609 1598.765 2028.856 1094.956 1717.109 2191.424 1171.962 1667.847 2055.597 1170.749 1771.683 2028.856 1094.956 1717.109 2118.127 1084.7 1670.351 2191.424 1171.962 1667.847 2004.292 1064.803 1651.512 2118.127 1084.7 1670.351 2028.856 1094.956 1717.109 2004.292 1064.803 1651.512 2035.199 1064.282 1651.277 2118.127 1084.7 1670.351 1917.103 1145.958 1866.745 2055.597 1170.749 1771.683 2045.333 1340.793 1801.448 1967.923 1087.424 1732.531 2055.597 1170.749 1771.683 1917.103 1145.958 1866.745 1967.923 1087.424 1732.531 2028.856 1094.956 1717.109 2055.597 1170.749 1771.683 1973.871 1064.803 1651.512 2028.856 1094.956 1717.109 1967.923 1087.424 1732.531 1973.871 1064.803 1651.512 2004.292 1064.803 1651.512 2028.856 1094.956 1717.109 1879.427 1036.214 1822.836 1967.923 1087.424 1732.531 1917.103 1145.958 1866.745 1943.45 1064.803 1651.512 1967.923 1087.424 1732.531 1879.427 1036.214 1822.836 1943.45 1064.803 1651.512 1973.871 1064.803 1651.512 1967.923 1087.424 1732.531 1911.271 1069.185 1656.039 1943.45 1064.803 1651.512 1879.427 1036.214 1822.836</float_array>
                    <technique_common>
                        <accessor count="300" offset="0" source="pflag07_0-geometry-POSITION-array" stride="3">
                            <param name="X" type="float" />
                            <param name="Y" type="float" />
                            <param name="Z" type="float" />
                        </accessor>
                    </technique_common>
                </source>
                <source id="pflag07_0-geometry-NORMAL">
                    <float_array id="pflag07_0-geometry-NORMAL-array" count="192">-0.001318899 -0.0007692802 -0.001144866 -0.0008041578 -0.0002542191 -0.0005450085 -0.0006086921 -0.0001414462 -0.0004053995 -0.001382009 -0.0007633651 -0.001160578 -0.0009267949 -0.0003926213 -0.0006510473 -0.001245795 -0.0006494871 -0.0009576177 -0.0007125844 -0.0002218685 -0.000380882 -0.001153047 -0.0006126316 -0.0008340548 -0.0005118005 -2.150505E-05 -0.0001444949 -0.000975207 -0.0004630633 -0.0005277424 -0.0008316141 -0.0001942064 -0.000244405 -0.001085702 -0.0005550534 -0.0005640099 -0.00149134 -0.001070974 -0.001132565 -0.001632869 -0.001065432 -0.001397916 -0.003472739 -0.00210799 -0.003793186 -0.002531384 -0.001695093 -0.002597548 -0.005837193 -0.003108378 -0.006939419 -0.005780812 -0.003109802 -0.006873994 -0.007884585 0.0313304 -0.0322449 -0.007450488 0.02835707 -0.02969717 -0.009478366 0.06098872 -0.05371502 -0.01053807 0.06902324 -0.06043618 -0.008540204 0.02591606 -0.02977883 -0.01226641 0.06204553 -0.05856488 -0.008262833 0.01138211 -0.02013431 -0.01322905 0.04090941 -0.04652166 -0.008234742 -4.384998E-05 -0.0128394 -0.01473351 -0.001678799 -0.02154692 -0.00826516 -0.003878907 -0.01052157 -0.01653021 -0.006769992 -0.02092363 -0.01562938 0.04927044 -0.0555524 -0.01399031 0.07553012 -0.06980514 -0.01143982 0.1319229 -0.102039 -0.009073483 0.149382 -0.1095711 -0.005393743 0.2040721 -0.1389348 -0.004445128 0.2118416 -0.1424633 -0.0006070837 0.2577233 -0.1658918 -0.0005316565 0.2582593 -0.1661182 -0.005257803 0.20486 -0.1392481 -0.008216493 0.1589264 -0.1143705 -0.009099022 0.1446947 -0.1066291 -0.01093052 0.1106942 -0.08763691 -0.0103052 0.09681195 -0.07784283 -0.001701728 -0.001064198 -0.001522478 -0.002624623 -0.001719701 -0.002776443 -0.005129228 -0.00286874 -0.006017525 -0.001752462 -0.00109574 -0.001621527 -0.002576767 -0.001680212 -0.002746504 -0.001760964 -0.001135868 -0.001677154 -0.005670576 -0.003177324 -0.006747399 -0.002460582 -0.001766372 -0.00244749 -0.001466029 -0.001115428 -0.001063539 -0.004676106 -0.002881511 -0.005468733 -0.002631031 -0.001898883 -0.002676598 -0.004618037 -0.003002936 -0.005448436 -0.01201444 0.1023769 -0.08394031 -0.02078872 0.01465878 -0.04131904 -0.01621738 0.09413321 -0.0852138 -0.02450136 0.05827275 -0.07512913 -0.01264891 0.1591944 -0.1214335 -0.02326854 0.0828416 -0.08899561 -3.45405E-17 0.2620374 -0.1677134 -0.001271768 0.2529998 -0.1638974 -0.006715741 0.2049549 -0.141554</float_array>
                    <technique_common>
                        <accessor count="64" offset="0" source="pflag07_0-geometry-NORMAL-array" stride="3">
                            <param name="X" type="float" />
                            <param name="Y" type="float" />
                            <param name="Z" type="float" />
                        </accessor>
                    </technique_common>
                </source>
                <source id="pflag07_0-geometry-TEXCOORD">
                    <float_array id="pflag07_0-geometry-TEXCOORD-array" count="132">0.8999999 0.1721698 0.9999999 0.3033019 0.9999999 0.1721698 0.8999999 0.3033019 0.9999999 0.4344339 0.8999999 0.4344339 0.9999999 0.5655661 0.8999999 0.5655661 0.9999999 0.6966981 0.8999999 0.6966981 0.9999999 0.8278302 0.8999999 0.8278302 0.7999998 0.6966981 0.7999998 0.5655661 0.6999998 0.5655661 0.6999998 0.4344339 0.5999998 0.4344339 0.5999998 0.3033019 0.4999999 0.3033019 0.4999999 0.1721698 0.3999999 0.1721698 0.3999999 0.3033019 0.4999999 0.4344339 0.3999999 0.4344339 0.4999999 0.5655661 0.3999999 0.5655661 0.4999999 0.6966981 0.3999999 0.6966981 0.4999999 0.8278302 0.3999999 0.8278302 0.2999998 0.6966981 0.2999998 0.5655661 0.1999999 0.5655661 0.1999999 0.4344339 0.09999985 0.4344339 0.09999985 0.3033019 -1.192093E-07 0.3033019 -1.192093E-07 0.1721698 0.09999985 0.1721698 0.1999999 0.3033019 0.1999999 0.1721698 0.2999998 0.3033019 0.2999998 0.1721698 0.7999998 0.4344339 0.6999998 0.3033019 0.5999998 0.1721698 0.7999998 0.3033019 0.6999998 0.1721698 0.7999998 0.1721698 0.5999998 0.5655661 0.6999998 0.6966981 0.7999998 0.8278302 0.5999998 0.6966981 0.6999998 0.8278302 0.5999998 0.8278302 0.2999998 0.4344339 0.2999998 0.8278302 0.1999999 0.6966981 0.1999999 0.8278302 0.09999985 0.6966981 0.09999985 0.8278302 -1.192093E-07 0.6966981 -1.192093E-07 0.8278302 0.09999985 0.5655661 -1.192093E-07 0.5655661 -1.192093E-07 0.4344339</float_array>
                    <technique_common>
                        <accessor count="66" offset="0" source="pflag07_0-geometry-TEXCOORD-array" stride="2">
                            <param name="S" type="float" />
                            <param name="T" type="float" />
                        </accessor>
                    </technique_common>
                </source>
                <source id="pflag07_0-geometry-COLOR">
                    <float_array id="pflag07_0-geometry-COLOR-array" count="4">0.9098039 1 0.9647059 1</float_array>
                    <technique_common>
                        <accessor count="1" offset="0" source="pflag07_0-geometry-COLOR-array" stride="4">
                            <param name="R" type="double" />
                            <param name="G" type="double" />
                            <param name="B" type="double" />
                            <param name="A" type="double" />
                        </accessor>
                    </technique_common>
                </source>
                <vertices id="pflag07_0-vertices">
                    <input semantic="POSITION" source="#pflag07_0-geometry-POSITION" />
                </vertices>
                <triangles count="100" material="flag_l">
                    <input semantic="VERTEX" source="#pflag07_0-vertices" offset="0" set="0" />
                    <input semantic="NORMAL" source="#pflag07_0-geometry-NORMAL" offset="1" set="0" />
                    <input semantic="TEXCOORD" source="#pflag07_0-geometry-TEXCOORD" offset="2" set="0" />
                    <input semantic="COLOR" source="#pflag07_0-geometry-COLOR" offset="3" set="0" />
                    <p>2 2 2 0 1 1 1 0 0 0 0 0 5 0 0 0 4 1 1 0 3 3 3 0 8 1 1 0 7 4 4 0 6 3 3 0 11 3 3 0 10 4 4 0 9 5 5 0 14 4 4 0 13 6 6 0 12 5 5 0 17 5 5 0 16 6 6 0 15 7 7 0 20 6 6 0 19 8 8 0 18 7 7 0 23 7 7 0 22 8 8 0 21 9 9 0 26 8 8 0 25 10 10 0 24 9 9 0 29 9 9 0 28 10 10 0 27 11 11 0 32 11 11 0 31 12 12 0 30 9 9 0 35 9 9 0 34 12 12 0 33 13 13 0 38 12 12 0 37 14 14 0 36 13 13 0 41 13 13 0 40 14 14 0 39 15 15 0 44 14 14 0 43 16 16 0 42 15 15 0 47 15 15 0 46 16 16 0 45 17 17 0 50 16 16 0 49 18 18 0 48 17 17 0 53 17 17 0 52 18 18 0 51 19 19 0 56 18 18 0 55 20 20 0 54 19 19 0 59 20 20 0 58 18 18 0 57 21 21 0 62 18 18 0 61 22 22 0 60 21 21 0 65 21 21 0 64 22 22 0 63 23 23 0 68 22 22 0 67 24 24 0 66 23 23 0 71 23 23 0 70 24 24 0 69 25 25 0 74 24 24 0 73 26 26 0 72 25 25 0 77 25 25 0 76 26 26 0 75 27 27 0 80 26 26 0 79 28 28 0 78 27 27 0 83 27 27 0 82 28 28 0 81 29 29 0 86 29 29 0 85 30 30 0 84 27 27 0 89 27 27 0 88 30 30 0 87 31 31 0 92 30 30 0 91 32 32 0 90 31 31 0 95 31 31 0 94 32 32 0 93 33 33 0 98 32 32 0 97 34 34 0 96 33 33 0 101 33 33 0 100 34 34 0 99 35 35 0 104 34 34 0 103 36 36 0 102 35 35 0 107 35 35 0 106 36 36 0 105 37 37 0 110 37 37 0 109 38 38 0 108 35 35 0 113 35 35 0 112 38 38 0 111 39 39 0 116 38 38 0 115 40 40 0 114 39 39 0 119 39 39 0 118 40 40 0 117 41 41 0 122 40 40 0 121 42 42 0 120 41 41 0 125 41 41 0 124 42 42 0 123 21 21 0 128 42 42 0 127 20 20 0 126 21 21 0 131 9 9 0 130 13 13 0 129 7 7 0 134 7 7 0 133 13 13 0 132 43 43 0 137 13 13 0 136 15 15 0 135 43 43 0 140 43 43 0 139 15 15 0 138 44 44 0 143 15 15 0 142 17 17 0 141 44 44 0 146 44 44 0 145 17 17 0 144 45 45 0 149 17 17 0 148 19 19 0 147 45 45 0 152 7 7 0 151 43 43 0 150 5 5 0 155 5 5 0 154 43 43 0 153 46 46 0 158 43 43 0 157 44 44 0 156 46 46 0 161 46 46 0 160 44 44 0 159 47 47 0 164 44 44 0 163 45 45 0 162 47 47 0 167 5 5 0 166 46 46 0 165 3 3 0 170 3 3 0 169 46 46 0 168 48 48 0 173 46 46 0 172 47 47 0 171 48 48 0 176 0 0 0 175 3 3 0 174 48 48 0 179 18 18 0 178 16 16 0 177 22 22 0 182 22 22 0 181 16 16 0 180 49 49 0 185 16 16 0 184 14 14 0 183 49 49 0 188 49 49 0 187 14 14 0 186 50 50 0 191 14 14 0 190 12 12 0 189 50 50 0 194 50 50 0 193 12 12 0 192 51 51 0 197 12 12 0 196 11 11 0 195 51 51 0 200 22 22 0 199 49 49 0 198 24 24 0 203 24 24 0 202 49 49 0 201 52 52 0 206 49 49 0 205 50 50 0 204 52 52 0 209 52 52 0 208 50 50 0 207 53 53 0 212 50 50 0 211 51 51 0 210 53 53 0 215 24 24 0 214 52 52 0 213 26 26 0 218 26 26 0 217 52 52 0 216 54 54 0 221 52 52 0 220 53 53 0 219 54 54 0 224 54 54 0 223 28 28 0 222 26 26 0 227 21 21 0 226 23 23 0 225 41 41 0 230 41 41 0 229 23 23 0 228 55 55 0 233 23 23 0 232 25 25 0 231 55 55 0 236 55 55 0 235 25 25 0 234 31 31 0 239 25 25 0 238 27 27 0 237 31 31 0 242 41 41 0 241 55 55 0 240 39 39 0 245 39 39 0 244 55 55 0 243 33 33 0 248 55 55 0 247 31 31 0 246 33 33 0 251 39 39 0 250 33 33 0 249 35 35 0 254 29 29 0 253 56 56 0 252 30 30 0 257 30 30 0 256 56 56 0 255 57 57 0 260 56 56 0 259 58 58 0 258 57 57 0 263 57 57 0 262 58 58 0 261 59 59 0 266 58 58 0 265 60 60 0 264 59 59 0 269 59 59 0 268 60 60 0 267 61 61 0 272 60 60 0 271 62 62 0 270 61 61 0 275 30 30 0 274 57 57 0 273 32 32 0 278 32 32 0 277 57 57 0 276 63 63 0 281 57 57 0 280 59 59 0 279 63 63 0 284 63 63 0 283 59 59 0 282 61 64 0 287 59 59 0 286 61 61 0 285 61 64 0 290 32 32 0 289 63 63 0 288 34 34 0 293 34 34 0 292 63 63 0 291 61 65 0 296 63 63 0 295 61 64 0 294 61 65 0 299 34 34 0 298 61 65 0 297 36 36 0</p>
                </triangles>
            </mesh>
        </geometry>
    </library_geometries>
    <library_controllers>
        <controller id="pflag07_0-controller" name="pflag07_0">
            <skin source="#pflag07_0-geometry">
                <bind_shape_matrix>1 0 0 0 0 1 0 0 0 0 1 0 0 0 0 1</bind_shape_matrix>
                <source id="pflag07_0-joints">
                    <Name_array id="pflag07_0-joints-array" count="7">flag:joint64 flag:joint65 flag:joint66 flag:joint67 flag:joint63 flag:joint61 flag:joint62</Name_array>
                    <technique_common>
                        <accessor count="7" offset="0" source="#pflag07_0-joints-array" stride="1">
                            <param name="JOINT" type="Name" />
                        </accessor>
                    </technique_common>
                </source>
                <source id="pflag07_0-matrices">
                    <float_array id="pflag07_0-matrices-array" count="112">-0.003033324 0.008647074 -0.001950533 -5.917794 0.006927933 0.00102722 -0.006222717 -7.972223 -0.005528978 -0.003457682 -0.006724107 28.19715 1E-06 1E-06 1E-06 1.000001 -0.001837173 0.002251115 -0.0002303004 -5.153548 0.001325928 0.000830483 -0.002459066 -2.519778 -0.001832326 -0.001655605 -0.001544955 10.50227 1E-06 1E-06 1E-06 1.000001 -0.0002624402 0.000844114 0.0002060355 -8.111401 0.0001881556 0.0002654468 -0.0008459487 -1.374322 -0.0008462623 -0.0002027356 -0.0002498382 -0.2725888 1E-06 1E-06 1E-06 1.000001 -8.09597E-05 0.0002633039 6.478924E-05 -8.434712 5.922656E-05 8.327289E-05 -0.0002624969 -0.4275689 -0.0002625944 -6.238482E-05 -7.703907E-05 -0.08480538 1E-06 1E-06 1E-06 1.000001 0.001055162 0.02845187 -0.009808897 -19.81264 0.02404392 -0.006698955 -0.01684673 -16.2886 -0.01809939 -0.007241648 -0.02294933 86.37746 1E-06 1E-06 1E-06 1.000001 0.3111142 1E-06 1E-06 -583.1025 1E-06 -0.1677124 -0.2620364 610.9372 1E-06 0.2620385 -0.1677124 -3.063353 1E-06 1E-06 1E-06 1.000001 0.0742304 0.06128785 0.01012485 -232.6531 0.05441645 -0.05654712 -0.05665448 43.35156 -0.02995777 0.04914169 -0.07782085 136.6455 1E-06 1E-06 1E-06 1.000001</float_array>
                    <technique_common>
                        <accessor count="7" offset="0" source="#pflag07_0-matrices-array" stride="16">
                            <param name="TRANSFORM" type="float4x4" />
                        </accessor>
                    </technique_common>
                </source>
                <source id="pflag07_0-weights">
                    <float_array id="pflag07_0-weights-array" count="235">0.09922286 0.2795824 0.2701152 0.3510796 0.05615105 0.06344916 0.3987488 0.481651 0.04021582 0.07833149 0.2227207 0.658732 0.1079571 0.2234231 0.4189212 0.2496986 0.05351273 0.1394529 0.4038453 0.4031891 0.08017752 0.2002833 0.4916457 0.2278935 0.0195922 0.1082174 0.4368963 0.4352941 0.05452012 0.2354471 0.4726329 0.2373999 0.002071522 0.02489118 0.4899519 0.4830854 0.008464752 0.2088237 0.6290379 0.1536736 0.9795529 0.02044708 0.2418097 0.7581903 0.02933794 0.5433942 0.3892119 0.038056 0.1027155 0.4010611 0.3775082 0.1187152 0.05051726 0.2841283 0.4293889 0.2359655 0.2829738 0.4125477 0.2420691 0.0624094 0.1633832 0.3962719 0.3198901 0.1204547 0.1532648 0.4241213 0.3074998 0.1151141 0.1341145 0.2950455 0.405127 0.165713 0.1223205 0.2585905 0.4422675 0.1768215 0.2375612 0.0493695 0.3226673 0.3904021 0.2641978 0.0714854 0.3757076 0.2886091 0.1143783 0.3342828 0.4000305 0.1513085 0.2375773 0.08092424 0.4831464 0.198352 0.05906149 0.2780103 0.5451896 0.1177386 0.158805 0.07986137 0.5271382 0.2341955 0.01580773 0.2470594 0.6523384 0.08479439 0.07509127 0.6068802 0.2478065 0.07022202 0.006724024 0.2045219 0.7887541 0.8750896 0.1249104 0.1691806 0.1857137 0.5169451 0.1281605 0.2753827 0.1481314 0.5063096 0.07017624 0.4730267 0.2061829 0.2775463 0.04324407 0.5507746 0.1433736 0.2455634 0.0602884 0.7592065 0.1198811 0.09018082 0.03073167 0.7902876 0.1079347 0.05160601 0.05017167 0.979736 0.02026397 0.9822537 0.01774627 0.7599132 0.12923 0.06150912 0.04934768 0.5880043 0.1344341 0.2111391 0.06642252 0.5318465 0.1486143 0.2290837 0.09045548 0.4118772 0.1186332 0.3802701 0.0892195 0.3619781 0.1035289 0.3379263 0.1965667 0.1369468 0.3342213 0.3767605 0.1520714 0.3251584 0.3548447 0.1956512 0.1243458 0.1136141 0.42683 0.3276112 0.1319448 0.1557245 0.3260944 0.3279774 0.1902037 0.3252881 0.3426451 0.1601129 0.1719539 0.1595158 0.365303 0.2223697 0.2528115 0.1290431 0.4831946 0.3389792 0.04878309 0.2247495 0.5743044 0.1938659 0.007080186 0.627512 0.372488 0.04663395 0.5779636 0.3223163 0.05308614 0.2560136 0.5931968 0.1507896 0.7563753 0.2321194 0.0115053 0.3821544 0.1161442 0.458259 0.04344244 0.01485318 0.3134447 0.6112611 0.06044099 0.3063302 0.3334196 0.3370108 0.02323949 0.09872334 0.6904733 0.2108034 0.5404833 0.370282 0.08450446 0.004730297 0.1841341 0.7182235 0.09637598 0.001266499 1 0.9575494 0.04245061 0.7479261 0.1908852 0.05239948 0.008789197</float_array>
                    <technique_common>
                        <accessor count="235" offset="0" source="#pflag07_0-weights-array" stride="1">
                            <param name="WEIGHT" type="float" />
                        </accessor>
                    </technique_common>
                </source>
                <joints>
                    <input semantic="JOINT" source="#pflag07_0-joints" />
                    <input semantic="INV_BIND_MATRIX" source="#pflag07_0-matrices" />
                </joints>
                <vertex_weights count="300">
                    <input semantic="JOINT" source="#pflag07_0-joints" offset="0" set="0" />
                    <input semantic="WEIGHT" source="#pflag07_0-weights" offset="1" set="0" />
                    <vcount>4 4 4 4 4 4 4 4 4 4 4 4 4 4 4 4 4 4 4 4 4 4 4 4 4 2 4 2 2 4 4 4 2 4 4 4 4 4 4 4 4 4 4 4 4 4 4 4 4 4 4 4 4 4 4 4 4 4 4 4 4 4 4 4 4 4 4 4 4 4 4 4 4 4 4 4 4 4 4 3 4 2 3 4 4 4 2 4 4 4 4 4 4 4 4 4 4 4 4 4 4 4 4 2 4 2 2 4 4 4 2 4 4 4 4 4 4 4 4 4 4 4 4 4 4 4 4 4 4 4 4 4 4 4 4 4 4 4 4 4 4 4 4 4 4 4 4 4 4 4 4 4 4 4 4 4 4 4 4 4 4 4 4 4 4 4 4 4 4 4 4 4 4 4 4 4 4 4 4 4 4 4 4 4 4 4 4 4 4 4 4 4 2 4 4 2 2 4 4 4 4 4 4 4 4 4 4 3 4 4 3 2 4 4 4 4 3 4 4 3 3 4 4 3 3 4 4 4 4 4 4 4 4 4 4 4 4 4 4 4 4 4 4 4 4 4 4 4 4 4 4 4 4 4 2 4 4 4 4 3 4 4 3 4 4 4 3 1 4 4 1 2 4 4 4 4 4 4 4 4 4 4 1 4 4 1 1 4 4 4 4 1 4 4 1 1 4 2 1 4</vcount>
                    <v>0 0 1 1 2 2 3 3 0 4 1 5 2 6 3 7 0 8 1 9 2 10 3 11 0 12 1 13 2 14 3 15 0 4 1 5 2 6 3 7 0 0 1 1 2 2 3 3 0 12 1 13 2 14 3 15 0 16 1 17 2 18 3 19 0 4 1 5 2 6 3 7 0 20 1 21 2 22 3 23 0 16 1 17 2 18 3 19 0 12 1 13 2 14 3 15 0 20 1 21 2 22 3 23 0 24 1 25 2 26 3 27 0 16 1 17 2 18 3 19 0 28 1 29 2 30 3 31 0 24 1 25 2 26 3 27 0 20 1 21 2 22 3 23 0 28 1 29 2 30 3 31 0 32 1 33 2 34 3 35 0 24 1 25 2 26 3 27 0 36 1 37 2 38 3 39 0 32 1 33 2 34 3 35 0 28 1 29 2 30 3 31 0 36 1 37 2 38 3 39 2 40 3 41 0 32 1 33 2 34 3 35 1 42 2 43 2 40 3 41 0 36 1 37 2 38 3 39 0 36 1 37 2 38 3 39 0 44 1 45 2 46 3 47 1 42 2 43 0 48 1 49 2 50 3 51 0 44 1 45 2 46 3 47 0 36 1 37 2 38 3 39 0 48 1 49 2 50 3 51 4 52 0 53 1 54 2 55 0 44 1 45 2 46 3 47 0 56 1 57 2 58 3 59 4 52 0 53 1 54 2 55 0 48 1 49 2 50 3 51 0 56 1 57 2 58 3 59 4 60 0 61 1 62 2 63 4 52 0 53 1 54 2 55 4 64 0 65 1 66 2 67 4 60 0 61 1 62 2 63 0 56 1 57 2 58 3 59 4 64 0 65 1 66 2 67 5 68 4 69 0 70 1 71 4 60 0 61 1 62 2 63 5 72 4 73 0 74 1 75 5 68 4 69 0 70 1 71 4 64 0 65 1 66 2 67 5 72 4 73 0 74 1 75 5 76 6 77 4 78 0 79 5 68 4 69 0 70 1 71 5 80 6 81 4 82 0 83 5 68 4 69 0 70 1 71 5 76 6 77 4 78 0 79 5 80 6 81 4 82 0 83 5 84 4 85 0 86 1 87 5 68 4 69 0 70 1 71 5 88 6 89 4 90 0 91 5 84 4 85 0 86 1 87 5 80 6 81 4 82 0 83 5 88 6 89 4 90 0 91 5 92 4 93 0 94 1 95 5 84 4 85 0 86 1 87 5 96 6 97 4 98 0 99 5 92 4 93 0 94 1 95 5 88 6 89 4 90 0 91 5 96 6 97 4 98 0 99 5 100 4 101 0 102 1 103 5 92 4 93 0 94 1 95 6 104 4 105 0 106 1 107 5 100 4 101 0 102 1 103 5 96 6 97 4 98 0 99 6 104 4 105 0 106 1 107 6 108 4 109 0 110 5 100 4 101 0 102 1 103 4 111 0 112 6 108 4 109 0 110 6 104 4 105 0 106 1 107 6 104 4 105 0 106 1 107 5 113 6 114 4 115 0 116 4 111 0 112 5 117 6 118 4 119 0 120 5 113 6 114 4 115 0 116 6 104 4 105 0 106 1 107 5 117 6 118 4 119 0 120 5 121 6 122 4 123 0 124 5 113 6 114 4 115 0 116 5 125 6 126 4 127 0 128 5 121 6 122 4 123 0 124 5 117 6 118 4 119 0 120 5 125 6 126 4 127 0 128 5 129 6 130 4 131 0 132 5 121 6 122 4 123 0 124 5 133 6 134 4 135 0 136 5 129 6 130 4 131 0 132 5 125 6 126 4 127 0 128 5 133 6 134 4 135 0 136 5 137 6 138 5 129 6 130 4 131 0 132 5 139 6 140 5 137 6 138 5 133 6 134 4 135 0 136 5 133 6 134 4 135 0 136 5 141 6 142 4 143 0 144 5 139 6 140 5 145 6 146 4 147 0 148 5 141 6 142 4 143 0 144 5 133 6 134 4 135 0 136 5 145 6 146 4 147 0 148 5 149 6 150 4 151 0 152 5 141 6 142 4 143 0 144 5 153 6 154 4 155 0 156 5 149 6 150 4 151 0 152 5 145 6 146 4 147 0 148 5 153 6 154 4 155 0 156 5 157 6 158 4 159 0 160 5 149 6 150 4 151 0 152 5 80 6 81 4 82 0 83 5 157 6 158 4 159 0 160 5 153 6 154 4 155 0 156 5 80 6 81 4 82 0 83 5 76 6 77 4 78 0 79 5 157 6 158 4 159 0 160 0 28 1 29 2 30 3 31 0 48 1 49 2 50 3 51 0 36 1 37 2 38 3 39 0 161 1 162 2 163 3 164 0 48 1 49 2 50 3 51 0 28 1 29 2 30 3 31 0 161 1 162 2 163 3 164 0 56 1 57 2 58 3 59 0 48 1 49 2 50 3 51 0 165 1 166 2 167 3 168 0 56 1 57 2 58 3 59 0 161 1 162 2 163 3 164 0 165 1 166 2 167 3 168 4 64 0 65 1 66 2 67 0 56 1 57 2 58 3 59 4 169 0 170 1 171 2 172 4 64 0 65 1 66 2 67 0 165 1 166 2 167 3 168 4 169 0 170 1 171 2 172 5 72 4 73 0 74 1 75 4 64 0 65 1 66 2 67 0 20 1 21 2 22 3 23 0 161 1 162 2 163 3 164 0 28 1 29 2 30 3 31 0 173 1 174 2 175 3 176 0 161 1 162 2 163 3 164 0 20 1 21 2 22 3 23 0 173 1 174 2 175 3 176 0 165 1 166 2 167 3 168 0 161 1 162 2 163 3 164 0 177 1 178 2 179 3 180 0 165 1 166 2 167 3 168 0 173 1 174 2 175 3 176 0 177 1 178 2 179 3 180 4 169 0 170 1 171 2 172 0 165 1 166 2 167 3 168 0 12 1 13 2 14 3 15 0 173 1 174 2 175 3 176 0 20 1 21 2 22 3 23 0 181 1 182 2 183 3 184 0 173 1 174 2 175 3 176 0 12 1 13 2 14 3 15 0 181 1 182 2 183 3 184 0 177 1 178 2 179 3 180 0 173 1 174 2 175 3 176 0 181 1 182 2 183 3 184 0 12 1 13 2 14 3 15 0 0 1 1 2 2 3 3 5 84 4 85 0 86 1 87 4 60 0 61 1 62 2 63 5 68 4 69 0 70 1 71 4 185 0 186 1 187 2 188 4 60 0 61 1 62 2 63 5 84 4 85 0 86 1 87 4 185 0 186 1 187 2 188 4 52 0 53 1 54 2 55 4 60 0 61 1 62 2 63 0 189 1 190 2 191 3 192 4 52 0 53 1 54 2 55 4 185 0 186 1 187 2 188 0 189 1 190 2 191 3 192 0 44 1 45 2 46 3 47 4 52 0 53 1 54 2 55 1 193 2 194 0 44 1 45 2 46 3 47 0 189 1 190 2 191 3 192 1 193 2 194 1 42 2 43 0 44 1 45 2 46 3 47 5 92 4 93 0 94 1 95 4 185 0 186 1 187 2 188 5 84 4 85 0 86 1 87 4 195 0 196 1 197 2 198 4 185 0 186 1 187 2 188 5 92 4 93 0 94 1 95 4 195 0 196 1 197 2 198 0 189 1 190 2 191 3 192 4 185 0 186 1 187 2 188 0 199 1 200 2 201 0 189 1 190 2 191 3 192 4 195 0 196 1 197 2 198 0 199 1 200 2 201 1 193 2 194 0 189 1 190 2 191 3 192 5 100 4 101 0 102 1 103 4 195 0 196 1 197 2 198 5 92 4 93 0 94 1 95 0 202 1 203 2 204 4 195 0 196 1 197 2 198 5 100 4 101 0 102 1 103 0 202 1 203 2 204 0 199 1 200 2 201 4 195 0 196 1 197 2 198 5 100 4 101 0 102 1 103 6 108 4 109 0 110 0 202 1 203 2 204 5 153 6 154 4 155 0 156 5 88 6 89 4 90 0 91 5 80 6 81 4 82 0 83 5 205 6 206 4 207 0 208 5 88 6 89 4 90 0 91 5 153 6 154 4 155 0 156 5 205 6 206 4 207 0 208 5 96 6 97 4 98 0 99 5 88 6 89 4 90 0 91 5 117 6 118 4 119 0 120 5 96 6 97 4 98 0 99 5 205 6 206 4 207 0 208 5 117 6 118 4 119 0 120 6 104 4 105 0 106 1 107 5 96 6 97 4 98 0 99 5 145 6 146 4 147 0 148 5 205 6 206 4 207 0 208 5 153 6 154 4 155 0 156 5 125 6 126 4 127 0 128 5 205 6 206 4 207 0 208 5 145 6 146 4 147 0 148 5 125 6 126 4 127 0 128 5 117 6 118 4 119 0 120 5 205 6 206 4 207 0 208 5 133 6 134 4 135 0 136 5 125 6 126 4 127 0 128 5 145 6 146 4 147 0 148 5 113 6 114 4 115 0 116 5 209 6 210 4 211 0 212 4 111 0 112 5 213 6 214 4 215 0 216 5 209 6 210 4 211 0 212 5 113 6 114 4 115 0 116 5 213 6 214 4 215 0 216 5 217 6 218 4 219 5 209 6 210 4 211 0 212 5 220 6 221 4 222 0 223 5 217 6 218 4 219 5 213 6 214 4 215 0 216 5 220 6 221 4 222 0 223 5 224 6 225 4 226 0 227 5 217 6 218 4 219 5 228 5 224 6 225 4 226 0 227 5 220 6 221 4 222 0 223 5 228 5 229 6 230 5 224 6 225 4 226 0 227 5 121 6 122 4 123 0 124 5 213 6 214 4 215 0 216 5 113 6 114 4 115 0 116 5 231 6 232 4 233 0 234 5 213 6 214 4 215 0 216 5 121 6 122 4 123 0 124 5 231 6 232 4 233 0 234 5 220 6 221 4 222 0 223 5 213 6 214 4 215 0 216 5 228 5 220 6 221 4 222 0 223 5 231 6 232 4 233 0 234 5 228 5 228 5 220 6 221 4 222 0 223 5 129 6 130 4 131 0 132 5 231 6 232 4 233 0 234 5 121 6 122 4 123 0 124 5 228 5 231 6 232 4 233 0 234 5 129 6 130 4 131 0 132 5 228 5 228 5 231 6 232 4 233 0 234 5 137 6 138 5 228 5 129 6 130 4 131 0 132</v>
                </vertex_weights>
            </skin>
        </controller>
    </library_controllers>
    <library_visual_scenes>
        <visual_scene id="Scene" name="Scene">
            <node id="group1" sid="group1" name="group1" type="JOINT">
                <matrix sid="transform">1 0 0 0 0 1 0 0 0 0 1 0 0 0 0 1</matrix>
                <node id="flag_ll" sid="flag_ll" name="flag_ll" type="JOINT">
                    <matrix sid="transform">1 0 0 1436.99 0 1 0 724.8008 0 0 1 1543.408 0 0 0 1</matrix>
                    <node id="pflag07" sid="pflag07" name="pflag07" type="JOINT">
                        <matrix sid="transform">1 0 0 -1435.964 0 1 0 -722.5383 0 0 1 -1542.83 0 0 0 1</matrix>
                    </node>
                    <node id="flag:joint61" sid="flag:joint61" name="flag:joint61" type="JOINT">
                        <matrix sid="transform">3.214265 0 0 437.256 0 -1.73273 2.707239 342.0817 0 -2.707239 -1.73273 105.2371 0 0 0 1</matrix>
                        <node id="flag:joint62" sid="flag:joint62" name="flag:joint62" type="JOINT">
                            <matrix sid="transform">2.465022 1.807038 -0.9948757 48 -1.380301 2.596951 1.296962 7.21645E-16 1.532949 -0.567412 2.7676 7.888609E-31 0 0 0 1</matrix>
                            <node id="flag:joint63" sid="flag:joint63" name="flag:joint63" type="JOINT">
                                <matrix sid="transform">1.899653 1.327208 -2.227406 19 -1.098036 2.913211 0.7993833 1.065814E-14 2.348858 0.2884705 2.17512 -2.021427E-15 0 0 0 1</matrix>
                                <node id="flag:joint64" sid="flag:joint64" name="flag:joint64" type="JOINT">
                                    <matrix sid="transform">2.984316 1.111459 -0.4359044 19 -1.116591 3.01382 0.04009266 0 0.4225846 0.1142028 3.184317 -2.093621E-15 0 0 0 1</matrix>
                                    <node id="flag:joint65" sid="flag:joint65" name="flag:joint65" type="JOINT">
                                        <matrix sid="transform">2.999702 0.9360843 -0.6760404 19 -1.057542 2.982752 -0.5623968 0 0.4635618 0.7472826 3.09163 -2.093621E-15 0 0 0 1</matrix>
                                        <node id="flag:joint66" sid="flag:joint66" name="flag:joint66" type="JOINT">
                                            <matrix sid="transform">2.838356 0.5435016 1.407067 19 -0.187395 3.102187 -0.8202522 0 -1.496701 0.6422902 2.771073 -2.238009E-15 0 0 0 1</matrix>
                                            <node id="flag:joint67" sid="flag:joint67" name="flag:joint67" type="JOINT">
                                                <matrix sid="transform">3.214265 0 0 19 0 3.214265 0 0 0 0 3.214265 -1.914125E-15 0 0 0 1</matrix>
                                            </node>
                                        </node>
                                    </node>
                                </node>
                            </node>
                        </node>
                    </node>
                </node>
            </node>
            <node id="pflag07_0" sid="pflag07_0" name="pflag07_0">
                <instance_controller url="#pflag07_0-controller">
                    <skeleton>#group1</skeleton>
                    <bind_material>
                        <technique_common>
                            <instance_material target="#flag_l" symbol="flag_l" />
                        </technique_common>
                    </bind_material>
                </instance_controller>
            </node>
        </visual_scene>
    </library_visual_scenes>
    <scene>
        <instance_visual_scene url="#Scene" />
    </scene>
</COLLADA>