mtllib group1.mtl
v -34010.43 -7064.667 68142.32
vt 0.8999999 0.1721698
vn -0.001318899 -0.0007692802 -0.001144866
v -24936.5 1380.92 76779.03
vt 0.9999999 0.3033019
vn -0.0008041578 -0.0002542191 -0.0005450085
v -34414.31 -11106.11 114031
vt 0.9999999 0.1721698
vn -0.0006086921 -0.0001414462 -0.0004053995
v -24757.58 223.5454 47711.92
vt 0.8999999 0.3033019
vn -0.001382009 -0.0007633651 -0.001160578
v -18886.13 8623.354 51267.78
vt 0.9999999 0.4344339
vn -0.0009267949 -0.0003926213 -0.0006510473
v -20779.77 4774.474 35345.55
vt 0.8999999 0.4344339
vn -0.001245795 -0.0006494871 -0.0009576177
v -15506.43 14329.52 36833.04
vt 0.9999999 0.5655661
vn -0.0007125844 -0.0002218685 -0.000380882
v -18228.47 8652.511 23080.84
vt 0.8999999 0.5655661
vn -0.001153047 -0.0006126316 -0.0008340548
v -11665.9 21022.35 20579.94
vt 0.9999999 0.6966981
vn -0.0005118005 -2.150505E-05 -0.0001444949
v -12056.43 13822.56 10380.88
vt 0.8999999 0.6966981
vn -0.000975207 -0.0004630633 -0.0005277424
v -7076.125 28747.41 3415.313
vt 0.9999999 0.8278302
vn -0.0008316141 -0.0001942064 -0.000244405
v -4058.304 17287.15 869.586
vt 0.8999999 0.8278302
vn -0.001085702 -0.0005550534 -0.0005640099
v -6046.133 7143.307 5303.807
vt 0.7999998 0.6966981
vn -0.00149134 -0.001070974 -0.001132565
v -14037.57 3768.524 14182.78
vt 0.7999998 0.5655661
vn -0.001632869 -0.001065432 -0.001397916
v -1731.714 1928.921 6976.409
vt 0.6999998 0.5655661
vn -0.003472739 -0.00210799 -0.003793186
v -10789.61 -1054.63 14435.95
vt 0.6999998 0.4344339
vn -0.002531384 -0.001695093 -0.002597548
v -869.9519 -117.5811 7136.688
vt 0.5999998 0.4344339
vn -0.005837193 -0.003108378 -0.006939419
v -1918.993 -634.2479 9243.71
vt 0.5999998 0.3033019
vn -0.005780812 -0.003109802 -0.006873994
v -29.16898 1447.498 4385.673
vt 0.4999999 0.3033019
vn -0.007884585 0.0313304 -0.0322449
v -811.8212 1217.118 5392.804
vt 0.4999999 0.1721698
vn -0.007450488 0.02835707 -0.02969717
v 361.8184 1547.571 3123.938
vt 0.3999999 0.1721698
vn -0.009478366 0.06098872 -0.05371502
v 968.1505 1594.127 2589.747
vt 0.3999999 0.3033019
vn -0.01053807 0.06902324 -0.06043618
v 623.3225 1697.162 3498.17
vt 0.4999999 0.4344339
vn -0.008540204 0.02591606 -0.02977883
v 1406.612 1655.603 2201.152
vt 0.3999999 0.4344339
vn -0.01226641 0.06204553 -0.05856488
v 1070.706 2052.811 2714.897
vt 0.4999999 0.5655661
vn -0.008262833 0.01138211 -0.02013431
v 1640.662 1692.213 2016.136
vt 0.3999999 0.5655661
vn -0.01322905 0.04090941 -0.04652166
v 1630.612 2353.138 1932.136
vt 0.4999999 0.6966981
vn -0.008234742 -4.384998E-05 -0.0128394
v 2139.702 1531.146 1908.56
vt 0.3999999 0.6966981
vn -0.01473351 -0.001678799 -0.02154692
v 2129.073 2638.455 1228.446
vt 0.4999999 0.8278302
vn -0.00826516 -0.003878907 -0.01052157
v 2290.27 1795.564 1446.107
vt 0.3999999 0.8278302
vn -0.01653021 -0.006769992 -0.02092363
v 2045.333 1340.793 1801.448
vt 0.2999998 0.6966981
vn -0.01562938 0.04927044 -0.0555524
v 1842.053 1382.149 1913.614
vt 0.2999998 0.5655661
vn -0.01399031 0.07553012 -0.06980514
v 1917.103 1145.958 1866.745
vt 0.1999999 0.5655661
vn -0.01143982 0.1319229 -0.102039
v 1779.114 1122.608 1968.823
vt 0.1999999 0.4344339
vn -0.009073483 0.149382 -0.1095711
v 1879.427 1036.214 1822.836
vt 0.09999985 0.4344339
vn -0.005393743 0.2040721 -0.1389348
v 1801.063 991.5443 1892.505
vt 0.09999985 0.3033019
vn -0.004445128 0.2118416 -0.1424633
v 1911.271 1069.185 1656.039
vt -1.192093E-07 0.3033019
vn -0.0006070837 0.2577233 -0.1658918
v 1880.632 1069.654 1656.492
vt -1.192093E-07 0.1721698
vn -0.0005316565 0.2582593 -0.1661182
v 1712.832 1006.308 1953.534
vt 0.09999985 0.1721698
vn -0.005257803 0.20486 -0.1392481
v 1658.926 1116.2 2053.523
vt 0.1999999 0.3033019
vn -0.008216493 0.1589264 -0.1143705
v 1454.346 1104.914 2244.934
vt 0.1999999 0.1721698
vn -0.009099022 0.1446947 -0.1066291
v 1487.393 1349.49 2179.759
vt 0.2999998 0.3033019
vn -0.01093052 0.1106942 -0.08763691
v 1032.642 1257.468 2627.669
vt 0.2999998 0.1721698
vn -0.0103052 0.09681195 -0.07784283
v -19068.76 225.5466 24627.33
vt 0.7999998 0.4344339
vn -0.001701728 -0.001064198 -0.001522478
v -20084.98 -4406.17 23663.44
vt 0.6999998 0.3033019
vn -0.002624623 -0.001719701 -0.002776443
v -3226.574 -1838.874 12458.11
vt 0.5999998 0.1721698
vn -0.005129228 -0.00286874 -0.006017525
v -24897.17 -3625.264 36092.45
vt 0.7999998 0.3033019
vn -0.001752462 -0.00109574 -0.001621527
v -28362.44 -8214.95 34767.55
vt 0.6999998 0.1721698
vn -0.002576767 -0.001680212 -0.002746504
v -33436.38 -8384.114 50136.71
vt 0.7999998 0.1721698
vn -0.001760964 -0.001135868 -0.001677154
v 92.94583 1983.213 4079.68
vt 0.5999998 0.5655661
vn -0.005670576 -0.003177324 -0.006747399
v -1475.91 3579.008 3338.986
vt 0.6999998 0.6966981
vn -0.002460582 -0.001766372 -0.00244749
v -1652.951 9195.49 -338.869
vt 0.7999998 0.8278302
vn -0.001466029 -0.001115428 -0.001063539
v 1021.807 2522.221 2327.352
vt 0.5999998 0.6966981
vn -0.004676106 -0.002881511 -0.005468733
v 679.6711 5041.311 -88.42181
vt 0.6999998 0.8278302
vn -0.002631031 -0.001898883 -0.002676598
v 1867.943 3642.231 831.5731
vt 0.5999998 0.8278302
vn -0.004618037 -0.003002936 -0.005448436
v 1700.394 1394.327 1986.647
vt 0.2999998 0.4344339
vn -0.01201444 0.1023769 -0.08394031
v 2289.987 1371.609 1598.765
vt 0.2999998 0.8278302
vn -0.02078872 0.01465878 -0.04131904
v 2055.597 1170.749 1771.683
vt 0.1999999 0.6966981
vn -0.01621738 0.09413321 -0.0852138
v 2191.424 1171.962 1667.847
vt 0.1999999 0.8278302
vn -0.02450136 0.05827275 -0.07512913
v 2028.856 1094.956 1717.109
vt 0.09999985 0.6966981
vn -0.01264891 0.1591944 -0.1214335
v 2118.127 1084.7 1670.351
vt 0.09999985 0.8278302
vn -0.02326854 0.0828416 -0.08899561
v 2004.292 1064.803 1651.512
vt -1.192093E-07 0.6966981
vn -3.45405E-17 0.2620374 -0.1677134
v 2035.199 1064.282 1651.277
vt -1.192093E-07 0.8278302
vn -0.001271768 0.2529998 -0.1638974
v 1967.923 1087.424 1732.531
vt 0.09999985 0.5655661
vn -0.006715741 0.2049549 -0.141554
v 1973.871 1064.803 1651.512
vt -1.192093E-07 0.5655661
v 1943.45 1064.803 1651.512
vt -1.192093E-07 0.4344339
o pflag07_0
g polygon_0
usemtl flag_l
f 3/3/3 2/2/2 1/1/1
f 1/1/1 2/2/2 4/4/4
f 2/2/2 5/5/5 4/4/4
f 4/4/4 5/5/5 6/6/6
f 5/5/5 7/7/7 6/6/6
f 6/6/6 7/7/7 8/8/8
f 7/7/7 9/9/9 8/8/8
f 8/8/8 9/9/9 10/10/10
f 9/9/9 11/11/11 10/10/10
f 10/10/10 11/11/11 12/12/12
f 12/12/12 13/13/13 10/10/10
f 10/10/10 13/13/13 14/14/14
f 13/13/13 15/15/15 14/14/14
f 14/14/14 15/15/15 16/16/16
f 15/15/15 17/17/17 16/16/16
f 16/16/16 17/17/17 18/18/18
f 17/17/17 19/19/19 18/18/18
f 18/18/18 19/19/19 20/20/20
f 19/19/19 21/21/21 20/20/20
f 21/21/21 19/19/19 22/22/22
f 19/19/19 23/23/23 22/22/22
f 22/22/22 23/23/23 24/24/24
f 23/23/23 25/25/25 24/24/24
f 24/24/24 25/25/25 26/26/26
f 25/25/25 27/27/27 26/26/26
f 26/26/26 27/27/27 28/28/28
f 27/27/27 29/29/29 28/28/28
f 28/28/28 29/29/29 30/30/30
f 30/30/30 31/31/31 28/28/28
f 28/28/28 31/31/31 32/32/32
f 31/31/31 33/33/33 32/32/32
f 32/32/32 33/33/33 34/34/34
f 33/33/33 35/35/35 34/34/34
f 34/34/34 35/35/35 36/36/36
f 35/35/35 37/37/37 36/36/36
f 36/36/36 37/37/37 38/38/38
f 38/38/38 39/39/39 36/36/36
f 36/36/36 39/39/39 40/40/40
f 39/39/39 41/41/41 40/40/40
f 40/40/40 41/41/41 42/42/42
f 41/41/41 43/43/43 42/42/42
f 42/42/42 43/43/43 22/22/22
f 43/43/43 21/21/21 22/22/22
f 10/10/10 14/14/14 8/8/8
f 8/8/8 14/14/14 44/44/44
f 14/14/14 16/16/16 44/44/44
f 44/44/44 16/16/16 45/45/45
f 16/16/16 18/18/18 45/45/45
f 45/45/45 18/18/18 46/46/46
f 18/18/18 20/20/20 46/46/46
f 8/8/8 44/44/44 6/6/6
f 6/6/6 44/44/44 47/47/47
f 44/44/44 45/45/45 47/47/47
f 47/47/47 45/45/45 48/48/48
f 45/45/45 46/46/46 48/48/48
f 6/6/6 47/47/47 4/4/4
f 4/4/4 47/47/47 49/49/49
f 47/47/47 48/48/48 49/49/49
f 1/1/1 4/4/4 49/49/49
f 19/19/19 17/17/17 23/23/23
f 23/23/23 17/17/17 50/50/50
f 17/17/17 15/15/15 50/50/50
f 50/50/50 15/15/15 51/51/51
f 15/15/15 13/13/13 51/51/51
f 51/51/51 13/13/13 52/52/52
f 13/13/13 12/12/12 52/52/52
f 23/23/23 50/50/50 25/25/25
f 25/25/25 50/50/50 53/53/53
f 50/50/50 51/51/51 53/53/53
f 53/53/53 51/51/51 54/54/54
f 51/51/51 52/52/52 54/54/54
f 25/25/25 53/53/53 27/27/27
f 27/27/27 53/53/53 55/55/55
f 53/53/53 54/54/54 55/55/55
f 55/55/55 29/29/29 27/27/27
f 22/22/22 24/24/24 42/42/42
f 42/42/42 24/24/24 56/56/56
f 24/24/24 26/26/26 56/56/56
f 56/56/56 26/26/26 32/32/32
f 26/26/26 28/28/28 32/32/32
f 42/42/42 56/56/56 40/40/40
f 40/40/40 56/56/56 34/34/34
f 56/56/56 32/32/32 34/34/34
f 40/40/40 34/34/34 36/36/36
f 30/30/30 57/57/57 31/31/31
f 31/31/31 57/57/57 58/58/58
f 57/57/57 59/59/59 58/58/58
f 58/58/58 59/59/59 60/60/60
f 59/59/59 61/61/61 60/60/60
f 60/60/60 61/61/61 62/62/62
f 61/61/61 63/63/63 62/62/62
f 31/31/31 58/58/58 33/33/33
f 33/33/33 58/58/58 64/64/64
f 58/58/58 60/60/60 64/64/64
f 64/64/64 60/60/60 65/65/62
f 60/60/60 62/62/62 65/65/62
f 33/33/33 64/64/64 35/35/35
f 35/35/35 64/64/64 66/66/62
f 64/64/64 65/65/62 66/66/62
f 35/35/35 66/66/62 37/37/37
