mtllib wood.mtl
v 2983.477 361.9281 -432.3303
vt 0.001783669 -0.06070817
vn -0.8009567 0.02474305 -0.5982108
v 3039.367 361.9281 -507.163
vt 0.9925487 -0.06070817
v 3039.902 397.8155 -506.395
vt 0.9925484 0.9069645
v 2984.189 397.8155 -431.7987
vt 0.001783311 0.9069645
vn -0.8009561 0.02474286 -0.5982116
v 3095.258 361.9281 -581.9957
v 3095.616 397.8155 -580.9912
vn -0.8009571 0.02474656 -0.59821
v 3151.679 361.9281 -657.5394
v 3151.859 397.8155 -656.2961
vt 0.9925485 0.9069645
vt 0.001243517 0.2302061
vn 0.5982016 0.02474625 -0.8009635
v 3156.412 361.9281 -654.0042
vt 0.06384853 0.2302061
v 3156.574 397.8155 -652.7747
vt 0.06384587 0.6160502
vt 0.001240969 0.6160502
v 3058.244 361.9281 -376.4888
vn -0.5982109 0.02474459 0.8009565
v 2984.009 397.8155 -433.042
v 3058.631 397.8155 -377.3086
vt 0.001783371 0.9069645
v 3133.011 361.9281 -320.6474
vt 0.001783311 -0.06070817
vn -0.5982103 0.02474764 0.8009569
vt 0.9925483 -0.06070817
vt 0.9925487 0.9069645
v 3133.254 397.8155 -321.5752
vt 0.001783609 0.9069645
v 3351.297 361.9281 -157.6163
vn -0.5982111 0.02474246 0.8009565
v 3282.546 361.9282 -208.9646
vn -0.5974517 0.02476133 0.8015225
v 3282.499 397.8155 -210.1085
v 3351.117 397.8155 -158.8595
v 3195.373 361.3013 -273.7954
vn -0.596692 0.02478017 0.8020877
v 3195.47 397.1887 -274.8313
v 3471.77 397.8155 -320.4047
vn -0.8009569 -0.0247483 -0.5982103
v 3472.718 361.9281 -320.189
v 3519.499 361.9281 -382.8254
v 3518.256 397.8155 -382.6452
v 3416.107 397.8155 -245.8764
vn -0.8009561 -0.02474899 -0.5982114
v 3416.701 361.9281 -245.1866
v 3360.444 397.8155 -171.348
vt 0.1709429 0.9069645
vn -0.8009569 -0.02474711 -0.5982103
v 3360.684 361.9281 -170.1842
vt 0.170943 -0.06070817
vn -0.8009536 -0.0247433 -0.5982148
v 3039.902 -430.8655 -506.3949
vn -0.8009567 -0.02474158 -0.5982109
v 3039.367 -394.9781 -507.1629
v 2983.477 -394.9781 -432.3303
v 2984.188 -430.8655 -431.7987
v 3095.616 -430.8655 -580.9911
vn -0.8009549 -0.02474474 -0.5982131
v 3095.258 -394.9781 -581.9957
v 3151.859 -430.8655 -656.2961
vn -0.8009574 -0.02474306 -0.5982099
v 3151.679 -394.9781 -657.5393
v 2984.009 -430.8655 -433.042
vn -0.5982099 -0.02474651 0.8009573
v 2983.477 -394.9782 -432.3303
v 3058.244 -394.9782 -376.4888
v 3058.631 -430.8655 -377.3086
vn -0.5982089 -0.02474967 0.8009579
v 3133.012 -394.9782 -320.6475
v 3133.254 -430.8655 -321.5753
v 3282.499 -430.8655 -210.1085
vn -0.5974509 -0.02475908 0.8015231
v 3282.546 -394.9781 -208.9646
v 3351.298 -394.9781 -157.6163
vn -0.5982094 -0.0247391 0.8009579
v 3351.117 -430.8655 -158.8595
v 3195.471 -430.2386 -274.8312
vn -0.596692 -0.02477904 0.8020877
v 3195.373 -394.3513 -273.7954
o wood_1_0
g polygon_0
usemtl l_s0
f 3/3/1 2/2/1 1/1/1
f 4/4/1 3/3/1 1/1/1
f 6/3/2 5/2/2 2/1/2
f 3/4/2 6/3/2 2/1/2
f 8/5/3 7/2/3 5/1/3
f 6/4/3 8/5/3 5/1/3
f 10/8/4 9/7/4 7/6/4
f 8/9/4 10/8/4 7/6/4
f 12/5/5 1/2/5 11/1/5
f 13/10/5 12/5/5 11/1/5
f 13/13/6 11/12/6 14/11/6
f 15/14/6 13/13/6 14/11/6
f 18/10/8 17/1/8 16/2/7
f 19/13/7 18/10/8 16/2/7
f 21/14/9 20/1/9 17/12/8
f 18/13/8 21/14/9 17/12/8
f 24/2/10 23/11/10 22/14/10
f 25/5/10 24/2/10 22/14/10
f 23/12/11 27/1/11 26/14/11
f 22/13/11 23/12/11 26/14/11
f 27/12/12 29/16/12 28/15/12
f 26/5/12 27/12/12 28/15/12
f 29/16/13 16/1/13 19/10/13
f 28/15/13 29/16/13 19/10/13
f 32/1/14 31/2/14 30/3/14
f 33/4/14 32/1/14 30/3/14
f 31/1/15 35/2/15 34/3/15
f 30/4/15 31/1/15 34/3/15
f 35/1/16 37/2/16 36/5/16
f 34/4/16 35/1/16 36/5/16
f 40/1/17 39/2/17 38/5/17
f 41/10/17 40/1/17 38/5/17
f 42/11/18 40/12/18 41/13/18
f 43/14/18 42/11/18 41/13/18
f 46/2/20 45/1/19 44/10/19
f 47/13/20 46/2/20 44/10/19
f 45/12/19 49/1/21 48/14/21
f 44/13/19 45/12/19 48/14/21
v 3525.971 414.451 -375.634
vt 1 0.9859543
vn 0.6596957 0.01478015 -0.7513875
v 3518.188 414.451 -382.4675
vt 0 0.9859543
v 3518.115 361.2167 -383.578
vt 0 -1.192093E-07
v 3527.082 361.2167 -375.7062
vt 1 -1.192093E-07
v 3363.373 414.4509 -160.0746
vn 0.6596944 0.01477875 -0.7513886
v 3355.59 414.4509 -166.9081
v 3355.517 361.2167 -168.0186
v 3364.483 361.2167 -160.1468
v 3205.564 415.2676 -277.342
vt -7.450581E-09 0.9859543
vn 0.6596607 0.01806768 -0.7513463
v 3195.543 415.2676 -286.1406
v 3195.45 359.2011 -287.5704
v 3206.994 359.2011 -277.4349
vt -7.537153E-09 -1.192093E-07
v 3138.407 415.2682 -326.0555
vn 0.5645905 0.01792041 -0.8251766
v 3127.401 415.2651 -333.5861
v 3127.143 359.1982 -334.9802
v 3139.821 359.2018 -326.3055
v 2994.94 414.451 -436.6936
vn 0.6596942 0.01477893 -0.7513888
v 2987.156 414.451 -443.5271
v 2987.084 361.2167 -444.6376
v 2996.05 361.2167 -436.7657
v 3153.897 414.451 -654.786
vn 0.659696 0.01477898 -0.7513872
v 3146.114 414.451 -661.6195
v 3146.042 361.2167 -662.73
v 3155.008 361.2167 -654.8582
v 3069.68 204.1128 -566.785
vt 0 1
vn 0.4016208 0.7382739 -0.5418969
v 3077.501 204.1128 -560.9886
vt 1 1
v 2984.672 346.5488 -435.7359
vt 1 0
v 2976.851 346.5488 -441.5323
vt 0 0
v 3445.91 204.1128 -287.9481
vn 0.4016242 0.7382705 -0.5418992
v 3453.731 204.1128 -282.1517
v 3360.902 346.5488 -156.899
v 3353.081 346.5488 -162.6954
v 3519.137 414.451 -367.8507
vt 0.9929774 0.9929774
vn 0 1 1.544195E-06
v 3511.354 414.451 -374.6841
vt 0.007023096 0.9929774
vt 0.007023096 -0.007023096
vt 0.9929774 -0.007023096
v 3147.064 414.451 -647.0026
vt 0.007023061 0.9929774
vn 0 1 1.544199E-06
v 3139.281 414.451 -653.8361
v 3146.114 414.451 -661.6194
v 3153.897 414.451 -654.7859
v 2988.106 414.451 -428.9103
vn 0 1 1.544196E-06
v 2980.323 414.451 -435.7437
v 3130.876 415.27 -315.0493
vn -0.0001064598 0.9999999 -0.0002507066
v 3119.87 415.267 -322.5797
v 3127.401 415.265 -333.5861
v 3138.407 415.2681 -326.0556
v 3196.766 415.2675 -267.3204
vn 0 1 1.30632E-06
v 3186.744 415.2675 -276.1189
v 3195.543 415.2675 -286.1406
v 3205.564 415.2675 -277.342
v 3356.54 414.451 -152.2913
vn 0 1 1.544184E-06
v 3348.756 414.451 -159.1248
v 3355.59 414.451 -166.9082
v 3363.373 414.451 -160.0747
vn 0.751353 0.01806623 0.6596531
v 3196.859 359.2011 -265.8906
vt -7.537153E-09 0.9859543
vn 0.8251726 0.01829777 0.5645842
v 3139.821 359.2017 -326.3055
v 3131.146 359.204 -313.6269
v 3130.876 415.2701 -315.0493
vn -0.7513894 0.01478454 -0.6596933
v 3138.17 361.2167 -653.764
vn -0.7513894 0.01478438 -0.6596934
v 2979.212 361.2167 -435.6716
vn -0.8251771 0.01783487 -0.5645925
v 3118.468 359.2004 -322.3016
v 3127.143 359.1982 -334.9803
vn -0.7513539 0.01806728 -0.6596522
v 3185.314 359.2011 -276.0261
vn -0.75139 0.01478441 -0.6596927
v 3347.646 361.2167 -159.0527
v 3355.518 361.2167 -168.0186
vn -0.7513897 0.01478012 -0.6596931
v 3510.244 361.2167 -374.612
vn 0.751389 0.01478327 0.6596938
v 3364.484 361.2167 -160.1468
v 3356.612 361.2167 -151.1808
vn 0.7513888 0.01478134 0.6596942
v 3519.21 361.2167 -366.7402
vn 0.7513872 0.01477855 0.6596961
v 3147.136 361.2167 -645.8922
v 3147.064 414.451 -647.0027
vn 0.75139 0.01478137 0.6596928
v 2988.178 361.2167 -427.7998
v 2988.106 414.451 -428.9102
v 2980.762 339.3618 -430.4606
vn 0.8034023 -6.508502E-06 0.5954366
v 3073.592 196.9259 -555.7133
vn -0.8034022 6.315106E-06 -0.5954367
v 2972.942 339.3618 -436.257
v 3065.771 196.9259 -561.5097
vn -0.8034028 1.291365E-05 -0.5954359
v 3349.172 339.3618 -157.4201
v 3442 196.9259 -282.6728
v 3356.992 339.3618 -151.6237
vn 0.8034022 -9.999637E-06 0.5954367
v 3449.822 196.9259 -276.8764
v 3348.756 414.4509 -159.1248
vn -0.6596928 0.01477935 0.75139
v 3356.539 414.4509 -152.2913
v 3511.354 414.451 -374.6842
vn -0.6596949 0.0147777 0.7513882
v 3510.244 361.2167 -374.6121
v 3186.744 415.2676 -276.1189
vn -0.6596599 0.01806461 0.7513471
v 3196.766 415.2676 -267.3204
vn -0.5645935 0.01821436 0.8251681
v 3118.468 359.2005 -322.3016
vn -0.6596937 0.01477952 0.7513893
v 2988.178 361.2167 -427.7997
v 2979.212 361.2167 -435.6715
v 3139.281 414.4509 -653.8361
vn -0.6596919 0.01477921 0.7513909
v 3147.064 414.4509 -647.0027
v 3147.136 361.2166 -645.8922
v 3138.17 361.2166 -653.764
v 2972.941 339.3618 -436.257
vn -0.4016217 -0.7382723 0.5418984
v 3073.591 196.9258 -555.7133
v 3065.77 196.9258 -561.5097
vt 0.3333333 0
v 3349.172 339.3618 -157.4202
vn -0.4016192 -0.7382761 0.5418952
v 3356.992 339.3618 -151.6238
v 3449.822 196.9258 -276.8764
v 3442 196.9258 -282.6728
v 3138.17 -394.2667 -653.7641
vn -0.7513906 -0.01478243 -0.6596922
v 3139.281 -447.501 -653.8362
v 3146.114 -447.501 -661.6196
v 3146.042 -394.2667 -662.73
v 2979.212 -394.2668 -435.6717
vn -0.75139 -0.01478224 -0.6596928
v 2980.323 -447.5011 -435.7438
v 2987.156 -447.5011 -443.5272
v 2987.084 -394.2668 -444.6376
v 3118.468 -392.2504 -322.3016
vn -0.8251772 -0.01783852 -0.5645922
v 3119.87 -448.317 -322.5797
v 3127.401 -448.315 -333.5861
v 3127.143 -392.2482 -334.9802
v 3185.314 -392.2511 -276.0261
vn -0.7513536 -0.01806878 -0.6596524
v 3186.744 -448.3175 -276.1189
v 3195.542 -448.3175 -286.1406
v 3195.449 -392.2511 -287.5704
v 3347.646 -394.2667 -159.0526
vn -0.7513905 -0.01478238 -0.6596922
v 3348.756 -447.5009 -159.1247
v 3355.59 -447.5009 -166.9081
v 3355.517 -394.2667 -168.0186
v 3510.243 -394.2667 -374.612
vn -0.7513902 -0.01478159 -0.6596925
v 3511.354 -447.5009 -374.6841
v 3518.187 -447.5009 -382.4675
v 3518.115 -394.2667 -383.5779
v 3065.771 -229.9759 -561.5097
vn -0.803402 1.182928E-06 -0.5954369
v 2972.942 -372.4119 -436.257
v 2976.851 -379.5988 -441.5323
v 3069.68 -237.1628 -566.785
v 3442 -229.9759 -282.6728
vn -0.8034028 -9.292151E-06 -0.5954358
v 3349.172 -372.4119 -157.4202
v 3353.081 -379.5988 -162.6954
v 3445.91 -237.1628 -287.9481
v 3356.612 -394.2667 -151.1808
vn -0.6596931 -0.01478076 0.7513898
v 3356.539 -447.5009 -152.2913
v 3348.756 -447.5009 -159.1248
v 3347.646 -394.2667 -159.0527
v 3519.21 -394.2667 -366.7402
vn -0.6596943 -0.01477847 0.7513887
v 3519.137 -447.501 -367.8507
v 3511.354 -447.501 -374.6841
v 3510.244 -394.2667 -374.612
v 3196.859 -392.2511 -265.8906
vn -0.6596602 -0.01806502 0.7513469
v 3196.766 -448.3176 -267.3204
v 3186.744 -448.3176 -276.1189
v 3131.146 -392.254 -313.6269
vn -0.5645939 -0.018216 0.8251678
v 3130.876 -448.3201 -315.0493
v 3118.468 -392.2505 -322.3016
v 2988.178 -394.2667 -427.7997
vn -0.6596933 -0.01477863 0.7513896
v 2988.106 -447.5009 -428.9101
v 2980.323 -447.5009 -435.7436
v 2979.212 -394.2667 -435.6715
v 3147.136 -394.2667 -645.8922
vn -0.6596929 -0.01478067 0.7513899
v 3147.064 -447.5009 -647.0027
v 3139.281 -447.5009 -653.8361
v 3138.17 -394.2667 -653.764
v 3073.592 -229.9758 -555.7133
vn -0.4016268 0.7382653 0.5419042
v 2980.762 -372.4118 -430.4606
v 2972.942 -372.4118 -436.257
v 3065.771 -229.9758 -561.5097
v 3449.822 -229.9759 -276.8764
vn -0.4016217 0.7382724 0.5418983
v 3356.992 -372.4119 -151.6238
o wood_1_1
g polygon_0
usemtl su_s0
f 52/19/22 51/18/22 50/17/22
f 53/20/22 52/19/22 50/17/22
f 56/19/23 55/18/23 54/17/23
f 57/20/23 56/19/23 54/17/23
f 60/20/24 59/17/24 58/21/24
f 61/22/24 60/20/24 58/21/24
f 64/19/25 63/18/25 62/17/25
f 65/20/25 64/19/25 62/17/25
f 68/20/26 67/17/26 66/21/26
f 69/22/26 68/20/26 66/21/26
f 72/20/27 71/17/27 70/21/27
f 73/22/27 72/20/27 70/21/27
f 76/25/28 75/24/28 74/23/28
f 77/26/28 76/25/28 74/23/28
f 80/25/29 79/24/29 78/23/29
f 81/26/29 80/25/29 78/23/29
f 51/29/30 83/28/30 82/27/30
f 50/30/30 51/29/30 82/27/30
f 86/30/31 85/27/31 84/31/31
f 87/29/31 86/30/31 84/31/31
f 67/30/32 89/27/32 88/31/32
f 66/29/32 67/30/32 88/31/32
f 92/29/33 91/28/33 90/27/33
f 93/30/33 92/29/33 90/27/33
f 96/30/34 95/27/34 94/31/34
f 97/29/34 96/30/34 94/31/34
f 100/29/35 99/28/35 98/27/35
f 101/30/35 100/29/35 98/27/35
f 102/22/36 61/20/36 97/17/36
f 94/32/36 102/22/36 97/17/36
f 104/20/37 103/19/37 93/18/37
f 105/17/37 104/20/37 93/18/37
f 106/32/38 85/22/38 71/20/38
f 72/17/38 106/32/38 71/20/38
f 107/32/39 89/22/39 67/20/39
f 68/17/39 107/32/39 67/20/39
f 108/17/40 91/20/40 92/19/40
f 109/18/40 108/17/40 92/19/40
f 110/32/41 95/22/41 96/20/41
f 60/17/41 110/32/41 96/20/41
f 111/17/42 99/20/42 100/19/42
f 112/18/42 111/17/42 100/19/42
f 113/17/43 83/20/43 51/19/43
f 52/18/43 113/17/43 51/19/43
f 115/20/44 114/19/44 101/18/44
f 98/17/44 115/20/44 101/18/44
f 116/20/45 53/19/45 50/18/45
f 82/17/45 116/20/45 50/18/45
f 117/22/46 73/20/46 70/17/46
f 118/32/46 117/22/46 70/17/46
f 119/22/47 69/20/47 66/17/47
f 120/32/47 119/22/47 66/17/47
f 75/25/48 76/24/48 121/23/48
f 122/26/48 75/25/48 121/23/48
f 124/26/49 123/23/49 77/24/49
f 74/25/49 124/26/49 77/24/49
f 126/26/50 125/23/50 81/24/50
f 78/25/50 126/26/50 81/24/50
f 79/25/51 80/24/51 127/23/51
f 128/26/51 79/25/51 127/23/51
f 115/19/52 130/18/52 129/17/52
f 111/20/52 115/19/52 129/17/52
f 116/19/53 82/18/53 131/17/53
f 132/20/53 116/19/53 131/17/53
f 102/20/54 134/17/54 133/21/54
f 110/22/54 102/20/54 133/21/54
f 104/19/55 105/18/55 91/17/55
f 135/20/55 104/19/55 91/17/55
f 136/20/56 120/17/56 89/21/56
f 137/22/56 136/20/56 89/21/56
f 140/20/57 139/17/57 138/21/57
f 141/22/57 140/20/57 138/21/57
f 143/25/58 121/24/58 142/23/58
f 144/33/58 143/25/58 142/23/58
f 147/25/59 146/24/59 145/23/59
f 148/26/59 147/25/59 145/23/59
f 151/20/60 150/22/60 149/32/60
f 152/17/60 151/20/60 149/32/60
f 155/20/61 154/22/61 153/32/61
f 156/17/61 155/20/61 153/32/61
f 159/19/62 158/20/62 157/17/62
f 160/18/62 159/19/62 157/17/62
f 163/20/63 162/22/63 161/32/63
f 164/17/63 163/20/63 161/32/63
f 167/19/64 166/20/64 165/17/64
f 168/18/64 167/19/64 165/17/64
f 171/19/65 170/20/65 169/17/65
f 172/18/65 171/19/65 169/17/65
f 175/24/66 174/23/66 173/26/66
f 176/25/66 175/24/66 173/26/66
f 179/24/67 178/23/67 177/26/67
f 180/25/67 179/24/67 177/26/67
f 183/17/68 182/18/68 181/19/68
f 184/20/68 183/17/68 181/19/68
f 187/17/69 186/18/69 185/19/69
f 188/20/69 187/17/69 185/19/69
f 191/21/70 190/17/70 189/20/70
f 161/22/70 191/21/70 189/20/70
f 158/17/71 193/18/71 192/19/71
f 194/20/71 158/17/71 192/19/71
f 197/21/72 196/17/72 195/20/72
f 198/22/72 197/21/72 195/20/72
f 201/21/73 200/17/73 199/20/73
f 202/22/73 201/21/73 199/20/73
f 205/23/74 204/24/74 203/25/74
f 206/33/74 205/23/74 203/25/74
f 178/23/75 208/24/75 207/25/75
f 177/26/75 178/23/75 207/25/75
v 3145.758 361.9281 -672.3685
vt 0.8096344 0.9577926
vn 0 1 5.057015E-08
v 3535.399 361.9281 -381.3569
vt 0.8096347 0.04164708
v 3357.219 361.9281 -142.7871
vt 0.1914409 0.04164708
v 2967.577 361.9281 -433.7987
vt 0.1914409 0.9577928
v 2967.577 338.8496 -433.7987
vt 0.08488462 0.2167308
vn 0 -1 1.131617E-08
v 3357.219 338.8496 -142.7871
vt 0.9891638 0.2167308
v 3535.399 338.8496 -381.357
vt 0.9891638 0.765151
v 3145.758 338.8496 -672.3685
vt 0.08488462 0.765151
v 3535.399 -371.8996 -381.3569
vn 0 1 3.373282E-08
v 3357.219 -371.8996 -142.7871
v 2967.577 -371.8996 -433.7987
v 3145.758 -371.8996 -672.3685
o wood_1_2
g polygon_0
usemtl th_s10
f 211/36/76 210/35/76 209/34/76
f 212/37/76 211/36/76 209/34/76
f 215/40/77 214/39/77 213/38/77
f 216/41/77 215/40/77 213/38/77
f 219/38/78 218/39/78 217/40/78
f 220/41/78 219/38/78 217/40/78
vt 1.000762 0.0003731847
vn -0.5983937 -1.582686E-06 0.8012022
vt 0.08461677 0.0003737211
vt 0.08461685 0.9990667
vt 1.000763 0.9990633
vt 1.002552 2.086163E-06
vn 0.5983939 1.609213E-06 -0.8012021
v 3535.399 338.8496 -381.3569
vt 0.08640683 -4.649162E-06
vt 0.08640671 0.9994351
vt 1.002552 0.9994444
vt 0.1914409 0.9969307
vn 0.8012022 4.184302E-06 0.5983937
vt 0.8096347 0.9969307
vt 0.8096349 0.001478374
vt 0.1914409 0.001478434
vt 0.8096344 -0.0005530119
vn -0.8012017 -4.454569E-06 -0.5983943
vt 0.1914409 -0.0005528927
vt 0.191441 0.9979613
vt 0.8096344 0.9979613
vn -0.5983936 1.582426E-06 0.8012022
v 3357.219 -394.9781 -142.7871
v 2967.577 -394.9781 -433.7987
v 3535.399 -394.9782 -381.3569
vn 0.5983942 1.609213E-06 -0.8012019
v 3535.399 -371.8997 -381.3569
v 3145.758 -394.9781 -672.3685
vn -0.8012019 2.479505E-08 -0.5983941
o wood_1_3
g polygon_0
usemtl th_s51
f 214/44/79 211/43/79 212/42/79
f 213/45/79 214/44/79 212/42/79
f 210/48/80 221/47/80 216/46/80
f 209/49/80 210/48/80 216/46/80
f 221/52/81 210/51/81 211/50/81
f 214/53/81 221/52/81 211/50/81
f 213/56/82 212/55/82 209/54/82
f 216/57/82 213/56/82 209/54/82
f 223/42/83 222/43/83 218/44/83
f 219/45/83 223/42/83 218/44/83
f 220/46/84 225/47/84 224/48/84
f 226/49/84 220/46/84 224/48/84
f 226/54/85 223/55/85 219/56/85
f 220/57/85 226/54/85 219/56/85
v 2147.257 430.8391 1179.236
vt 0.9925482 0.005649924
vn -0.8482964 -0.008053469 -0.5294605
v 2147.5 466.9819 1178.309
vt 0.9925483 0.9973723
v 2091.686 495.4067 1278.025
vt 0.001783609 0.9973723
vn -0.8809999 -0.01016284 -0.4730073
v 2091.468 459.2639 1278.953
vt 0.001783609 0.005649984
v 2043.806 485.7692 1370.953
vt 0.001783609 0.005650043
vn -0.8882968 -0.01338794 -0.4590746
vt 0.9925482 0.9973723
v 2042.973 526.8036 1370.821
v 2214.531 396.4833 1083.022
vt 0.9925486 0.005649924
vn -0.8208313 -0.009159906 -0.5710972
v 2214.773 432.6261 1082.094
vt 0.001783609 0.005649924
v 2287.93 369.0852 978.0467
vn -0.8221046 -0.009104137 -0.5692638
v 2288.172 405.228 977.1189
vt 0.001243532 0.9973723
v 2361.261 342.9562 871.9733
vn -0.823724 -0.009032679 -0.5669191
v 2361.503 379.0991 871.0455
v 2449.146 318.7447 744.5918
vn -0.8210256 -0.009150825 -0.5708181
v 2449.389 354.8875 743.664
vt 0.9925486 0.9973723
v 2535.701 332.7664 621.191
vn -0.815235 -0.009532331 -0.5790518
v 2535.458 296.6236 622.1188
v 2606.686 282.7482 523.1562
vt 0.9925483 0.005649924
vn -0.8166015 -0.009710198 -0.5771202
v 2606.978 318.891 522.1268
v 2671.198 273.8325 430.57
vn -0.8205684 -0.009525525 -0.5714689
v 2671.49 309.9753 429.5407
vt 0.9925485 0.9973723
v 2860.549 277.3124 164.1789
vn -0.8078107 -0.009713665 -0.5893619
v 2860.792 313.4553 163.2511
v 2796.094 308.8357 254.2394
vn -0.8113952 -0.00956359 -0.5844198
v 2795.852 272.6929 255.1672
v 3044.413 344.4989 -81.98711
vn -0.7912471 -0.01039551 -0.6114081
v 2983.274 329.495 -2.594858
vn -0.7994998 -0.01006001 -0.6005821
v 2983.031 293.3521 -1.667063
v 3044.171 308.356 -81.05932
v 2927.445 320.2328 74.0099
vn -0.8041847 -0.009865948 -0.5942976
v 2927.202 284.09 74.93769
vt 0.9925484 0.005649924
v 3122.766 329.7903 -183.1187
vn -0.793913 -0.009845823 -0.6079516
v 3123.009 365.9331 -184.0465
v 3193.243 353.292 -276.4207
vn -0.7966164 -0.009291855 -0.6044137
v 3193.485 396.3292 -277.3485
vt 0.9925485 0.005649924
vt 0.9925484 0.9973723
v 2741.952 307.7564 328.5305
vn -0.8142025 -0.009562929 -0.5805021
v 2741.709 271.6136 329.4583
vt 0.001243472 0.005649984
v 1961.473 526.8036 1315.263
vn -0.747183 -0.01200904 -0.6645098
v 1962.291 485.7692 1315.055
v 2030.23 458.3129 1239.189
vn -0.7577626 -0.01177796 -0.6524241
v 2030.448 494.4557 1238.262
v 2875.075 319.4962 48.7991
vn -0.8156476 -0.009385132 -0.578473
v 2874.833 283.3534 49.7269
vt 0.001243517 0.005649984
v 2931.438 292.7038 -30.94206
vn -0.8224034 -0.009089962 -0.5688322
v 2931.681 328.8466 -31.86986
v 3057.264 328.6475 -216.3904
vn -0.8265529 -0.008519653 -0.5627946
v 3129.305 353.3758 -322.5692
vn -0.8264745 -0.008136161 -0.5629154
v 3129.547 396.413 -323.497
v 3057.506 364.7903 -217.3182
v 2985.222 307.0555 -110.2115
vn -0.8266776 -0.008901162 -0.5626055
v 2985.464 343.1983 -111.1393
v 2810.357 276.6096 139.9549
vn -0.8182924 -0.009339768 -0.5747263
v 2810.599 312.7524 139.0271
v 2697.134 271.0808 302.9663
vn -0.8149089 -0.009480893 -0.5795115
v 2748.468 272.0751 229.8092
vn -0.8208798 -0.009302471 -0.5710253
v 2748.289 309.0062 229.4632
v 2696.532 308.8002 303.2021
v 2626.806 310.452 399.9382
vn -0.8161271 -0.009606693 -0.5777926
v 2561.603 318.8004 493.5333
vn -0.8209318 -0.009527542 -0.5709468
v 2561.311 282.6577 494.5627
vt 0.001243502 0.005649984
v 2626.966 273.5208 400.3351
v 2404.571 318.2119 718.1
vn -0.8210793 -0.009151073 -0.5707408
v 2489.82 296.3119 597.1356
vn -0.8195744 -0.009332643 -0.5728968
v 2490.062 332.4547 596.2078
v 2404.813 354.3547 717.1722
v 2315.758 382.1534 846.2481
vn -0.8237665 -0.009032053 -0.5668572
v 2315.516 346.0106 847.1759
v 2242.686 408.7874 951.9291
vn -0.8220942 -0.009104082 -0.5692787
v 2242.444 372.6446 952.8569
v 2169.547 436.086 1056.533
vn -0.8207493 -0.009163097 -0.5712151
v 2169.305 399.9431 1057.46
v 2102.924 466.4491 1151.817
vn -0.7952615 -0.01036051 -0.606178
v 2102.682 430.3063 1152.745
vt 0.001243532 0.005649984
v 2030.23 -492.5015 1239.19
vn -0.7577622 0.0117799 -0.6524245
v 1962.291 -519.9576 1315.055
vn -0.7471809 0.01201236 -0.6645122
v 1961.473 -560.9921 1315.263
v 2030.448 -528.6442 1238.262
v 2931.439 -326.8925 -30.94207
vn -0.8224034 0.009091087 -0.5688322
v 2874.833 -317.5421 49.7269
vn -0.8156469 0.009383675 -0.5784739
v 2875.075 -353.6848 48.79911
v 2931.681 -363.0353 -31.86986
v 3129.548 -430.6016 -323.497
vn -0.8264744 0.008137581 -0.5629156
v 3129.305 -387.5644 -322.5692
v 3057.264 -362.8361 -216.3904
vn -0.8265529 0.008521517 -0.5627945
v 3057.506 -398.9789 -217.3182
v 2985.222 -341.2441 -110.2115
vn -0.8266776 0.008903491 -0.5626054
v 2985.465 -377.387 -111.1393
v 2810.357 -310.7982 139.9549
vn -0.8182918 0.009338671 -0.5747272
v 2810.599 -346.941 139.0271
v 2748.289 -343.1948 229.4632
vn -0.8208798 0.009301846 -0.5710253
v 2748.468 -306.2637 229.8092
v 2697.134 -305.2694 302.9663
vn -0.8149089 0.009480651 -0.5795115
v 2696.532 -342.9888 303.2021
v 2561.311 -316.8463 494.5627
vn -0.8209318 0.009526836 -0.5709468
v 2561.603 -352.9891 493.5333
v 2626.806 -344.6406 399.9381
vn -0.8161271 0.0096077 -0.5777925
v 2626.966 -307.7094 400.3351
v 2490.062 -366.6433 596.2077
vn -0.8195744 0.009332269 -0.5728968
v 2489.82 -330.5005 597.1355
v 2404.571 -352.4004 718.1
vn -0.8210794 0.009150834 -0.5707406
v 2404.813 -388.5432 717.1722
v 2315.516 -380.1992 847.176
vn -0.8237672 0.009031988 -0.5668563
v 2315.758 -416.342 846.2482
v 2242.444 -406.8332 952.8571
vn -0.8220946 0.009104064 -0.5692782
v 2242.686 -442.976 951.9293
v 2169.305 -434.1317 1057.46
vn -0.8207487 0.009162131 -0.571216
v 2169.547 -470.2746 1056.533
v 2102.682 -464.4949 1152.745
vn -0.7952617 0.01036066 -0.6061777
v 2102.924 -500.6377 1151.817
o wood_2_0
g polygon_0
usemtl l_s1
f 229/60/87 228/59/86 227/58/86
f 230/61/87 229/60/87 227/58/86
f 229/63/87 230/58/87 231/62/88
f 232/60/88 229/63/87 231/62/88
f 233/64/89 227/62/86 228/60/86
f 234/63/89 233/64/89 228/60/86
f 235/58/90 233/65/89 234/60/89
f 236/63/90 235/58/90 234/60/89
f 237/58/91 235/62/90 236/66/90
f 238/63/91 237/58/91 236/66/90
f 239/58/92 237/65/91 238/60/91
f 240/67/92 239/58/92 238/60/91
f 243/68/94 242/62/93 241/60/93
f 244/59/94 243/68/94 241/60/93
f 244/60/94 246/69/95 245/68/95
f 243/62/94 244/60/94 245/68/95
f 249/60/97 248/69/96 247/64/96
f 250/61/97 249/60/97 247/64/96
f 253/61/99 252/60/99 251/59/98
f 254/64/98 253/61/99 251/59/98
f 256/61/100 255/60/100 252/59/99
f 253/70/99 256/61/100 252/59/99
f 248/60/96 255/59/100 256/64/100
f 247/61/96 248/60/96 256/64/100
f 251/60/98 258/59/101 257/68/101
f 254/61/98 251/60/98 257/68/101
f 259/68/102 257/61/101 258/60/101
f 260/69/102 259/68/102 258/60/101
f 261/60/103 249/72/97 250/71/97
f 262/62/103 261/60/103 250/71/97
f 246/60/95 261/59/103 262/64/103
f 245/62/95 246/60/95 262/64/103
f 242/58/93 239/73/92 240/60/92
f 241/63/93 242/58/93 240/60/92
f 265/64/105 264/61/104 263/60/104
f 266/59/105 265/64/105 263/60/104
f 269/68/107 268/74/106 267/60/106
f 270/72/107 269/68/107 267/60/106
f 273/72/109 272/68/109 271/74/108
f 274/60/108 273/72/109 271/74/108
f 274/72/108 271/68/108 275/74/110
f 276/60/110 274/72/108 275/74/110
f 275/68/110 269/74/107 270/60/107
f 276/72/110 275/68/110 270/60/107
f 267/59/106 268/71/106 277/61/111
f 278/66/111 267/59/106 277/61/111
f 281/59/113 280/71/113 279/61/112
f 282/60/112 281/59/113 279/61/112
f 285/75/115 284/60/115 283/59/114
f 286/71/114 285/75/115 283/59/114
f 289/72/117 288/68/117 287/75/116
f 290/60/116 289/72/117 287/75/116
f 292/61/118 291/60/118 290/59/116
f 287/71/116 292/61/118 290/59/116
f 294/75/119 293/60/119 291/59/118
f 292/71/118 294/75/119 291/59/118
f 296/61/120 295/60/120 293/72/119
f 294/71/119 296/61/120 293/72/119
f 298/61/121 297/60/121 295/69/120
f 296/68/120 298/61/121 295/69/120
f 265/61/105 266/60/105 297/59/121
f 298/71/121 265/61/105 297/59/121
f 278/72/111 277/71/111 280/76/113
f 281/60/113 278/72/111 280/76/113
f 286/61/114 283/60/114 282/59/112
f 279/68/112 286/61/114 282/59/112
f 284/59/115 285/68/115 288/61/117
f 289/60/117 284/59/115 288/61/117
f 301/60/123 300/61/123 299/64/122
f 302/59/122 301/60/123 299/64/122
f 305/60/125 304/74/125 303/68/124
f 306/72/124 305/60/125 303/68/124
f 309/74/127 308/68/126 307/72/126
f 310/60/127 309/74/127 307/72/126
f 311/74/128 309/68/127 310/72/127
f 312/60/128 311/74/128 310/72/127
f 306/60/124 303/74/124 311/68/128
f 312/72/128 306/60/124 311/68/128
f 313/61/129 304/71/125 305/59/125
f 314/66/129 313/61/129 305/59/125
f 317/61/131 316/71/130 315/59/130
f 318/60/131 317/61/131 315/59/130
f 321/59/133 320/60/132 319/75/132
f 322/71/133 321/59/133 319/75/132
f 325/75/135 324/68/134 323/72/134
f 326/60/135 325/75/135 323/72/134
f 326/59/135 328/60/136 327/61/136
f 325/71/135 326/59/135 327/61/136
f 328/59/136 330/60/137 329/75/137
f 327/71/136 328/59/136 329/75/137
f 330/72/137 332/60/138 331/61/138
f 329/71/137 330/72/137 331/61/138
f 332/69/138 334/60/139 333/61/139
f 331/68/138 332/69/138 333/61/139
f 334/59/139 302/60/122 299/61/122
f 333/71/139 334/59/139 299/61/122
f 316/76/130 313/71/129 314/72/129
f 315/60/130 316/76/130 314/72/129
f 318/59/131 321/60/133 322/61/133
f 317/68/131 318/59/131 322/61/133
f 324/61/134 319/68/132 320/59/132
f 323/60/134 324/61/134 320/59/132
v 2671.446 274.7365 427.2693
vt 0.3319348 0.4915857
vn 0.0001566962 0.9997642 -0.02171317
v 2628.055 274.0033 398.8824
vt 0.3319348 0.3158562
v 2696.557 272.0638 304.3894
vt 0.1290033 0.3158562
v 2738.48 272.5966 334.9064
vt 0.1290033 0.4915857
v 3113.958 329.3101 -175.0146
vt 0.6359525 0.4915857
vn -0.1046745 0.9832098 0.1494712
v 3057.003 328.4933 -216.118
vt 0.6359525 0.3158562
v 3129.305 353.3757 -322.5692
vt 0.4102718 0.3158562
v 3201.362 354.3609 -285.1781
vt 0.4113142 0.4915857
v 2209.844 400.6019 1081.019
vt 0.3819962 0.4915857
vn 0.1024999 0.9760082 -0.1920983
v 2165.268 400.0691 1054.527
vt 0.3819962 0.3158562
v 2239.109 371.7108 949.8453
vt 0.1170682 0.3158562
v 2283.685 372.2436 976.3372
vt 0.1170682 0.4915857
v 2921.463 283.8784 83.05527
vt 0.9759216 0.4915857
vn -0.07848372 0.9922525 0.09630881
v 2874.079 283.259 50.56821
vt 0.9826968 0.3158562
v 2931.544 295.7618 -31.16231
vt 0.7762665 0.3158562
v 2980.735 296.4101 1.990202
vt 0.7729912 0.4915857
v 2356.785 347.0547 871.288
vn 0.08523004 0.9838046 -0.1576843
v 2312.209 346.5219 844.7961
v 2405.404 318.0668 716.7089
v 2448.242 318.8891 745.9205
v 2090.082 461.9906 1282.238
vt 0.8464856 0.4915857
vn 0.1339116 0.9655274 -0.2232142
v 2029.006 461.0886 1239.141
vt 0.8464856 0.3158562
v 2102.682 430.3062 1152.745
vt 0.6266025 0.3158562
vt 0.6266025 0.4915857
v 2532.107 297.5588 625.7366
vn 0.04977363 0.9935842 -0.101553
v 2489.146 296.7562 596.7056
v 2560.185 282.7409 494.5215
v 2603.741 283.4468 522.6542
v 2794.963 272.9837 259.5841
vt 0.3387101 0.4915857
vn -0.03473337 0.9989052 0.03133465
v 2750.514 272.422 229.4186
vt 0.3387101 0.3158562
v 2811.981 277.3035 140.7405
vt 0.1629812 0.3158562
v 2857.131 277.894 173.1601
vt 0.1629812 0.4915857
v 3039.118 308.3632 -75.90157
vn -0.1053454 0.9861454 0.1281389
v 2986.176 307.6307 -113.2242
v 3057.003 328.4934 -216.118
v 3113.958 329.3101 -175.0147
vn 0.1200382 0.9677574 -0.2214418
v 2283.686 372.2436 976.3372
vn 0.09059189 0.9808943 -0.1721611
v 2239.11 371.7108 949.8454
v 2312.209 346.522 844.7962
v 2356.785 347.0548 871.2881
v 2448.242 318.8891 745.9206
vt 0.4122533 0.4915857
vn 0.06819501 0.9894184 -0.1280649
v 2405.404 318.0668 716.709
vt 0.4122533 0.3158562
v 2489.146 296.7562 596.7057
vt 0.1201716 0.3158562
v 2532.107 297.5589 625.7368
vt 0.1201716 0.4915857
v 2603.741 283.4469 522.6543
vn 0.02921939 0.9970953 -0.07033657
v 2560.185 282.741 494.5216
v 2628.056 274.0034 398.8824
vn -0.01065438 0.9999391 -0.002870086
v 2696.558 272.0638 304.3895
v 2750.514 272.422 229.4185
v 2794.963 272.9836 259.584
vn -0.03984264 0.998476 0.03818843
v 2811.981 277.3034 140.7404
v 2874.079 283.259 50.56822
v 2921.464 283.8784 83.05527
v 2980.735 296.4102 1.990207
vn -0.07759821 0.992637 0.09300686
v 2042.86 483.0592 1371.353
vn 0.1140322 0.9780361 -0.1744766
v 1965.284 481.788 1311.649
v 2029.006 461.0887 1239.141
v 2090.083 461.9906 1282.239
o wood_2_1
g polygon_0
usemtl th_s11
f 337/79/140 336/78/140 335/77/140
f 338/80/140 337/79/140 335/77/140
f 341/83/141 340/82/141 339/81/141
f 342/84/141 341/83/141 339/81/141
f 345/87/142 344/86/142 343/85/142
f 346/88/142 345/87/142 343/85/142
f 349/91/143 348/90/143 347/89/143
f 350/92/143 349/91/143 347/89/143
f 353/87/144 352/86/144 351/85/144
f 354/88/144 353/87/144 351/85/144
f 357/95/145 356/94/145 355/93/145
f 227/96/145 357/95/145 355/93/145
f 360/79/146 359/78/146 358/77/146
f 361/80/146 360/79/146 358/77/146
f 364/99/147 363/98/147 362/97/147
f 365/100/147 364/99/147 362/97/147
f 368/79/148 367/78/148 366/77/148
f 369/80/148 368/79/148 366/77/148
f 344/79/149 298/78/149 227/77/149
f 343/80/149 344/79/149 227/77/149
f 372/87/150 371/86/150 370/85/150
f 373/88/150 372/87/150 370/85/150
f 376/103/151 375/102/151 374/101/151
f 377/104/151 376/103/151 374/101/151
f 380/79/152 379/78/152 378/77/152
f 335/80/152 380/79/152 378/77/152
f 382/99/153 381/98/153 338/97/153
f 383/100/153 382/99/153 338/97/153
f 385/99/154 384/98/154 365/97/154
f 386/100/154 385/99/154 365/97/154
f 367/99/155 349/98/155 387/97/155
f 366/100/155 367/99/155 387/97/155
f 390/99/156 389/98/156 388/97/156
f 391/100/156 390/99/156 388/97/156
vt 0.1290033 0.9977992
vn -0.8106922 -0.01073234 -0.5853742
vt 0.3319348 0.9977992
vn -0.8128781 -0.01201747 -0.5823099
v 2628.415 261.8338 398.6475
vt 0.3319348 0.002907932
v 2696.892 259.8938 304.142
vt 0.1290033 0.002907932
vt 0.4102718 0.9977992
vn -0.826176 -0.01034766 -0.5633171
vt 0.6359525 0.9977992
vn -0.8243446 -0.01113618 -0.5659788
v 3057.347 316.3234 -216.3526
vt 0.6359525 0.002907932
v 3129.615 341.2057 -322.8467
vt 0.4102718 0.002907932
vt 0.1170682 0.9977992
vn -0.8199115 -0.007868834 -0.5724363
vt 0.3819962 0.9977992
vn -0.8315957 -0.008556487 -0.5553156
v 2165.579 387.8991 1054.249
vt 0.3818623 0.002907932
v 2239.42 359.5408 949.5679
vt 0.1175263 0.002907932
vt 0.7762665 0.9977992
vn -0.8244638 -0.0109546 -0.5658087
vt 0.9826968 0.9977992
vn -0.8202503 -0.0106401 -0.5719058
v 2874.411 271.089 50.31656
vt 0.9826968 0.002907932
v 2931.875 283.5919 -31.4151
vt 0.7762665 0.002907932
vn -0.8154546 -0.01322437 -0.57867
vn -0.8156744 -0.00954151 -0.5784326
v 2312.52 334.352 844.5187
vt 0.3819962 0.002907932
v 2405.785 305.8975 716.4937
vt 0.1170682 0.002907932
vt 0.6266025 0.9977992
vn -0.8051249 -0.007016408 -0.5930638
vt 0.8464856 0.9977992
vn -0.7567408 -0.004394087 -0.6537002
v 2029.368 446.8751 1238.817
vt 0.8464856 0.002907932
v 2102.992 418.1363 1152.467
vt 0.6266025 0.002907932
vn -0.818978 -0.0132126 -0.5736727
v 2489.146 296.7563 596.7057
vn -0.8216097 -0.01459202 -0.5698637
v 2489.522 284.5869 596.4861
v 2560.538 270.5714 494.2808
v 2811.98 277.3034 140.7404
vt 0.1629812 0.9977992
vn -0.822371 -0.01080488 -0.568849
vt 0.3387101 0.9977992
vn -0.8165999 -0.01032452 -0.5771118
v 2750.842 260.252 229.162
vt 0.3387101 0.002907932
v 2812.316 265.1335 140.4944
vt 0.1629812 0.002907932
vn -0.8270488 -0.01176129 -0.5620071
v 2986.515 295.4607 -113.4661
vt 0.1201716 0.9977992
vt 0.4122533 0.9977992
vt 0.4122533 0.002907932
vt 0.1201716 0.002907932
vn -0.7517279 -0.004131989 -0.6594605
v 1965.698 465.5309 1311.278
vn -0.0001576292 -0.9997642 0.02171483
v 2671.805 262.567 427.0344
v 2738.815 260.4266 334.6589
vn 0.1046637 -0.9832137 -0.1494536
v 3114.303 317.1401 -175.2493
v 3201.673 342.1909 -285.4556
v 3129.616 341.2057 -322.8467
vn -0.1025006 -0.976008 0.1920989
v 2210.154 388.4319 1080.741
v 2283.996 360.0736 976.0598
v 2239.42 359.5408 949.568
vn 0.07848322 -0.9922525 -0.09630869
v 2921.795 271.7085 82.8036
v 2981.066 284.2402 1.737413
v 2312.52 334.352 844.5188
vn -0.08524121 -0.9838011 0.1577002
v 2357.095 334.8849 871.0107
v 2448.623 306.7199 745.7054
v 2405.785 305.8976 716.4938
vn -0.1250939 -0.9696846 0.2099126
v 2090.445 447.777 1281.914
v 2147.568 418.6691 1178.959
v 2489.522 284.5869 596.486
vn -0.04977041 -0.9935849 0.101548
v 2532.483 285.3896 625.517
v 2604.094 271.2773 522.4135
v 2560.538 270.5714 494.2807
vn 0.03473357 -0.9989052 -0.03133535
v 2795.291 260.8137 259.3275
v 2857.467 265.724 172.914
v 2812.316 265.1334 140.4944
v 2986.514 295.4607 -113.4661
vn 0.1053468 -0.986145 -0.1281411
v 3039.457 296.1932 -76.1434
v 3114.302 317.1401 -175.2493
vn -0.120038 -0.9677573 0.2214419
v 2147.567 418.6691 1178.959
v 2165.578 387.8991 1054.249
vn -0.09059207 -0.9808944 0.1721603
v 2357.096 334.8848 871.0106
vn -0.06819481 -0.9894185 0.1280645
v 2448.623 306.7198 745.7052
v 2532.484 285.3895 625.517
v 2489.523 284.5869 596.486
vn -0.02922032 -0.9970952 0.07033705
v 2671.805 262.5669 427.0344
vn 0.01065496 -0.9999391 0.002869522
vn 0.03984251 -0.998476 -0.03818788
v 2921.795 271.7084 82.8036
v 2874.411 271.089 50.31655
v 2931.875 283.5919 -31.41511
vn 0.07760052 -0.9926365 -0.09301039
v 2981.066 284.2402 1.737409
v 3039.457 296.1933 -76.14341
vn -0.1023688 -0.9819849 0.1588282
v 2043.275 466.8021 1370.982
v 2090.445 447.7771 1281.914
v 2628.415 -296.0224 398.6475
vn -0.8128777 0.01201585 -0.5823105
v 2628.056 -308.192 398.8825
v 2696.558 -306.2524 304.3895
vn -0.810693 0.01072468 -0.5853733
v 2696.893 -294.0824 304.142
v 3057.347 -350.512 -216.3526
vn -0.8243443 0.01113122 -0.5659793
v 3057.003 -362.682 -216.118
v 3129.305 -387.5643 -322.5692
vn -0.826176 0.01033705 -0.5633172
v 3129.615 -375.3943 -322.8467
v 2165.579 -422.0876 1054.249
vn -0.8315977 0.008555595 -0.5553125
v 2165.268 -434.2576 1054.527
v 2239.109 -405.8993 949.8453
vn -0.8199129 0.007869881 -0.5724342
v 2239.42 -393.7293 949.5678
v 2874.41 -305.2776 50.31655
vn -0.820251 0.01063655 -0.5719048
v 2874.079 -317.4476 50.56821
v 2931.544 -329.9504 -31.16231
vn -0.824464 0.01095428 -0.5658084
v 2931.875 -317.7804 -31.41511
v 2312.52 -368.5405 844.5185
vn -0.8156735 0.009540025 -0.5784338
v 2312.209 -380.7105 844.796
v 2405.404 -352.2555 716.709
vn -0.8154541 0.01322171 -0.5786707
v 2405.785 -340.0862 716.4937
v 2029.368 -481.0637 1238.817
vn -0.7567405 0.00439158 -0.6537007
v 2029.006 -495.2773 1239.141
v 2102.682 -464.4948 1152.745
vn -0.805124 0.007011157 -0.593065
v 2102.992 -452.3249 1152.467
v 2489.522 -318.7755 596.4861
vn -0.8216095 0.01459367 -0.5698639
v 2489.146 -330.9449 596.7057
v 2560.185 -316.9296 494.5216
vn -0.8189772 0.01321831 -0.5736738
v 2560.538 -304.76 494.2808
v 2750.842 -294.4406 229.1621
vn -0.8166004 0.01032288 -0.5771112
v 2750.514 -306.6106 229.4186
v 2811.98 -311.492 140.7404
vn -0.8223717 0.01080681 -0.568848
v 2812.316 -299.3221 140.4944
v 2986.514 -329.6493 -113.4661
vn -0.8270487 0.01176423 -0.5620071
v 2986.176 -341.8192 -113.2242
v 1965.698 -499.7195 1311.278
vn -0.7517296 0.00413149 -0.6594585
v 1965.284 -515.9766 1311.649
v 2738.815 -294.6152 334.6589
vn -0.0001576311 0.9997642 0.02171475
v 2671.805 -296.7556 427.0344
v 2696.892 -294.0824 304.142
v 3201.673 -376.3795 -285.4556
vn 0.1046639 0.9832136 -0.1494539
v 3114.303 -351.3287 -175.2493
v 3129.616 -375.3943 -322.8467
v 2283.996 -394.2622 976.0598
vn -0.1025004 0.9760081 0.1920986
v 2210.154 -422.6205 1080.741
v 2165.579 -422.0877 1054.249
v 2239.42 -393.7294 949.568
v 2981.066 -318.4288 1.737418
vn 0.07848325 0.9922525 -0.09630853
v 2921.795 -305.8971 82.80361
v 2874.411 -305.2777 50.31657
v 2931.875 -317.7805 -31.4151
v 2448.623 -340.9085 745.7054
vn -0.08524138 0.983801 0.1577006
v 2357.095 -369.0735 871.0107
v 2312.52 -368.5406 844.5189
v 2405.785 -340.0862 716.4939
v 2147.568 -452.8576 1178.959
vn -0.1250942 0.9696845 0.2099126
v 2090.445 -481.9656 1281.914
v 2029.368 -481.0636 1238.817
v 2102.992 -452.3248 1152.467
v 2604.094 -305.4659 522.4135
vn -0.04977053 0.9935849 0.101548
v 2532.483 -319.5782 625.517
v 2489.522 -318.7755 596.486
v 2560.538 -304.76 494.2807
v 2857.467 -299.9126 172.914
vn 0.03473372 0.9989052 -0.03133553
v 2795.291 -295.0022 259.3275
v 2750.842 -294.4406 229.162
v 2812.316 -299.322 140.4944
v 3114.302 -351.3287 -175.2493
vn 0.1053469 0.986145 -0.128141
v 3039.456 -330.3818 -76.1434
v 3057.346 -350.512 -216.3526
vn -0.120038 0.9677573 0.221442
v 2147.567 -452.8577 1178.959
v 2165.578 -422.0877 1054.249
v 2357.096 -369.0734 871.0105
vn -0.09059171 0.9808945 0.1721602
v 2283.996 -394.2621 976.0598
v 2239.42 -393.7293 949.5679
v 2312.52 -368.5405 844.5186
v 2532.484 -319.5781 625.517
vn -0.06819475 0.9894185 0.1280643
v 2448.623 -340.9084 745.7052
v 2405.785 -340.0861 716.4937
v 2489.523 -318.7755 596.486
v 2671.805 -296.7555 427.0344
vn -0.02922039 0.9970952 0.07033727
v 2604.094 -305.4658 522.4135
v 2560.538 -304.7599 494.2808
v 2795.291 -295.0023 259.3275
vn 0.01065494 0.9999391 0.002869475
v 2738.816 -294.6152 334.6589
v 2921.795 -305.897 82.8036
vn 0.03984243 0.998476 -0.03818782
v 3039.457 -330.3819 -76.1434
vn 0.07760043 0.9926365 -0.09301046
v 2981.066 -318.4288 1.737409
v 2986.515 -329.6493 -113.4661
v 2090.445 -481.9657 1281.914
vn -0.1023693 0.9819847 0.1588289
v 2043.275 -500.9907 1370.982
v 1965.698 -499.7196 1311.278
v 2029.368 -481.0638 1238.817
o wood_2_2
g polygon_0
usemtl th_s51
f 392/107/158 380/106/158 381/105/157
f 393/108/157 392/107/158 381/105/157
f 394/111/160 368/110/160 272/109/159
f 395/112/159 394/111/160 272/109/159
f 396/115/162 344/114/162 371/113/161
f 397/116/161 396/115/162 371/113/161
f 398/119/164 385/118/164 349/117/163
f 399/120/163 398/119/164 349/117/163
f 400/121/166 352/114/166 375/113/165
f 401/122/165 400/121/166 375/113/165
f 402/125/168 356/124/168 298/123/167
f 403/126/167 402/125/168 298/123/167
f 405/107/170 404/106/170 379/105/169
f 406/108/169 405/107/170 379/105/169
f 408/129/172 363/128/172 407/127/171
f 409/130/171 408/129/172 407/127/171
f 410/107/173 367/106/173 368/105/160
f 394/108/160 410/107/173 368/105/160
f 403/107/167 298/106/167 344/105/162
f 396/108/162 403/107/167 344/105/162
f 397/121/161 371/114/161 352/113/166
f 400/122/166 397/121/161 352/113/166
f 401/133/165 375/132/165 404/131/170
f 405/134/170 401/133/165 404/131/170
f 406/107/169 379/106/169 380/105/158
f 392/108/158 406/107/169 380/105/158
f 393/129/157 381/128/157 363/127/172
f 408/130/172 393/129/157 363/127/172
f 409/129/171 407/128/171 385/127/164
f 398/130/164 409/129/171 385/127/164
f 399/129/163 349/128/163 367/127/173
f 410/130/173 399/129/163 367/127/173
f 411/129/174 389/128/174 356/127/168
f 402/130/168 411/129/174 356/127/168
f 413/107/175 412/106/175 392/105/175
f 393/108/175 413/107/175 392/105/175
f 415/111/176 414/110/176 394/109/176
f 416/112/176 415/111/176 394/109/176
f 418/121/177 417/114/177 396/113/177
f 419/122/177 418/121/177 396/113/177
f 421/119/178 420/118/178 398/117/178
f 399/120/178 421/119/178 398/117/178
f 424/121/179 423/114/179 422/113/179
f 425/122/179 424/121/179 422/113/179
f 427/129/180 426/128/180 402/127/180
f 403/130/180 427/129/180 402/127/180
f 430/107/181 429/106/181 428/105/181
f 431/108/181 430/107/181 428/105/181
f 433/129/182 432/128/182 408/127/182
f 434/130/182 433/129/182 408/127/182
f 437/107/183 436/106/183 435/105/183
f 394/108/183 437/107/183 435/105/183
f 417/107/184 438/106/184 403/105/184
f 439/108/184 417/107/184 403/105/184
f 440/121/185 418/114/185 419/113/185
f 400/122/185 440/121/185 419/113/185
f 442/107/186 441/106/186 401/105/186
f 443/108/186 442/107/186 401/105/186
f 444/107/187 430/106/187 406/105/187
f 392/108/187 444/107/187 406/105/187
f 432/129/188 413/128/188 393/127/188
f 408/130/188 432/129/188 393/127/188
f 445/129/189 433/128/189 434/127/189
f 446/130/189 445/129/189 434/127/189
f 449/129/190 448/128/190 447/127/190
f 410/130/190 449/129/190 447/127/190
f 451/129/191 450/128/191 411/127/191
f 402/130/191 451/129/191 411/127/191
f 454/105/193 453/106/192 452/107/192
f 455/108/193 454/105/193 452/107/192
f 458/109/195 457/110/194 456/111/194
f 459/112/195 458/109/195 456/111/194
f 462/113/197 461/114/196 460/115/196
f 463/116/197 462/113/197 460/115/196
f 466/117/199 465/118/198 464/119/198
f 467/120/199 466/117/199 464/119/198
f 470/113/201 469/114/200 468/121/200
f 471/122/201 470/113/201 468/121/200
f 474/123/203 473/124/202 472/125/202
f 475/126/203 474/123/203 472/125/202
f 478/105/205 477/106/204 476/107/204
f 479/108/205 478/105/205 476/107/204
f 482/127/207 481/128/206 480/129/206
f 483/130/207 482/127/207 480/129/206
f 457/105/194 485/106/208 484/107/208
f 456/108/194 457/105/194 484/107/208
f 461/105/196 474/106/203 475/107/203
f 460/108/196 461/105/196 475/107/203
f 469/113/200 462/114/197 463/121/197
f 468/122/200 469/113/200 463/121/197
f 477/131/204 470/132/201 471/133/201
f 476/134/204 477/131/204 471/133/201
f 453/105/192 478/106/205 479/107/205
f 452/108/192 453/105/192 479/107/205
f 481/127/206 454/128/193 455/129/193
f 480/130/206 481/127/206 455/129/193
f 465/127/198 482/128/207 483/129/207
f 464/130/198 465/127/198 483/129/207
f 485/127/208 466/128/199 467/129/199
f 484/130/208 485/127/208 467/129/199
f 473/127/202 487/128/209 486/129/209
f 472/130/202 473/127/202 486/129/209
f 452/105/210 489/106/210 488/107/210
f 490/108/210 452/105/210 488/107/210
f 456/109/211 492/110/211 491/111/211
f 493/112/211 456/109/211 491/111/211
f 496/113/212 495/114/212 494/121/212
f 497/122/212 496/113/212 494/121/212
f 500/117/213 499/118/213 498/119/213
f 501/120/213 500/117/213 498/119/213
f 504/113/214 503/114/214 502/121/214
f 505/122/214 504/113/214 502/121/214
f 508/127/215 507/128/215 506/129/215
f 509/130/215 508/127/215 506/129/215
f 512/105/216 511/106/216 510/107/216
f 513/108/216 512/105/216 510/107/216
f 516/127/217 515/128/217 514/129/217
f 517/130/217 516/127/217 514/129/217
f 484/105/218 519/106/218 518/107/218
f 520/108/218 484/105/218 518/107/218
f 475/105/219 521/106/219 495/107/219
f 522/108/219 475/105/219 495/107/219
f 525/113/220 524/114/220 523/121/220
f 526/122/220 525/113/220 523/121/220
f 529/105/221 528/106/221 527/107/221
f 530/108/221 529/105/221 527/107/221
f 533/105/222 532/106/222 531/107/222
f 452/108/222 533/105/222 531/107/222
f 455/127/223 535/128/223 534/129/223
f 516/130/223 455/127/223 534/129/223
f 517/127/224 514/128/224 536/129/224
f 464/130/224 517/127/224 536/129/224
f 501/127/225 538/128/225 537/129/225
f 539/130/225 501/127/225 537/129/225
f 542/127/226 541/128/226 540/129/226
f 543/130/226 542/127/226 540/129/226
v -779.0404 252.5969 -1148.947
vt 0.1840516 0.9577928
vn -0.8298968 1.849827E-06 0.5579169
v -630.6981 252.5969 -928.2891
vt 0.1840516 0.04164708
v -630.6981 241.5439 -928.2891
vt 0.1576976 0.04164708
v -779.0404 241.5439 -1148.947
vt 0.1576978 0.9577928
v -691.7789 241.544 -1207.611
vt 0.8371737 0.9577926
vn 0.8298966 -5.840229E-07 -0.5579173
v -543.4365 241.5439 -986.9526
vt 0.8371739 0.0416472
v -543.4365 252.597 -986.9526
vt 0.8137668 0.04164708
v -691.7789 252.597 -1207.611
vt 0.8137665 0.9577926
vn 0 1 -5.183817E-08
v -630.698 252.597 -928.2891
v -779.0403 252.597 -1148.947
v -779.0403 241.5439 -1148.947
vn 0 -1 -1.983854E-08
v -630.698 241.5439 -928.2891
v -691.7789 241.5439 -1207.611
o wood_3_0
g polygon_0
usemtl th_s11
f 546/137/227 545/136/227 544/135/227
f 547/138/227 546/137/227 544/135/227
f 550/141/228 549/140/228 548/139/228
f 551/142/228 550/141/228 548/139/228
f 552/136/229 550/141/229 551/142/229
f 553/135/229 552/136/229 551/142/229
f 549/40/230 555/39/230 554/38/230
f 556/41/230 549/40/230 554/38/230
v -767.8386 288.6718 -1146.985
vn 0.5587057 0.01477837 0.8292342
v -767.092 252.282 -1146.84
v -773.8559 252.282 -1142.282
v -773.7104 288.6718 -1143.029
v -771.7948 288.6718 -1152.857
vn -0.5587156 0.01478032 -0.8292276
v -777.6665 288.6718 -1148.901
v -778.4131 252.282 -1149.046
v -771.6492 252.282 -1153.604
vn 0.8292396 0.01477872 -0.5586978
v -777.6664 288.6718 -1148.901
vn -0.8292355 0.01477906 0.5587039
v -773.7103 288.6718 -1143.029
v -773.8558 252.2819 -1142.282
v -778.413 252.2819 -1149.046
vn 0 1 2.942887E-06
v -710.7892 288.6718 -1062.375
vn 0.5587085 0.01477866 0.8292323
v -710.0426 252.282 -1062.229
v -716.8065 252.282 -1057.672
v -716.6609 288.6718 -1058.419
v -714.7454 288.6718 -1068.247
vn -0.5587087 0.01477991 -0.8292323
v -720.6171 288.6718 -1064.29
v -721.3637 252.282 -1064.436
v -714.5998 252.282 -1068.993
v -710.7891 288.6718 -1062.375
vn 0.8292375 0.01477835 -0.558701
v -714.7452 288.6718 -1068.247
v -714.5997 252.2819 -1068.993
v -710.0425 252.2819 -1062.229
v -720.6171 288.6718 -1064.291
vn -0.8292355 0.01477777 0.5587039
v -716.8065 252.2819 -1057.672
v -721.3637 252.2819 -1064.436
vn 0 1 -3.223021E-06
v -683.1781 288.6718 -1020.982
vn 0.5587034 0.01478065 0.8292358
v -682.4315 252.282 -1020.836
v -689.1954 252.282 -1016.279
v -689.0499 288.6718 -1017.025
v -687.1343 288.6718 -1026.853
vn -0.5587106 0.01477874 -0.829231
v -693.006 288.6718 -1022.897
v -693.7526 252.282 -1023.043
v -686.9887 252.282 -1027.6
v -683.178 288.6718 -1020.982
vn 0.8292363 0.01477931 -0.5587028
v -687.1342 288.6718 -1026.853
v -686.9886 252.282 -1027.6
v -682.4314 252.282 -1020.836
vn -0.829235 0.01477931 0.5587047
v -689.1954 252.2819 -1016.279
v -693.7526 252.2819 -1023.043
vn 0 1 2.942909E-06
v -688.3524 288.6718 -1200.792
vn 0.5587059 0.01477818 0.8292342
v -687.6058 252.282 -1200.646
v -694.3696 252.282 -1196.089
v -694.2241 288.6718 -1196.836
v -692.3085 288.6718 -1206.664
vn -0.5587157 0.01477945 -0.8292276
v -698.1802 288.6718 -1202.708
v -698.9269 252.282 -1202.853
v -692.163 252.282 -1207.41
v -688.3523 288.6718 -1200.792
vn 0.8292365 0.01477927 -0.5587024
v -692.1629 252.282 -1207.41
v -687.6057 252.282 -1200.646
v -698.1803 288.6718 -1202.708
vn -0.8292342 0.0147787 0.5587059
v -694.2242 288.6718 -1196.836
v -694.3697 252.282 -1196.089
vn 0 1 2.942884E-06
v -544.9894 288.6718 -987.1345
vn 0.5587112 0.01478045 0.8292306
v -544.2428 252.282 -986.9889
v -551.0067 252.282 -982.4316
v -550.8611 288.6718 -983.1783
v -548.9456 288.6718 -993.0062
vn -0.5587058 0.01477936 -0.8292342
v -554.8173 288.6718 -989.05
v -555.5639 252.282 -989.1956
v -548.8 252.282 -993.7528
vn 0.8292371 0.01477871 -0.5587015
v -544.2429 252.282 -986.9889
vn -0.829236 0.01477912 0.5587032
vn 0 1 2.942908E-06
v -624.2449 288.6718 -933.7016
vn 0.5587046 0.01478021 0.8292351
v -623.4983 252.282 -933.556
v -630.2621 252.282 -928.9988
v -630.1166 288.6718 -929.7454
v -628.201 288.6718 -939.5733
vn -0.5587089 0.01477955 -0.8292322
v -634.0728 288.6718 -935.6171
v -634.8194 252.282 -935.7627
v -628.0555 252.282 -940.3199
v -624.2449 288.6718 -933.7015
vn 0.8292367 0.01477903 -0.5587021
v -628.2011 288.6718 -939.5732
v -623.4984 252.282 -933.556
vn -0.8292354 0.01477885 0.558704
v -630.2621 252.282 -928.9987
v -634.8194 252.282 -935.7626
vn 0 1 -3.223047E-06
v -772.6383 242.3387 -1151.753
vn -0.5395578 -0.7382726 0.4047604
v -769.0136 242.3387 -1146.921
v -698.1589 161.4133 -1200.075
v -701.7837 161.4133 -1204.907
v -698.5246 165.8727 -1207.352
vt 0 3
vn 0.5395586 0.7382717 -0.404761
v -694.8999 165.8727 -1202.52
vt 1 3
v -765.7545 246.7981 -1149.366
vt 1 2
v -769.3793 246.7981 -1154.198
vt 0 2
v -769.0137 242.3387 -1146.921
vn 0.600089 -6.384231E-07 0.7999333
v -765.7546 246.798 -1149.366
vt 2 1
v -694.9 165.8727 -1202.52
vt 2 0
v -698.159 161.4133 -1200.075
v -769.3793 246.798 -1154.198
vt -1 1
vn -0.6000912 8.218753E-07 -0.7999316
v -772.6384 242.3387 -1151.753
v -701.7838 161.4133 -1204.907
v -698.5247 165.8727 -1207.352
vt -1 0
v -620.5811 242.3387 -949.0599
vn -0.5395527 -0.7382736 0.4047653
v -616.9564 242.3387 -944.2281
v -546.1017 161.4133 -997.3822
v -549.7264 161.4133 -1002.214
v -546.4673 165.8727 -1004.659
vn 0.539552 0.7382739 -0.4047658
v -542.8426 165.8727 -999.8271
v -613.6972 246.798 -946.673
v -617.322 246.798 -951.5048
vn 0.6000945 4.816537E-07 0.7999291
v -613.6973 246.798 -946.673
v -542.8427 165.8727 -999.8271
v -546.1017 161.4133 -997.3823
vn -0.6000938 1.972744E-06 -0.7999297
o wood_3_1
g polygon_0
usemtl su_s1
f 559/22/231 558/20/231 557/17/231
f 560/32/231 559/22/231 557/17/231
f 563/32/232 562/22/232 561/20/232
f 564/17/232 563/32/232 561/20/232
f 564/20/233 561/17/233 557/21/233
f 558/22/233 564/20/233 557/21/233
f 567/20/234 566/17/234 565/21/234
f 568/22/234 567/20/234 565/21/234
f 561/30/235 562/27/235 560/31/235
f 557/29/235 561/30/235 560/31/235
f 571/20/236 570/19/236 569/18/236
f 572/17/236 571/20/236 569/18/236
f 575/17/237 574/20/237 573/19/237
f 576/18/237 575/17/237 573/19/237
f 579/19/238 578/18/238 577/17/238
f 580/20/238 579/19/238 577/17/238
f 582/19/239 572/18/239 581/17/239
f 583/20/239 582/19/239 581/17/239
f 573/29/240 574/28/240 572/27/240
f 569/30/240 573/29/240 572/27/240
f 586/22/241 585/20/241 584/17/241
f 587/32/241 586/22/241 584/17/241
f 590/32/242 589/22/242 588/20/242
f 591/17/242 590/32/242 588/20/242
f 594/20/243 593/17/243 592/21/243
f 595/22/243 594/20/243 592/21/243
f 596/20/244 587/17/244 589/21/244
f 597/22/244 596/20/244 589/21/244
f 588/30/245 589/27/245 587/31/245
f 584/29/245 588/30/245 587/31/245
f 600/22/246 599/20/246 598/17/246
f 601/32/246 600/22/246 598/17/246
f 604/32/247 603/22/247 602/20/247
f 605/17/247 604/32/247 602/20/247
f 607/20/248 602/17/248 606/21/248
f 608/22/248 607/20/248 606/21/248
f 611/20/249 610/17/249 609/21/249
f 604/22/249 611/20/249 609/21/249
f 602/30/250 603/27/250 601/31/250
f 598/29/250 602/30/250 601/31/250
f 614/20/251 613/19/251 612/18/251
f 615/17/251 614/20/251 612/18/251
f 618/17/252 617/20/252 616/19/252
f 619/18/252 618/17/252 616/19/252
f 619/19/253 616/18/253 612/17/253
f 620/20/253 619/19/253 612/17/253
f 614/19/254 615/18/254 617/17/254
f 618/20/254 614/19/254 617/17/254
f 616/29/255 617/28/255 615/27/255
f 612/30/255 616/29/255 615/27/255
f 623/20/256 622/19/256 621/18/256
f 624/17/256 623/20/256 621/18/256
f 627/17/257 626/20/257 625/19/257
f 628/18/257 627/17/257 625/19/257
f 628/19/258 630/18/258 629/17/258
f 631/20/258 628/19/258 629/17/258
f 632/19/259 624/18/259 626/17/259
f 633/20/259 632/19/259 626/17/259
f 625/29/260 626/28/260 624/27/260
f 621/30/260 625/29/260 624/27/260
f 636/25/261 635/24/261 634/23/261
f 637/26/261 636/25/261 634/23/261
f 640/145/262 639/144/262 638/143/262
f 641/146/262 640/145/262 638/143/262
f 644/148/263 643/147/263 642/24/263
f 645/25/263 644/148/263 642/24/263
f 648/26/264 647/23/264 646/149/264
f 649/150/264 648/26/264 646/149/264
f 652/25/265 651/24/265 650/23/265
f 653/26/265 652/25/265 650/23/265
f 656/145/266 655/144/266 654/143/266
f 657/146/266 656/145/266 654/143/266
f 659/148/267 658/147/267 651/24/267
f 660/25/267 659/148/267 651/24/267
f 653/26/268 650/23/268 657/149/268
f 654/150/268 653/26/268 657/149/268
vt 0.1840516 1.010725
vn 0.5579169 1.319451E-06 0.8298968
vt 0.8137668 1.010725
vt 0.8096349 -0.008598447
vt 0.1914409 -0.008597016
vt 0.8137665 0.007465124
vn -0.5579168 -9.238237E-08 -0.8298969
vt 0.1840516 0.007468224
vt 0.191441 0.9985988
vt 0.8096344 0.9985988
o wood_3_2
g polygon_0
usemtl th_s51
f 549/153/269 550/152/269 552/151/269
f 555/154/269 549/153/269 552/151/269
f 554/157/270 553/156/270 551/155/270
f 556/158/270 554/157/270 551/155/270
v -590.5601 284.9289 -962.8163
vt 0.5051634 0.9512754
vn 0.5579163 -4.733664E-07 0.8298972
v -548.984 284.9289 -990.7667
vt 0.00178504 0.9512754
v -548.9841 252.3366 -990.7667
vt 0.001784086 0.006722748
v -590.5601 252.3367 -962.8163
vt 0.5051644 0.006722748
v -632.136 284.9289 -934.8659
vt 0.5051644 0.9512754
vn 0.5579167 -4.473378E-07 0.829897
v -632.136 252.3367 -934.8659
v -731.9168 284.929 -1173.084
vn -0.5579174 -2.130545E-07 -0.8298965
v -773.4928 284.929 -1145.133
v -773.4928 252.3368 -1145.133
vt 0.001243472 0.006722808
v -731.9168 252.3368 -1173.084
v -690.3408 284.929 -1201.034
vn -0.5579165 -4.16602E-07 -0.829897
v -690.3408 252.3368 -1201.034
v -744.5141 284.929 -1102.027
vn -0.8343959 3.120113E-07 0.5511655
v -717.7958 284.929 -1060.857
vn -0.8388404 2.283297E-07 0.5443774
v -717.7958 252.3367 -1060.857
v -744.5141 252.3367 -1102.027
v -773.4929 284.929 -1145.133
vn -0.8298966 3.956722E-07 0.5579172
v -773.4929 252.3368 -1145.133
v -661.1148 284.9289 -977.9716
vn -0.8289673 9.472188E-08 0.5592971
v -632.1359 284.9289 -934.8658
vn -0.8298962 1.528822E-07 0.5579178
v -632.1359 252.3367 -934.8658
v -661.1148 252.3367 -977.9716
v -690.5901 284.929 -1021.502
vn -0.828036 3.656132E-08 0.5606749
v -690.5901 252.3367 -1021.502
o wood_3_3
g polygon_0
usemtl l_s1
f 663/161/271 662/160/271 661/159/271
f 664/162/271 663/161/271 661/159/271
f 664/161/272 661/160/272 665/163/272
f 666/162/272 664/161/272 665/163/272
f 669/164/273 668/160/273 667/163/273
f 670/162/273 669/164/273 667/163/273
f 670/161/274 667/160/274 671/159/274
f 672/162/274 670/161/274 671/159/274
f 675/161/276 674/160/276 673/163/275
f 676/162/275 675/161/276 673/163/275
f 676/164/275 673/160/275 677/159/277
f 678/162/277 676/164/275 677/159/277
f 681/162/279 680/163/279 679/160/278
f 682/161/278 681/162/279 679/160/278
f 682/162/278 679/159/278 683/160/280
f 684/161/280 682/162/278 683/160/280
v 1669.742 488.7922 1393.106
vt -0.7562459 0.9758821
vn -0.8036808 9.186977E-08 -0.5950606
v 1644.038 488.7921 1436.067
vt -0.6651531 0.9758821
vn -0.9043284 1.431733E-07 -0.4268374
v 1644.038 446.0762 1436.067
vt -0.6651531 0.04660344
v 1669.742 446.0764 1393.106
vt -0.7562459 0.04660362
vt -0.9153113 0.9758821
v 1627.21 488.7921 1483.218
vt -0.8305368 0.9758821
vn -0.9702256 -4.434069E-07 -0.2422032
v 1627.21 446.0762 1483.218
vt -0.8305366 0.04660344
vt -0.9153112 0.04660362
vt -0.6449406 0.9758821
v 1619.904 488.7921 1532.745
vt -0.5614976 0.9758821
vn -0.9988344 -8.721345E-08 -0.04826718
v 1619.904 446.0762 1532.745
vt -0.5614976 0.04660362
vt -0.6449407 0.04660344
v 1622.4 488.7921 1582.746
vt -0.4366848 0.9758821
vn -0.9890589 6.902619E-07 0.1475215
v 1634.604 488.7921 1631.299
vt -0.3717196 0.9758821
vn -0.9412745 -4.653133E-08 0.3376422
v 1634.604 446.0762 1631.299
vt -0.3717197 0.0466035
v 1622.4 446.0762 1582.746
vt -0.4366848 0.04660362
vt -0.3392521 0.9758821
v 1656.045 488.7921 1676.539
vt -0.2972791 0.9758821
vn -0.8573163 -1.012371E-06 0.5147901
v 1656.045 446.0762 1676.539
vt -0.2972791 0.0466035
vt -0.3392522 0.0466035
vt -0.5309479 0.9758821
vt -0.4601328 0.9758821
vt -0.4601328 0.04660362
vt -0.5309479 0.04660362
vt -0.2803071 0.9758821
v 1685.899 488.7921 1716.726
vt -0.2254966 0.9758821
vn -0.7404125 -5.227821E-07 0.6721528
v 1685.899 446.0762 1716.726
vt -0.2254965 0.0466035
vt -0.2803072 0.0466035
vt -0.1872433 0.9758821
v 1723.021 488.7921 1750.317
vt -0.1584889 0.9758821
vn -0.5950568 -4.763381E-07 0.8036836
v 1723.021 446.0762 1750.317
vt -0.1584889 0.0466035
vt -0.1872433 0.0466035
v 1765.982 488.7921 1776.02
vn -0.4268327 -1.827714E-07 0.9043306
v 1765.982 446.0762 1776.02
vt -0.123763 0.9758821
v 1813.132 488.7921 1792.848
vt -0.07017694 0.9758821
vn -0.2422052 2.162622E-07 0.970225
v 1813.132 446.0762 1792.848
vt -0.07017697 0.0466035
vt -0.123763 0.0466035
vt -0.7770972 1.95858
v 1862.66 488.792 1800.155
vt -0.7197419 1.95858
vn -0.04827011 -2.560548E-08 0.9988343
v 1862.66 446.0761 1800.155
vt -0.7197419 1.029302
vt -0.7770972 1.029302
vt -0.698882 1.957929
v 1912.661 488.7921 1797.658
vt -0.6410514 1.957929
vn 0.04986592 -9.134057E-08 0.9987559
v 1912.661 446.0762 1797.658
vt -0.6410514 1.028651
vt -0.698882 1.028652
v 2115.369 488.7921 1458.844
vt -0.7481387 -0.01607704
vn 0.9036514 -1.666377E-06 -0.4282688
v 2093.929 488.7921 1413.605
vt -0.7002648 -0.01607704
vn 0.8573187 -1.407151E-06 -0.5147861
v 2093.929 446.0762 1413.605
vt -0.7002649 -0.9453557
v 2115.369 446.0762 1458.844
vt -0.7481387 -0.9453557
vt -0.6551856 -0.02561259
v 2064.074 488.7921 1373.418
vt -0.5984957 -0.02561259
vn 0.740413 -6.769269E-07 -0.6721523
v 2064.074 446.0762 1373.418
vt -0.5984955 -0.954891
vt -0.6551855 -0.9548914
vt -0.5616742 -0.02296102
v 2026.952 488.7921 1339.827
vt -0.5346208 -0.02296126
vn 0.5950563 -4.037317E-07 -0.8036841
v 2026.952 446.0762 1339.827
vt -0.5346208 -0.95224
vt -0.561674 -0.9522399
vt -0.4929506 -0.04040337
v 1983.991 488.7921 1314.124
vt -0.4726338 -0.04040325
vn 0.4268304 -4.284793E-07 -0.9043317
v 1983.991 446.0762 1314.124
vt -0.4726335 -0.9696817
vt -0.4929508 -0.9696817
vt -0.4675035 -0.03668571
v 1936.841 488.7921 1297.295
vt -0.4172324 -0.03668559
vn 0.2422048 -1.96536E-07 -0.9702252
v 1936.841 446.0762 1297.295
vt -0.4172326 -0.965964
vt -0.4675034 -0.965964
vt -0.4051359 -0.03960228
v 1887.313 488.7921 1289.989
vt -0.3453193 -0.03960228
vn 0.04827024 -1.675031E-08 -0.9988343
v 1887.313 446.0762 1289.989
vt -0.3453193 -0.9688807
vt -0.4051357 -0.9688809
vt -0.3305469 -0.03727651
v 1837.312 488.7921 1292.486
vt -0.2636115 -0.03727663
vn -0.1475191 8.859493E-08 -0.9890592
v 1837.312 446.0762 1292.486
vt -0.2636113 -0.9665544
vt -0.330547 -0.9665544
vt -0.2671173 -0.03892612
v 1788.759 488.792 1304.689
vt -0.1973931 -0.03892612
vn -0.337642 -1.030317E-08 -0.9412746
v 1788.759 446.0761 1304.689
vt -0.1973931 -0.9682047
vt -0.2671172 -0.968205
vt -0.1689972 -0.04513514
v 1743.52 488.7919 1326.13
vt -0.08715659 -0.0451349
vn -0.5147947 1.831627E-07 -0.8573135
v 1743.52 446.076 1326.13
vt -0.08715653 -0.9744133
vt -0.1689973 -0.9744133
vt -0.9957399 1.964147
v 1703.333 488.7921 1355.985
vt -0.9079956 1.964147
vn -0.6721569 -2.386285E-08 -0.7404088
v 1703.333 446.0762 1355.985
vt -0.9079956 1.034867
vt -0.9957399 1.034867
vt -0.970874 0.9854031
vt -0.8810949 0.9854031
vt -0.8810949 0.05612397
vt -0.9708738 0.05612379
o wood_4_0
g polygon_0
usemtl th_s51
f 687/167/282 686/166/282 685/165/281
f 688/168/281 687/167/282 685/165/281
f 690/171/283 689/170/283 686/169/282
f 687/172/282 690/171/283 686/169/282
f 692/175/284 691/174/284 689/173/283
f 690/176/283 692/175/284 689/173/283
f 695/179/286 694/178/286 693/177/285
f 696/180/285 695/179/286 693/177/285
f 698/183/287 697/182/287 694/181/286
f 695/184/286 698/183/287 694/181/286
f 696/187/285 693/186/285 691/185/284
f 692/188/284 696/187/285 691/185/284
f 700/191/288 699/190/288 697/189/287
f 698/192/287 700/191/288 697/189/287
f 702/195/289 701/194/289 699/193/288
f 700/196/288 702/195/289 699/193/288
f 704/195/290 703/194/290 701/193/289
f 702/196/289 704/195/290 701/193/289
f 706/199/291 705/198/291 703/197/290
f 704/200/290 706/199/291 703/197/290
f 708/203/292 707/202/292 705/201/291
f 706/204/291 708/203/292 705/201/291
f 710/207/293 709/206/293 707/205/292
f 708/208/292 710/207/293 707/205/292
f 713/211/295 712/210/295 711/209/294
f 714/212/294 713/211/295 711/209/294
f 716/215/296 715/214/296 712/213/295
f 713/216/295 716/215/296 712/213/295
f 718/219/297 717/218/297 715/217/296
f 716/220/296 718/219/297 715/217/296
f 720/223/298 719/222/298 717/221/297
f 718/224/297 720/223/298 717/221/297
f 722/227/299 721/226/299 719/225/298
f 720/228/298 722/227/299 719/225/298
f 724/231/300 723/230/300 721/229/299
f 722/232/299 724/231/300 721/229/299
f 726/235/301 725/234/301 723/233/300
f 724/236/300 726/235/301 723/233/300
f 728/239/302 727/238/302 725/237/301
f 726/240/301 728/239/302 725/237/301
f 730/243/303 729/242/303 727/241/302
f 728/244/302 730/243/303 727/241/302
f 732/247/304 731/246/304 729/245/303
f 730/248/303 732/247/304 729/245/303
f 688/251/281 685/250/281 731/249/304
f 732/252/304 688/251/281 731/249/304
v 1726.493 550.285 1361.594
vn 0.7922698 0.01596188 -0.6099621
v 1718.543 550.285 1351.267
v 1718.723 488.2629 1349.879
v 1727.882 488.2629 1361.775
v 1708.216 550.285 1359.218
vn -0.7922668 0.01596119 0.609966
v 1716.166 550.285 1369.545
v 1715.986 488.2629 1370.933
v 1706.827 488.2629 1359.037
v 1686.517 550.285 1400.831
vn 0.6551272 0.0159622 -0.75535
v 1676.671 550.285 1392.291
v 1676.572 488.2629 1390.895
v 1687.914 488.2629 1400.731
v 1963.277 550.285 1311.291
vn 0.9408169 0.01596108 0.3385392
v 1964.544 488.2629 1310.695
v 1959.461 488.2629 1324.821
v 1958.864 550.285 1323.554
v 2044.807 550.285 1362.967
vn -0.6791153 0.01595986 -0.733858
v 2035.241 550.285 1371.819
v 2033.842 488.2629 1371.765
v 2044.861 488.2629 1361.568
v 2035.24 550.285 1371.818
vn -0.7338545 0.01596091 0.6791191
v 2044.092 550.285 1381.384
v 2044.038 488.2629 1382.783
v 2033.841 488.2629 1371.764
v 1718.543 550.285 1351.268
vn -0.6099724 0.01596233 -0.7922619
v 1706.827 488.2629 1359.038
vn 0 1 1.528562E-06
v 1677.978 550.285 1410.676
vn -0.6551297 0.01596129 0.7553478
v 1678.077 488.2629 1412.073
v 1666.735 488.2629 1402.236
v 1668.132 550.285 1402.137
vn 0 1 -1.803127E-06
v 1677.98 550.2847 1410.678
vn 0.755344 0.01596113 0.6551341
v 1686.519 550.2847 1400.833
v 1687.916 488.2626 1400.733
v 1678.079 488.2626 1412.075
v 1676.672 550.2853 1392.292
vn -0.7553505 0.01595959 -0.6551267
v 1668.132 550.2853 1402.137
v 1666.736 488.2632 1402.236
v 1676.572 488.2632 1390.895
v 1951.013 550.285 1306.878
vn -0.9408196 0.01596109 -0.3385319
v 1946.601 550.285 1319.141
v 1945.334 488.2629 1319.738
v 1950.417 488.2629 1305.611
vn 0.3385355 0.01596178 -0.9408183
v 1951.014 550.285 1306.878
v 1950.417 488.2629 1305.612
vn 0 1 3.238225E-06
v 2053.658 550.285 1372.532
vn 0 1 6.960467E-07
v 2044.806 550.285 1362.966
vn 0.7338593 0.01596104 -0.6791139
v 2044.86 488.2629 1361.567
v 2055.057 488.2629 1372.586
v 1707.976 486.2617 1358.732
vt -0.5005775 -0.01017237
vn -0.5814612 0.01474804 -0.8134404
v 1747.913 486.2618 1330.267
vt 0.001690729 -0.01017225
vn -0.4933541 0.01489554 -0.869701
v 1747.58 519.9141 1331.032
vt 0.001689753 0.9961113
v 1707.804 519.914 1359.548
vt -0.5005775 0.9961113
v 1840.881 486.262 1300.574
vn -0.1106752 0.01487655 -0.9937453
v 1889.928 486.2618 1300.044
vt 0.001690241 -0.01017189
vn 0.08916084 0.01483448 -0.9959068
v 1889.218 519.9142 1300.482
v 1840.275 519.9144 1301.146
vt -0.500578 0.9961109
v 1792.891 486.2619 1310.716
vt 0.001689753 -0.01017237
vn -0.3055292 0.01494466 -0.9520654
v 1792.412 519.9142 1311.399
vt 0.001690241 0.996111
vt -0.500578 -0.01017189
vt -0.500578 0.9961113
vt -0.5005775 -0.01017225
vt 0.001690241 -0.01017177
vt 0.001690729 0.9961109
v 1632.026 486.2618 1482.464
vt 0.9925481 0.003958464
vn -0.9702529 0.01489675 -0.241635
v 1674.549 486.2618 1394.629
vt 0.001784086 0.003958285
vn -0.9005693 0.01463957 -0.434466
v 1674.545 519.9141 1395.462
vt 0.001783609 0.9985164
v 1632.351 519.9142 1483.232
vt 0.9925486 0.9985163
v 1628.119 486.2618 1579.987
vn -0.986899 0.01487791 0.1606516
vt 0.001784086 0.003958344
vt 0.001783609 0.9985163
v 1628.72 519.9142 1580.564
vt 0.9925476 0.9985164
v 1662.496 486.2619 1671.31
vt 0.9925481 0.003958344
vn -0.8436208 0.01489746 0.5367327
v 1663.277 519.9142 1671.603
v 1730.478 486.262 1741.35
vn -0.5634772 0.01488264 0.8259975
v 1731.31 519.9143 1741.311
v 1820.356 486.2619 1779.325
vn -0.1922281 0.01490129 0.9812371
vt 0.001783609 0.003958344
v 1821.107 519.9142 1778.961
v 1917.963 486.2619 1778.338
vn 0.2104776 0.0148828 0.9774854
vt 0.001783609 0.003958464
v 1918.509 519.9142 1777.708
vt 0.9925481 0.9985164
v 2007.391 486.262 1739.33
vt 0.9925486 0.003958344
vn 0.5787359 0.01489754 0.815379
v 2007.644 519.9144 1738.536
v 2073.954 486.262 1667.929
vn 0.8534994 0.01488335 0.5208812
v 2073.874 519.9144 1667.099
vt 0.9925486 0.9985164
v 2107.252 486.262 1576.228
vn 0.9897091 0.01490267 0.1423161
v 2106.85 519.9143 1575.497
v 2101.406 486.2619 1478.784
vn 0.9655623 0.01488748 -0.2597458
v 2100.749 519.9142 1478.271
vt -0.5011309 -0.01017213
v 1937.284 519.9141 1309.695
vt -0.1990151 0.9961113
vn 0.2909503 0.01541362 -0.956614
v 1938.068 486.2618 1309.409
vt -0.1990157 -0.01017225
v 1959.839 519.9142 1319.188
vn 0.3891464 0.01589379 -0.9210387
v 1960.643 486.2618 1318.984
v 2057.843 486.2618 1391.497
vt 0.7964449 0.003958344
vn 0.8146716 0.01434006 -0.5797452
v 2057.036 519.9142 1391.284
vt 0.7964455 0.9985164
v 2040.747 486.2618 1373.913
vt 0.9925482 0.003958344
vn 0.7159645 0.01373491 -0.6980016
v 2039.928 519.9141 1373.783
vt 0.9925483 0.9985164
o wood_4_1
g polygon_0
usemtl l_s1
f 735/20/305 734/17/305 733/21/305
f 736/22/305 735/20/305 733/21/305
f 739/20/306 738/17/306 737/21/306
f 740/22/306 739/20/306 737/21/306
f 743/32/307 742/22/307 741/20/307
f 744/17/307 743/32/307 741/20/307
f 747/22/308 746/20/308 745/17/308
f 748/32/308 747/22/308 745/17/308
f 751/19/309 750/18/309 749/17/309
f 752/20/309 751/19/309 749/17/309
f 755/17/310 754/20/310 753/19/310
f 756/18/310 755/17/310 753/19/310
f 758/32/311 737/22/311 757/20/311
f 735/17/311 758/32/311 757/20/311
f 734/30/312 737/27/312 738/31/312
f 733/29/312 734/30/312 738/31/312
f 761/22/313 760/20/313 759/17/313
f 762/32/313 761/22/313 759/17/313
f 741/30/314 742/27/314 762/31/314
f 759/29/314 741/30/314 762/31/314
f 765/20/315 764/17/315 763/21/315
f 766/22/315 765/20/315 763/21/315
f 769/20/316 768/17/316 767/21/316
f 770/22/316 769/20/316 767/21/316
f 773/32/317 772/22/317 771/20/317
f 774/17/317 773/32/317 771/20/317
f 776/20/318 775/17/318 745/21/318
f 746/22/318 776/20/318 745/21/318
f 775/30/319 772/27/319 748/31/319
f 745/29/319 775/30/319 748/31/319
f 753/29/320 754/28/320 777/27/320
f 778/30/320 753/29/320 777/27/320
f 780/20/321 779/19/321 778/18/321
f 777/17/321 780/20/321 778/18/321
f 783/255/323 782/254/323 781/253/322
f 784/256/322 783/255/323 781/253/322
f 787/255/325 786/257/325 785/253/324
f 788/258/324 787/255/325 785/253/324
f 783/256/323 790/260/326 789/259/326
f 782/261/323 783/256/323 789/259/326
f 785/264/324 789/263/326 790/262/326
f 788/265/324 785/264/324 790/262/326
f 793/268/328 792/267/328 791/266/327
f 794/269/327 793/268/328 791/266/327
f 794/271/327 791/270/327 795/266/329
f 796/272/329 794/271/327 795/266/329
f 796/271/329 795/270/329 797/273/330
f 798/272/330 796/271/329 797/273/330
f 798/268/330 797/267/330 799/266/331
f 800/272/331 798/268/330 799/266/331
f 800/268/331 799/274/331 801/266/332
f 802/272/332 800/268/331 801/266/332
f 802/268/332 801/275/332 803/273/333
f 804/276/333 802/268/332 803/273/333
f 804/268/333 803/267/333 805/277/334
f 806/269/334 804/268/333 805/277/334
f 806/268/334 805/275/334 807/273/335
f 808/278/335 806/268/334 807/273/335
f 808/268/335 807/275/335 809/273/336
f 810/276/336 808/268/335 809/273/336
f 810/268/336 809/275/336 811/273/337
f 812/276/337 810/268/336 811/273/337
f 787/258/325 813/280/338 786/279/325
f 786/279/325 813/280/338 814/281/338
f 813/280/338 815/255/339 814/281/338
f 814/281/338 815/255/339 816/254/339
f 811/275/337 817/282/340 812/268/337
f 812/268/337 817/282/340 818/283/340
f 817/282/340 819/284/341 818/283/340
f 818/283/340 819/284/341 820/285/341
vn 0.6099668 0.01596217 0.7922662
vn -0.6099718 0.01596214 -0.7922623
vn -0.7553481 0.01596095 -0.6551293
vn 0 1 -1.803117E-06
vn -0.9408196 0.01596218 -0.3385317
v 1946.601 550.285 1319.142
vn -0.3385389 0.01596077 0.9408171
vn 0 1 3.238197E-06
vn 0 1 2.032085E-06
v 2044.092 550.2849 1381.383
vn 0.6791157 0.01596071 0.7338577
v 2053.657 550.2849 1372.532
v 2055.057 488.2628 1372.586
v 2044.038 488.2628 1382.783
o wood_4_2
g polygon_0
usemtl su_s1
f 751/19/309 750/18/309 749/17/309
f 752/20/309 751/19/309 749/17/309
f 739/22/342 736/20/342 733/17/342
f 738/32/342 739/22/342 733/17/342
f 740/32/343 737/22/343 734/20/343
f 735/17/343 740/32/343 734/20/343
f 735/20/305 734/17/305 733/21/305
f 736/22/305 735/20/305 733/21/305
f 739/20/306 738/17/306 737/21/306
f 740/22/306 739/20/306 737/21/306
f 734/30/312 737/27/312 738/31/312
f 733/29/312 734/30/312 738/31/312
f 761/22/313 760/20/313 759/17/313
f 762/32/313 761/22/313 759/17/313
f 743/32/307 742/22/307 741/20/307
f 744/17/307 743/32/307 741/20/307
f 761/20/344 762/17/344 742/21/344
f 743/22/344 761/20/344 742/21/344
f 741/30/345 742/27/345 762/31/345
f 759/29/345 741/30/345 762/31/345
f 773/32/346 821/22/346 775/20/346
f 776/17/346 773/32/346 775/20/346
f 776/20/318 775/17/318 745/21/318
f 746/22/318 776/20/318 745/21/318
f 747/20/347 748/17/347 821/21/347
f 773/22/347 747/20/347 821/21/347
f 775/30/348 821/27/348 748/31/348
f 745/29/348 775/30/348 748/31/348
f 780/20/321 779/19/321 778/18/321
f 777/17/321 780/20/321 778/18/321
f 755/17/310 754/20/310 753/19/310
f 756/18/310 755/17/310 753/19/310
f 753/29/349 754/28/349 777/27/349
f 778/30/349 753/29/349 777/27/349
f 824/19/350 823/18/350 822/17/350
f 825/20/350 824/19/350 822/17/350
v 1874.987 488.7921 1545.072
vt 0.4999997 0.5000017
vn 0 1 -3.742608E-08
v 2130.069 488.7921 1557.399
vt 0.7511439 0.1150601
vn 0 1 -4.594229E-07
v 2122.763 488.7921 1606.926
vt 0.67122 0.07346082
vn 0 1 1.706575E-07
v 2127.573 488.7921 1507.398
vt 0.8214165 0.1714523
vn 0 1 -3.872864E-07
vt 0.8793373 0.2404705
vn 0 1 1.024789E-07
v 2093.928 488.7921 1413.605
vt 0.9226804 0.3194623
vn 0 1 -8.02209E-08
vt 0.94978 0.4053921
vn 0 1 -5.421441E-07
vt 0.9595948 0.4949577
vn 0 1 -3.210058E-07
vt 0.9517477 0.584717
vn 0 1 -1.577922E-07
vt 0.9265401 0.6712207
vn 0 1 -1.488059E-07
vt 0.884941 0.7511445
vn 0 1 4.207016E-08
vt 0.828549 0.8214169
vn 0 1 1.7165E-07
v 1788.759 488.7921 1304.689
vt 0.7595308 0.8793374
vn 0 1 -3.788905E-09
v 1743.52 488.7921 1326.13
vt 0.6805394 0.9226804
vn 0 1 -2.207858E-08
v 1703.332 488.7921 1355.985
vt 0.5946099 0.9497802
vn 0 1 -5.747879E-08
v 1669.741 488.7921 1393.106
vt 0.5050447 0.9595952
vn 0 1 7.529414E-08
v 1644.038 488.7921 1436.068
vt 0.4152855 0.9517484
vn 0 1 4.815828E-07
vt 0.3287819 0.9265413
vn 0 1 -1.955527E-09
vt 0.2488581 0.8849428
vn 0 1 -4.312047E-07
vt 0.1785855 0.8285511
vn 0 1 -5.802782E-08
vt 0.1206645 0.7595335
vn 0 1 6.62234E-08
vt 0.07732092 0.6805423
vn 0 1 2.626591E-08
vt 0.05022073 0.594613
vn 0 1 3.194869E-07
vt 0.04040507 0.5050477
vn 0 1 3.210059E-07
vt 0.0482512 0.4152884
vn 0 1 1.577923E-07
v 1813.132 488.7921 1792.849
vt 0.07345799 0.3287844
vn 0 1 1.488061E-07
v 1862.66 488.7921 1800.155
vt 0.1150564 0.2488601
vn 0 1 2.708262E-08
vt 0.1714481 0.1785868
vn 0 1 -1.024973E-07
v 1961.214 488.7921 1785.455
vt 0.2404658 0.1206654
vn 0 1 -3.032191E-07
v 2006.454 488.7921 1764.014
vt 0.3194574 0.07732159
vn 0 1 -3.692796E-07
v 2046.641 488.7921 1734.159
vt 0.405387 0.05022103
vn 0 1 -4.182294E-07
v 2080.232 488.7921 1697.038
vt 0.4949528 0.04040527
vn 0 1 -2.133891E-08
v 2105.935 488.7921 1654.076
vt 0.5847126 0.04825151
vn 0 1 5.777455E-07
o wood_4_3
g polygon_0
usemtl th_s11
f 828/288/353 827/287/352 826/286/351
f 826/286/351 827/287/352 829/289/354
f 829/289/354 711/290/355 826/286/351
f 826/286/351 711/290/355 830/291/356
f 830/291/356 715/292/357 826/286/351
f 826/286/351 715/292/357 717/293/358
f 717/293/358 719/294/359 826/286/351
f 826/286/351 719/294/359 721/295/360
f 721/295/360 723/296/361 826/286/351
f 826/286/351 723/296/361 725/297/362
f 725/297/362 831/298/363 826/286/351
f 826/286/351 831/298/363 832/299/364
f 832/299/364 833/300/365 826/286/351
f 826/286/351 833/300/365 834/301/366
f 834/301/366 835/302/367 826/286/351
f 826/286/351 835/302/367 689/303/368
f 689/303/368 691/304/369 826/286/351
f 826/286/351 691/304/369 693/305/370
f 693/305/370 694/306/371 826/286/351
f 826/286/351 694/306/371 697/307/372
f 697/307/372 699/308/373 826/286/351
f 826/286/351 699/308/373 701/309/374
f 701/309/374 703/310/375 826/286/351
f 826/286/351 703/310/375 836/311/376
f 836/311/376 837/312/377 826/286/351
f 826/286/351 837/312/377 709/313/378
f 709/313/378 838/314/379 826/286/351
f 826/286/351 838/314/379 839/315/380
f 839/315/380 840/316/381 826/286/351
f 826/286/351 840/316/381 841/317/382
f 841/317/382 842/318/383 826/286/351
f 826/286/351 842/318/383 828/288/353
v 55.3321 60.2177 560.1527
vt 0.6242388 0.6922547
vn -0.9376556 -1.988539E-07 0.3475658
v 71.96939 60.2177 511.0375
vt 0.6242388 0.2411776
vn -0.3511906 -3.84653E-07 -0.936304
v 71.96938 65.08419 511.0375
vt 0.5919622 0.2411776
v 55.33209 65.08419 560.1527
vt 0.5919622 0.6922547
v 178.5323 58.43318 572.975
vt 0.8379662 0.6922547
vn 0.01655832 0.9998443 0.006105714
v 155.7144 58.43318 619.5416
vt 0.8379662 0.2411776
v 55.3321 65.08419 560.1527
vt 0.3431832 0.2411776
vn 0.05168289 0.9984361 0.02131188
v 71.96939 65.08419 511.0375
vt 0.3431832 0.6922547
v 280.5692 60.85436 630.4698
vn -0.03583591 0.9992034 -0.01755978
v 257.7512 60.85436 677.0364
v 393.3477 68.5116 694.2653
vn -0.07425907 0.9965749 -0.0363873
v 370.5298 68.5116 740.8319
v 511.0933 82.69868 755.7161
vn -0.1078408 0.9927628 -0.05284244
v 488.2755 82.69868 802.2827
v 627.8314 100.414 815.4159
vn -0.1441518 0.9870314 -0.07063499
v 605.0135 100.414 861.9824
v 744.5696 125.3732 875.1157
vn -0.1938188 0.9764295 -0.09497236
v 721.7516 125.3732 921.6824
v 860.0298 157.7624 931.4554
vn -0.2258176 0.9678649 -0.1106522
v 837.2118 157.7624 978.0221
v 975.4899 192.1364 987.7953
vn -0.263221 0.9560747 -0.1289804
v 952.6719 192.1364 1034.362
v 1090.314 236.2615 1042.876
vn -0.3017274 0.9418605 -0.1478489
v 1067.496 236.2615 1089.443
v 1205.138 283.0059 1097.957
vn -0.3102596 0.9384168 -0.1520295
v 1182.32 283.0059 1144.524
v 1322.548 331.5712 1157.215
vn -0.3117705 0.9377955 -0.1527703
v 1299.73 331.5712 1203.782
v 1439.958 380.3788 1216.474
vn -0.3008478 0.9400759 -0.1604612
v 1417.14 380.3788 1263.04
v 1573.967 432.8729 1287.603
vn -0.2797298 0.9419466 -0.1857093
v 1545.845 432.8729 1328.834
v 1705.975 484.8985 1356.827
vn -0.27016 0.9410517 -0.2035564
v 1674.549 484.8986 1394.628
v 1674.247 480.7066 1394.194
vn 0.27399 -0.9395255 0.2054784
v 1705.568 480.7066 1356.286
v 1573.763 428.032 1287.333
vn 0.2835286 -0.9404302 0.1876236
v 1545.694 428.032 1328.617
v 1439.958 374.8889 1216.474
vn 0.3027268 -0.9393098 0.1614113
v 1417.141 374.8889 1263.04
v 1322.548 326.0813 1157.215
vn 0.3117701 -0.9377957 0.1527696
v 1299.73 326.0813 1203.782
v 1205.138 277.5159 1097.957
vn 0.3102593 -0.9384168 0.1520301
v 1182.32 277.5159 1144.523
v 1090.314 230.7715 1042.876
vn 0.3017273 -0.9418604 0.14785
v 1067.496 230.7715 1089.443
v 975.4901 186.6465 987.7955
vn 0.2632208 -0.9560747 0.1289808
v 952.6721 186.6465 1034.362
v 860.0299 152.2725 931.4556
vn 0.2258173 -0.9678649 0.1106524
v 837.2119 152.2725 978.0221
v 744.5696 119.8833 875.1157
vn 0.1938186 -0.9764295 0.09497266
v 721.7516 119.8833 921.6823
v 627.8314 94.9241 815.416
vn 0.1441517 -0.9870314 0.07063517
v 605.0135 94.9241 861.9826
v 511.0933 77.20876 755.7162
vn 0.1078408 -0.9927628 0.05284249
v 488.2755 77.20876 802.2828
v 393.3477 63.02167 694.2653
vn 0.07425902 -0.9965749 0.03638739
v 370.5298 63.02167 740.8318
v 280.5692 55.36442 630.4698
vn 0.03583582 -0.9992034 0.01755993
v 257.7512 55.36443 677.0364
v 178.5323 52.94324 572.975
vn -0.01897577 -0.9997947 -0.007102341
v 155.7144 52.94325 619.5415
v 71.9694 60.2177 511.0375
vn -0.05651014 -0.99813 -0.02330239
o wood_6_0
g polygon_0
usemtl th_s11
f 845/321/385 844/320/385 843/319/384
f 846/322/384 845/321/385 843/319/384
f 849/325/387 848/324/386 847/323/386
f 850/326/387 849/325/387 847/323/386
f 848/325/386 852/324/388 851/323/388
f 847/326/386 848/325/386 851/323/388
f 852/325/388 854/324/389 853/323/389
f 851/326/388 852/325/388 853/323/389
f 854/325/389 856/324/390 855/323/390
f 853/326/389 854/325/389 855/323/390
f 856/325/390 858/324/391 857/323/391
f 855/326/390 856/325/390 857/323/391
f 858/325/391 860/324/392 859/323/392
f 857/326/391 858/325/391 859/323/392
f 860/325/392 862/324/393 861/323/393
f 859/326/392 860/325/392 861/323/393
f 862/325/393 864/324/394 863/323/394
f 861/326/393 862/325/393 863/323/394
f 864/325/394 866/324/395 865/323/395
f 863/326/394 864/325/394 865/323/395
f 866/325/395 868/324/396 867/323/396
f 865/326/395 866/325/395 867/323/396
f 868/325/396 870/324/397 869/323/397
f 867/326/396 868/325/396 869/323/397
f 870/325/397 872/324/398 871/323/398
f 869/326/397 870/325/397 871/323/398
f 872/325/398 874/324/399 873/323/399
f 871/326/398 872/325/398 873/323/399
f 874/325/399 876/324/400 875/323/400
f 873/326/399 874/325/399 875/323/400
f 879/325/402 878/324/401 877/323/401
f 880/326/402 879/325/402 877/323/401
f 881/325/403 879/324/402 880/323/402
f 882/326/403 881/325/403 880/323/402
f 883/325/404 881/324/403 882/323/403
f 884/326/404 883/325/404 882/323/403
f 885/325/405 883/324/404 884/323/404
f 886/326/405 885/325/405 884/323/404
f 887/325/406 885/324/405 886/323/405
f 888/326/406 887/325/406 886/323/405
f 889/325/407 887/324/406 888/323/406
f 890/326/407 889/325/407 888/323/406
f 891/325/408 889/324/407 890/323/407
f 892/326/408 891/325/408 890/323/407
f 893/325/409 891/324/408 892/323/408
f 894/326/409 893/325/409 892/323/408
f 895/325/410 893/324/409 894/323/409
f 896/326/410 895/325/410 894/323/409
f 897/325/411 895/324/410 896/323/410
f 898/326/411 897/325/411 896/323/410
f 899/325/412 897/324/411 898/323/411
f 900/326/412 899/325/412 898/323/411
f 901/325/413 899/324/412 900/323/412
f 902/326/413 901/325/413 900/323/412
f 903/325/414 901/324/413 902/323/413
f 904/326/414 903/325/414 902/323/413
f 905/325/415 903/324/414 904/323/414
f 843/326/415 905/325/415 904/323/414
v 952.672 192.1364 1034.362
vt 0.3431832 0.9963598
vn -0.4355271 -1.189726E-06 0.9001756
vt 0.8379662 0.9963598
vn -0.4325106 -2.211586E-06 0.9016288
vt 0.8379662 0.007031083
v 952.672 186.6465 1034.362
vt 0.3431832 0.007031083
vn 0.4325091 3.460076E-07 -0.9016296
v 975.49 192.1364 987.7954
vn 0.4355273 -3.775255E-07 -0.9001756
v 975.49 186.6465 987.7954
v 488.2755 82.6987 802.2828
vn -0.4589982 -6.949122E-06 0.8884372
v 605.0135 100.414 861.9825
vn -0.4553145 -1.759196E-06 0.8903307
v 605.0135 94.9241 861.9825
v 488.2755 77.20876 802.2827
vn 0.4553135 7.800538E-06 -0.8903312
v 627.8314 100.414 815.416
v 511.0933 82.6987 755.7162
vn 0.4589984 7.411067E-06 -0.8884371
v 511.0933 77.20876 755.7161
vn -0.4506894 -0.00609381 0.89266
v 1545.845 432.873 1328.834
vn -0.4457416 -0.02739577 0.8947424
v 1417.14 374.8889 1263.04
vn 0.4560142 0.03194532 -0.889399
vn 0.4573321 0.007009139 -0.8892684
v 1439.958 374.8888 1216.474
v 257.7513 60.85437 677.0364
vn -0.4916301 -9.76545E-07 0.8708041
vn -0.4775828 -5.913056E-06 0.8785868
v 370.5298 63.02166 740.8318
v 257.7513 55.36443 677.0364
v 393.3477 63.02166 694.2653
vn 0.4775833 1.597329E-06 -0.8785865
v 280.5692 60.85437 630.4698
vn 0.4916303 -9.967738E-07 -0.870804
vn -0.4469439 1.8398E-06 0.894562
v 837.2118 157.7624 978.0222
vn -0.4385356 5.232069E-07 0.8987138
v 837.2118 152.2725 978.0222
v 721.7516 119.8833 921.6824
v 860.0298 152.2725 931.4556
vn 0.4385377 2.404733E-07 -0.8987128
v 860.0298 157.7624 931.4556
v 744.5696 125.3732 875.1158
vn 0.4469445 3.162434E-06 -0.8945617
v 744.5696 119.8833 875.1158
vn -0.4415641 1.058168E-07 0.8972297
vn -0.4505748 -5.320142E-07 0.8927387
v 1299.73 326.0812 1203.782
v 1182.32 277.5159 1144.524
v 1322.548 326.0812 1157.215
vn 0.4505756 -1.499089E-06 -0.8927382
vn 0.4415653 4.775249E-07 -0.8972291
vn -0.5000735 1.31299E-06 0.8659829
v 155.7144 52.94325 619.5416
vn 0.4967197 -1.800973E-07 -0.867911
v 1674.549 484.8986 1394.629
vn -0.4405796 -0.04260052 0.8967022
vn 0.4478037 0.04985708 -0.8927408
o wood_6_1
g polygon_0
usemtl th_s51
f 888/329/417 866/328/417 906/327/416
f 907/330/416 888/329/417 906/327/416
f 908/330/419 865/329/418 887/328/418
f 909/327/419 908/330/419 887/328/418
f 912/329/421 911/328/421 910/327/420
f 913/330/420 912/329/421 910/327/420
f 915/330/423 914/329/422 895/328/422
f 916/327/423 915/330/423 895/328/422
f 880/329/425 917/328/425 872/327/424
f 918/330/424 880/329/425 872/327/424
f 871/330/427 873/329/426 879/328/426
f 919/327/427 871/330/427 879/328/426
f 921/329/429 854/328/429 920/327/428
f 922/330/428 921/329/429 920/327/428
f 924/330/431 853/329/430 923/328/430
f 901/327/431 924/330/431 923/328/430
f 926/329/433 925/328/433 860/327/432
f 927/330/432 926/329/433 860/327/432
f 930/330/435 929/329/434 928/328/434
f 931/327/435 930/330/435 928/328/434
f 932/329/437 870/328/437 868/327/436
f 933/330/436 932/329/437 868/327/436
f 867/330/439 869/329/438 934/328/438
f 885/327/439 867/330/439 934/328/438
f 935/329/440 848/328/440 846/327/384
f 843/330/384 935/329/440 846/327/384
f 845/330/385 847/329/441 903/328/441
f 844/327/385 845/330/385 903/328/441
f 907/329/416 906/328/416 925/327/433
f 926/330/433 907/329/416 925/327/433
f 929/330/434 908/329/419 909/328/419
f 928/327/434 929/330/434 909/328/419
f 927/329/432 860/328/432 911/327/421
f 912/330/421 927/329/432 911/327/421
f 914/330/422 930/329/435 931/328/435
f 895/327/422 914/330/422 931/328/435
f 913/329/420 910/328/420 854/327/429
f 921/330/429 913/329/420 854/327/429
f 853/330/430 915/329/423 916/328/423
f 923/327/430 853/330/430 916/328/423
f 922/329/428 920/328/428 848/327/440
f 935/330/440 922/329/428 848/327/440
f 847/330/441 924/329/431 901/328/431
f 903/327/441 847/330/441 901/328/431
f 933/329/436 868/328/436 866/327/417
f 888/330/417 933/329/436 866/327/417
f 865/330/418 867/329/439 885/328/439
f 887/327/418 865/330/418 885/328/439
f 918/329/424 872/328/424 870/327/437
f 932/330/437 918/329/424 870/327/437
f 869/330/438 871/329/427 919/328/427
f 934/327/438 869/330/438 919/328/427
f 877/329/442 936/328/442 917/327/425
f 880/330/425 877/329/442 917/327/425
f 873/330/426 875/329/443 878/328/443
f 879/327/426 873/330/426 878/328/443
v 975.49 212.3823 987.7954
vt 0.001784086 0.9931354
vn -0.4346682 1.828489E-07 0.9005907
v 1090.314 256.5074 1043.974
vt 0.9925476 0.9931354
vn -0.4346879 -2.540213E-07 0.9005812
v 1090.314 236.2615 1043.974
vt 0.9925476 0.02259749
vt 0.001784086 0.02259749
v 511.0932 102.9446 756.3336
vn -0.4592651 -2.953067E-07 0.8882992
v 627.8314 120.6599 815.7789
vn -0.4613536 -1.118199E-07 0.8872163
v 627.8314 100.414 815.7789
v 511.0932 82.6987 756.3336
v 1439.958 400.6247 1218.195
vn -0.4589242 -0.004160037 0.8884656
v 1572.477 461.4505 1288.335
vn -0.4581491 -0.01456112 0.888756
v 1572.564 432.6266 1287.92
v 1439.958 380.3788 1218.195
v 275.6022 80.8761 632.8143
vn -0.4671568 1.440617E-07 0.8841745
v 393.3477 88.75751 694.5333
vn -0.4644991 -7.615522E-09 0.8855736
v 393.3477 68.5116 694.5333
v 275.6022 60.63019 632.8143
v 744.5695 144.9883 877.7527
vn -0.4498202 1.983582E-10 0.8931191
v 860.0298 178.0083 932.8279
vn -0.4301907 1.310219E-07 0.902738
v 860.0298 157.7624 932.8279
v 744.5695 124.7424 877.7527
v 1205.138 303.2517 1098.644
vn -0.4416717 -6.685397E-07 0.8971767
v 1322.548 351.8171 1158.367
vn -0.4537011 -1.16764E-06 0.8911539
v 1322.548 331.5712 1158.367
v 1205.138 283.0059 1098.644
v 74.91402 84.49318 514.7493
vn -0.5393701 -1.930816E-07 0.8420688
v 178.5323 78.57809 581.1199
vn -0.5051174 -2.918322E-09 0.8630506
v 178.5323 58.33218 581.1199
v 74.91402 64.24728 514.7493
vt 0.001243532 0.9931354
v 1709.809 516.8724 1359.538
vt 0.9925486 0.9931354
vn -0.4524574 -0.02080257 0.8915433
v 1709.981 487.3037 1358.722
vt 0.9925486 0.9931353
vt 0.9925486 0.02259755
vt 0.001784086 0.02259755
vn 0.4415667 -4.287261E-07 -0.8972284
v 1182.32 303.2518 1144.524
v 1067.496 256.5073 1089.443
vn 0.4325108 2.647246E-07 -0.9016287
vn 0.4537357 -7.267862E-08 -0.8911363
v 721.7516 145.6191 921.6824
v 605.0135 120.0772 859.7245
vn 0.4600981 -1.432829E-07 -0.8878681
v 605.0135 99.83134 859.7245
v 1674.549 486.262 1394.629
vn 0.4522112 0.01925029 -0.8917031
v 1674.545 515.8306 1395.462
v 1544.145 461.4505 1327.961
vn 0.4517227 0.01349119 -0.8920564
v 1544.147 432.6266 1327.537
v 488.2755 81.38155 800.679
vn 0.4620999 2.401368E-07 -0.8868279
v 488.2755 101.6274 800.679
v 370.5298 88.75751 737.5038
vn 0.4803699 -1.067225E-08 -0.877066
v 370.5298 68.51161 737.5038
vn 0.4355254 -9.118276E-08 -0.9001764
v 952.6719 212.3823 1034.362
v 837.2118 178.0083 978.0222
vn 0.4385351 -1.63809E-07 -0.8987141
vn 0.4509004 0.003866156 -0.8925658
v 1417.14 400.6246 1263.04
v 1299.73 351.8171 1203.782
vn 0.4505765 -1.411132E-07 -0.8927379
v 252.7842 60.1605 671.6876
vn 0.4874946 -1.596406E-07 -0.873126
v 252.7842 80.4064 671.6876
v 161.8748 79.32491 620.9877
vn 0.499677 3.520611E-08 -0.8662118
v 161.8748 59.07898 620.9877
v 58.2566 84.29408 559.1968
vn 0.5121781 8.866937E-08 -0.8588793
v 58.2566 64.04817 559.1968
vn -0.4325108 2.647248E-07 0.9016288
vn -0.4415667 -4.287258E-07 0.8972284
vn -0.4600977 -1.432829E-07 0.8878683
vn -0.4537353 -7.267871E-08 0.8911365
vn -0.4517218 -0.01349143 0.8920569
vn -0.4522106 -0.01925113 0.8917034
vn -0.4803702 -1.067224E-08 0.8770658
vn -0.4620998 2.401368E-07 0.8868279
vn -0.4385346 -1.638089E-07 0.8987143
vn -0.435525 -9.118256E-08 0.9001766
vn -0.4505773 -1.41113E-07 0.8927374
vn -0.4509006 -0.003865364 0.8925658
vn -0.4996771 3.520612E-08 0.8662118
vn -0.4874949 -1.596406E-07 0.8731258
vn -0.5121779 8.866937E-08 0.8588794
vn 0.4346865 -2.540214E-07 -0.9005818
vn 0.4346674 1.828489E-07 -0.9005911
vn 0.4613534 -1.118199E-07 -0.8872164
vn 0.4592653 -2.953067E-07 -0.8882992
vn 0.4581488 0.01456081 -0.8887563
vn 0.4589233 0.004158791 -0.8884661
vn 0.4644993 -7.615527E-09 -0.8855735
vn 0.4671568 1.440618E-07 -0.8841745
vn 0.4301895 1.310219E-07 -0.9027386
vn 0.4498194 1.983298E-10 -0.8931195
vn 0.4537017 -1.16764E-06 -0.8911536
vn 0.4416716 -6.685397E-07 -0.8971768
vn 0.5051172 -2.918329E-09 -0.8630508
vn 0.5393702 -1.930816E-07 -0.8420687
vn 0.452458 0.02080173 -0.8915431
o wood_6_2
g polygon_0
usemtl l_s1
f 939/333/445 938/332/445 937/331/444
f 908/334/444 939/333/445 937/331/444
f 942/333/447 941/332/447 940/331/446
f 943/334/446 942/333/447 940/331/446
f 946/333/449 945/332/449 944/331/448
f 947/334/448 946/333/449 944/331/448
f 950/333/451 949/332/451 948/331/450
f 951/334/450 950/333/451 948/331/450
f 954/333/453 953/332/453 952/331/452
f 955/334/452 954/333/453 952/331/452
f 958/333/455 957/332/455 956/331/454
f 959/334/454 958/333/455 956/331/454
f 962/333/457 961/332/457 960/331/456
f 963/334/456 962/333/457 960/331/456
f 965/333/458 964/336/458 945/335/449
f 946/334/449 965/333/458 945/335/449
f 947/338/448 944/337/448 957/331/455
f 958/339/455 947/338/448 957/331/455
f 959/338/454 956/337/454 938/331/445
f 939/339/445 959/338/454 938/331/445
f 908/338/444 937/337/444 953/331/453
f 954/339/453 908/338/444 953/331/453
f 955/338/452 952/337/452 941/331/447
f 942/339/447 955/338/452 941/331/447
f 943/338/446 940/337/446 949/331/451
f 950/339/451 943/338/446 949/331/451
f 951/338/450 948/337/450 961/331/457
f 962/339/457 951/338/450 961/331/457
f 967/331/460 966/337/459 868/338/459
f 866/339/460 967/331/460 868/338/459
f 969/331/462 968/337/461 860/338/461
f 970/339/462 969/331/462 860/338/461
f 973/335/464 972/336/463 971/333/463
f 974/334/464 973/335/464 971/333/463
f 977/331/466 976/337/465 975/338/465
f 978/339/466 977/331/466 975/338/465
f 980/331/468 979/337/467 864/338/467
f 925/339/468 980/331/468 864/338/467
f 982/331/470 981/337/469 872/338/469
f 870/339/470 982/331/470 872/338/469
f 985/331/472 984/337/471 983/338/471
f 986/339/472 985/331/472 983/338/471
f 981/331/469 973/332/464 974/333/464
f 872/334/469 981/331/469 974/333/464
f 966/331/459 982/332/470 870/333/470
f 868/334/459 966/331/459 870/333/470
f 979/331/467 967/332/460 866/333/460
f 864/334/467 979/331/467 866/333/460
f 968/331/461 980/332/468 925/333/468
f 860/334/461 968/331/461 925/333/468
f 976/331/465 969/332/462 970/333/462
f 975/334/465 976/331/465 970/333/462
f 984/331/471 977/332/466 978/333/466
f 983/334/471 984/331/471 978/333/466
f 987/331/473 985/332/472 986/333/472
f 988/334/473 987/331/473 986/333/472
f 868/338/475 966/337/475 967/331/474
f 866/339/474 868/338/475 967/331/474
f 860/338/477 968/337/477 969/331/476
f 970/339/476 860/338/477 969/331/476
f 971/333/479 972/336/479 973/335/478
f 974/334/478 971/333/479 973/335/478
f 975/338/481 976/337/481 977/331/480
f 978/339/480 975/338/481 977/331/480
f 864/338/483 979/337/483 980/331/482
f 925/339/482 864/338/483 980/331/482
f 872/338/485 981/337/485 982/331/484
f 870/339/484 872/338/485 982/331/484
f 983/338/487 984/337/487 985/331/486
f 986/339/486 983/338/487 985/331/486
f 974/333/478 973/332/478 981/331/485
f 872/334/485 974/333/478 981/331/485
f 870/333/484 982/332/484 966/331/475
f 868/334/475 870/333/484 966/331/475
f 866/333/474 967/332/474 979/331/483
f 864/334/483 866/333/474 979/331/483
f 925/333/482 980/332/482 968/331/477
f 860/334/477 925/333/482 968/331/477
f 970/333/476 969/332/476 976/331/481
f 975/334/481 970/333/476 976/331/481
f 978/333/480 977/332/480 984/331/487
f 983/334/487 978/333/480 984/331/487
f 986/333/486 985/332/486 987/331/488
f 988/334/488 986/333/486 987/331/488
f 937/331/490 938/332/489 939/333/489
f 908/334/490 937/331/490 939/333/489
f 940/331/492 941/332/491 942/333/491
f 943/334/492 940/331/492 942/333/491
f 944/331/494 945/332/493 946/333/493
f 947/334/494 944/331/494 946/333/493
f 948/331/496 949/332/495 950/333/495
f 951/334/496 948/331/496 950/333/495
f 952/331/498 953/332/497 954/333/497
f 955/334/498 952/331/498 954/333/497
f 956/331/500 957/332/499 958/333/499
f 959/334/500 956/331/500 958/333/499
f 960/331/502 961/332/501 962/333/501
f 963/334/502 960/331/502 962/333/501
f 945/335/493 964/336/503 965/333/503
f 946/334/493 945/335/493 965/333/503
f 957/331/499 944/337/494 947/338/494
f 958/339/499 957/331/499 947/338/494
f 938/331/489 956/337/500 959/338/500
f 939/339/489 938/331/489 959/338/500
f 953/331/497 937/337/490 908/338/490
f 954/339/497 953/331/497 908/338/490
f 941/331/491 952/337/498 955/338/498
f 942/339/491 941/331/491 955/338/498
f 949/331/495 940/337/492 943/338/492
f 950/339/495 949/331/495 943/338/492
f 961/331/501 948/337/496 951/338/496
f 962/339/501 961/331/501 951/338/496
v 1816.696 947.5292 1643.47
vt -0.002601326 0.9267516
vn -0.9487472 0.1146321 -0.2945136
v 1825.865 975.9128 1624.983
vt 0.9882828 0.9822723
vn -0.948747 0.1146342 -0.2945134
v 1819.775 975.8185 1644.564
vt -0.002601326 0.9822723
vn -0.9487464 0.1146329 -0.2945156
v 1822.786 947.6235 1623.889
vt 0.9882828 0.9267516
vn -0.9487475 0.1146328 -0.2945125
v 1832.83 976.0205 1602.586
vt -0.002601295 0.9822723
vn -0.9487475 0.1146355 -0.2945112
v 1829.751 947.7311 1601.493
vt -0.002601295 0.9267516
vn -0.9487477 0.1146336 -0.2945113
v 1772.208 482.8564 1605.924
vt 0.9882829 0.01459819
vn -0.9487479 0.1146315 -0.2945116
v 1779.173 482.9641 1583.527
vt -0.002601295 0.01459819
vn -0.9487479 0.1146317 -0.2945114
v 1766.118 482.7622 1625.505
vt -0.002601326 0.01459819
vn -0.9487479 0.1146313 -0.2945117
o wood_5_0
g polygon_0
usemtl stair_s
f 991/342/506 990/341/505 989/340/504
f 989/340/504 990/341/505 992/343/507
f 990/341/505 993/344/508 992/343/507
f 992/343/507 993/344/508 994/345/509
f 996/347/511 995/346/510 994/345/509
f 994/345/509 995/346/510 992/343/507
f 995/346/510 997/348/512 992/343/507
f 992/343/507 997/348/512 989/340/504
v 1899.456 974.4837 1616.144
vt -1.398303 0.8289593
vn 0.8035166 0.116412 -0.5837888
v 1899.194 482.7511 1548.199
vt -1.046246 0.06553537
vn 0.3069156 0.1164119 -0.9445904
v 1946.084 482.7511 1582.267
vt -1.398303 0.06553537
v 1881.384 974.4837 1603.013
vt -1.046246 0.8289593
v 1841.235 482.7511 1548.199
vt -0.6941893 0.06553537
vn -0.3069173 0.1164118 -0.9445899
v 1859.045 974.4837 1603.013
vt -0.6941893 0.8289593
v 1794.345 482.7511 1582.267
vt -0.3421331 0.06553537
vn -0.8035172 0.1164115 -0.583788
v 1840.973 974.4837 1616.144
vt -0.3421331 0.8289593
v 1776.435 482.7511 1637.389
vt 0.009923568 0.06553537
vn -0.9932011 0.1164114 3.288152E-07
v 1834.07 974.4837 1637.389
vt 0.009923568 0.8289593
v 1794.345 482.7511 1692.512
vt 0.3619802 0.06553537
vn -0.8035173 0.1164115 0.5837879
v 1840.973 974.4837 1658.635
vt 0.3619802 0.8289593
v 1841.235 482.7511 1726.579
vt 0.714037 0.06553537
vn -0.3069174 0.1164119 0.9445899
v 1859.045 974.4837 1671.765
vt 0.714037 0.8289593
v 1899.194 482.7511 1726.579
vt 1.066094 0.06553537
vn 5.063085E-07 0.110786 0.9938443
v 1881.384 974.4837 1671.765
vt 1.066094 0.8289593
v 1963.995 482.7511 1637.389
vt 1.770207 0.06553537
vn 0.9452024 0.1107859 -0.307114
v 1906.359 974.4837 1637.389
vt 1.770207 0.8289593
v 1913.448 1030.923 1605.978
vt 0.007105225 1.000517
vn 0.808542 0.03427115 -0.5874397
v 1887.335 973.6933 1584.698
vt -0.5601187 -0.0127213
vn 0.3088339 0.03427186 -0.9504983
v 1915.036 973.6933 1604.824
vt 0.007105225 -0.0127213
v 1886.728 1030.923 1586.565
vt -0.5601187 1.000517
v 1853.094 973.6933 1584.698
vt -0.2712299 -0.0127213
vn -0.3088339 0.0342719 -0.9504983
v 1853.701 1030.923 1586.565
vt -0.2712299 1.000517
v 1825.393 973.6933 1604.824
vt 0.01765934 -0.0127213
vn -0.8085417 0.03427104 -0.5874401
v 1826.981 1030.923 1605.978
vt 0.01765934 1.000517
v 1814.813 973.6933 1637.389
vt 0.3065484 -0.0127213
vn -0.9994127 0.03426897 1.190701E-06
v 1816.775 1030.923 1637.389
vt 0.3065484 1.000517
v 1825.393 973.6933 1669.954
vt 0.5954377 -0.0127213
vn -0.808542 0.03426829 0.5874398
v 1826.981 1030.923 1668.8
vt 0.5954377 1.000517
v 1853.094 973.6933 1690.08
vt 0.8843269 -0.0127213
vn -0.3088362 0.03426887 0.9504977
v 1853.701 1030.923 1688.213
vt 0.8843269 1.000517
v 1887.335 973.6933 1690.08
vt 1.173216 -0.0127213
vn 0.3088332 0.0342693 0.9504986
v 1886.728 1030.923 1688.213
vt 1.173216 1.000517
v 1915.036 973.6933 1669.954
vt 1.462106 -0.0127213
vn 0.8085411 0.03426879 0.587441
v 1913.448 1030.923 1668.8
vt 1.462106 1.000517
v 1925.617 973.6933 1637.389
vt 0.8948821 -0.0127213
vn 0.9994127 0.03426919 1.660715E-06
v 1923.654 1030.923 1637.389
vt 0.8948821 1.000517
vt -0.469587 -0.2273396
vn 0 -1 2.03122E-07
v 1870.215 973.6933 1637.389
vt 0.4999999 -0.6682384
vt -0.7466119 -0.2273396
v 1853.094 973.6934 1584.699
vt -0.1925622 -0.2273396
vn 0 -1 -6.131771E-07
v 1870.215 973.6934 1637.389
v 1887.335 973.6934 1584.699
v 1825.393 973.6932 1604.824
vt 0.0844627 -0.2273396
vn 0 -1 -8.773047E-08
v 1870.215 973.6932 1637.389
v 1853.094 973.6932 1584.698
vt 0.3614876 -0.2273396
vn 0 -1 -8.146616E-07
v 1825.393 973.6934 1669.954
vt 0.6385125 -0.2273396
vn 0 -1 1.358509E-07
v 1814.813 973.6934 1637.389
vt 0.9155374 -0.2273396
vn 0 -1 2.274166E-06
v 1887.335 973.6932 1690.08
vt 1.192562 -0.2273396
vn 0 -1 3.100274E-07
v 1870.214 973.6932 1637.389
v 1853.094 973.6932 1690.08
vt 1.469587 -0.2273396
vn 0 -1 1.090239E-07
vt 1.746612 -0.2273396
vn 0 -1 -1.66263E-06
v 1915.036 973.6934 1604.825
vn 0 -1 -4.479879E-07
v 1925.617 973.6934 1637.389
o wood_5_1
g polygon_0
usemtl to_s1
f 1000/351/513 999/350/514 998/349/513
f 998/349/513 999/350/514 1001/352/514
f 999/350/514 1002/353/515 1001/352/514
f 1001/352/514 1002/353/515 1003/354/515
f 1002/353/515 1004/355/516 1003/354/515
f 1003/354/515 1004/355/516 1005/356/516
f 1004/355/516 1006/357/517 1005/356/516
f 1005/356/516 1006/357/517 1007/358/517
f 1006/357/517 1008/359/518 1007/358/517
f 1007/358/517 1008/359/518 1009/360/518
f 1008/359/518 1010/361/519 1009/360/518
f 1009/360/518 1010/361/519 1011/362/519
f 1010/361/519 1012/363/520 1011/362/519
f 1011/362/519 1012/363/520 1013/364/520
f 1015/366/521 1014/365/521 1000/351/513
f 998/349/513 1015/366/521 1000/351/513
f 1018/369/522 1017/368/523 1016/367/522
f 1016/367/522 1017/368/523 1019/370/523
f 1017/368/523 1020/371/524 1019/370/523
f 1019/370/523 1020/371/524 1021/372/524
f 1020/371/524 1022/373/525 1021/372/524
f 1021/372/524 1022/373/525 1023/374/525
f 1022/373/525 1024/375/526 1023/374/525
f 1023/374/525 1024/375/526 1025/376/526
f 1024/375/526 1026/377/527 1025/376/526
f 1025/376/526 1026/377/527 1027/378/527
f 1026/377/527 1028/379/528 1027/378/527
f 1027/378/527 1028/379/528 1029/380/528
f 1028/379/528 1030/381/529 1029/380/528
f 1029/380/528 1030/381/529 1031/382/529
f 1030/381/529 1032/383/530 1031/382/529
f 1031/382/529 1032/383/530 1033/384/530
f 1032/383/530 1034/385/531 1033/384/530
f 1033/384/530 1034/385/531 1035/386/531
f 1034/385/531 1018/369/522 1035/386/531
f 1035/386/531 1018/369/522 1016/367/522
f 1018/389/532 1036/388/532 1017/387/532
f 1039/387/533 1038/388/533 1037/390/533
f 1042/390/534 1041/388/534 1040/391/534
f 1022/391/535 1036/388/535 1024/392/535
f 1044/392/536 1038/388/536 1043/393/536
f 1026/393/537 1036/388/537 1028/394/537
f 1047/394/538 1046/388/538 1045/395/538
f 1030/395/539 1036/388/539 1032/396/539
f 1032/396/540 1036/388/540 1034/397/540
f 1049/397/541 1038/388/541 1048/389/541
v 1878.979 1224.738 1647.48
vt 0.07985432 0.9670202
vn 0.8126665 0.01357457 -0.582571
v 1866.502 973.0219 1636.994
vt 0.2487971 0.03354096
vn -0.678695 0.04664715 -0.7329374
v 1876.391 972.7983 1637.507
vt 0.07985432 0.03354096
v 1873.117 1224.871 1646.392
vt 0.2487971 0.9670202
v 1866.692 972.7063 1644.918
vt 0.4177396 0.03354096
vn -0.7942711 0.005729151 0.6075364
v 1873.23 1224.684 1651.089
vt 0.4177396 0.9670202
v 1874.291 972.4608 1647.18
vt 0.5866824 0.03354096
vn 0.503916 -0.02518384 0.8633854
v 1877.734 1224.538 1652.431
vt 0.5866824 0.9670202
vt 0.8400967 0.03354096
vt 0.8400967 0.9670202
o wood_5_2
g polygon_0
usemtl su_s1
f 1052/400/542 1051/399/543 1050/398/542
f 1050/398/542 1051/399/543 1053/401/543
f 1051/399/543 1054/402/544 1053/401/543
f 1053/401/543 1054/402/544 1055/403/544
f 1054/402/544 1056/404/545 1055/403/544
f 1055/403/544 1056/404/545 1057/405/545
f 1056/404/545 1052/406/542 1057/405/545
f 1057/405/545 1052/406/542 1050/407/542
