# Blender 5.1.2
# www.blender.org
o msWaitLessStone
v 0.163123 -4.484692 0.099350
v 0.163123 -4.484591 0.666751
v 0.341257 -4.428852 0.700820
v 0.352385 -4.432750 0.666742
v 0.670684 -4.287121 0.099315
v 0.670684 -4.287019 0.666716
v 0.919316 -4.088615 0.099280
v 0.428817 -3.927009 1.042996
v 0.653422 -4.286567 0.701393
v 0.919316 -4.088513 0.666681
v 0.895870 -4.092283 0.702175
v 4.282479 -0.667972 0.666069
v 4.269124 -0.644848 0.716060
v 4.037733 -0.140975 1.042319
v 4.388307 -0.466046 0.666033
v 4.388307 -0.466148 0.098632
v 4.462657 -0.241335 0.098592
v 4.438730 -0.228780 0.717736
v 4.462657 -0.241233 0.665993
v 4.465395 0.000550 0.718660
v 0.163123 4.362752 -0.000780
v 0.352385 4.434361 0.097756
v 0.670684 4.278376 0.097784
v 0.919316 3.977799 -0.000710
v 4.282480 0.675918 0.098428
v 4.193070 0.675901 -0.000120
v 0.352385 4.317740 -0.000772
v 0.670684 4.165858 -0.000745
v 4.373247 -0.241352 0.000043
v 0.919316 -3.981122 0.000712
v 0.670684 -4.174407 0.000746
v 0.352385 -4.316304 0.000771
v 4.491165 0.000119 0.665950
v 4.462883 0.240347 0.098506
v 4.388307 0.466283 0.665866
v 0.000000 3.956676 1.118536
v 0.213587 3.918468 1.118543
v 0.691105 3.573121 1.118604
v 3.915837 0.120364 1.119222
v 3.915724 -0.120477 1.119265
v 3.937294 -0.000056 1.119243
v 3.825635 -0.416870 1.119318
v 0.531827 -3.689040 1.119903
v 0.236578 4.058782 1.041568
v 0.441935 3.783790 1.118567
v 0.729845 3.690133 1.041635
v 3.932351 0.464436 1.042211
v 3.825635 0.421175 1.119168
v 0.179581 -3.897126 1.119940
v 0.200588 -4.016339 1.043012
v 0.371626 -3.823865 1.119926
v 0.597606 -3.797344 1.042973
v 3.932351 -0.459496 1.042376
v 4.462883 0.240448 0.665907
v 4.436772 0.228483 0.719577
v 4.037863 0.140749 1.042269
v 4.059312 -0.000114 1.042294
v 4.264055 0.650404 0.721277
v 4.282479 0.676019 0.665829
v 0.891231 4.044165 0.734945
v 0.478099 3.917264 1.041594
v 0.919316 4.085340 0.665219
v 0.919316 4.085238 0.097818
v 0.670684 4.278477 0.665185
v 0.639645 4.244332 0.735752
v 0.333123 4.398165 0.736371
v 0.352385 4.434463 0.665156
v 0.163123 4.480687 0.665149
v 0.000000 4.491284 0.665147
v 0.163123 4.480586 0.097748
v 0.000000 4.491183 0.097746
v 0.000000 -4.491148 0.099351
v 0.163123 -4.366783 0.000781
v 0.352385 -4.432851 0.099341
v 4.282480 -0.668075 0.098668
v 4.193070 -0.668093 0.000119
v 4.298898 -0.466166 0.000083
v 4.401755 -0.000001 0.000000
v 4.491165 0.000017 0.098549
v 4.373472 0.240329 -0.000043
v 4.388307 0.466181 0.098466
v 4.298898 0.466164 -0.000083
v 0.000000 -4.491047 0.666753
v -0.163123 -4.484591 0.666751
v -0.341257 -4.428852 0.700820
v 0.000000 -4.486230 0.700589
v -0.200588 -4.016339 1.043012
v -0.352385 -4.432750 0.666742
v -0.670684 -4.287019 0.666716
v -0.919316 -4.088615 0.099280
v -0.653422 -4.286567 0.701393
v -0.919316 -4.088513 0.666681
v -4.282480 -0.668075 0.098668
v -0.895870 -4.092283 0.702175
v -0.597606 -3.797344 1.042973
v -4.282479 -0.667972 0.666069
v -4.269124 -0.644848 0.716060
v -4.388307 -0.466046 0.666033
v -4.462657 -0.241335 0.098592
v -4.462657 -0.241233 0.665993
v -4.491165 0.000119 0.665950
v -4.438730 -0.228780 0.717736
v -0.163123 4.480586 0.097748
v -0.352385 4.434361 0.097756
v -4.282480 0.675918 0.098428
v -0.352385 4.317740 -0.000772
v 0.000000 4.373067 -0.000782
v -0.163123 4.362752 -0.000780
v 0.000000 0.000000 0.000000
v -0.919316 3.977799 -0.000710
v -0.670684 4.165858 -0.000745
v -4.373472 0.240329 -0.000043
v -4.401755 -0.000001 0.000000
v -4.298898 -0.466166 0.000083
v -4.193070 -0.668093 0.000119
v -0.919316 -3.981122 0.000712
v -0.352385 -4.316304 0.000771
v -0.163123 -4.366783 0.000781
v 0.000000 -4.373067 0.000782
v -4.462883 0.240347 0.098506
v -4.462883 0.240448 0.665907
v -4.388307 0.466283 0.665866
v -4.282479 0.676019 0.665829
v 0.000000 0.000200 1.119243
v -3.825635 0.421175 1.119168
v 0.000000 4.093270 1.041562
v -0.213587 3.918468 1.118543
v -0.478099 3.917264 1.041594
v -0.441935 3.783790 1.118567
v -0.691105 3.573121 1.118604
v -4.037863 0.140749 1.042269
v -3.915837 0.120364 1.119222
v -4.059312 -0.000114 1.042294
v 0.000000 -4.056561 1.043019
v -0.179581 -3.897126 1.119940
v 0.000000 -3.938169 1.119947
v -0.371626 -3.823865 1.119926
v -0.428817 -3.927009 1.042996
v -0.531827 -3.689040 1.119903
v -3.825635 -0.416870 1.119318
v -3.932351 -0.459496 1.042376
v -3.915724 -0.120477 1.119265
v -4.037733 -0.140975 1.042319
v -3.937294 -0.000056 1.119243
v -4.465395 0.000550 0.718660
v -4.436772 0.228483 0.719577
v -4.264055 0.650404 0.721277
v -3.932351 0.464436 1.042211
v -0.729845 3.690133 1.041635
v -0.919316 4.085340 0.665219
v -0.919316 4.085238 0.097818
v -0.891231 4.044165 0.734945
v -0.670684 4.278477 0.665185
v -0.670684 4.278376 0.097784
v -0.639645 4.244332 0.735752
v -0.236578 4.058782 1.041568
v -0.352385 4.434463 0.665156
v -0.333123 4.398165 0.736371
v 0.000000 4.450952 0.736584
v -0.163123 4.480687 0.665149
v -0.163123 -4.484692 0.099350
v -0.352385 -4.432851 0.099341
v -0.670684 -4.287121 0.099315
v -0.670684 -4.174407 0.000746
v -4.388307 -0.466148 0.098632
v -4.373247 -0.241352 0.000043
v -4.491165 0.000017 0.098549
v -4.388307 0.466181 0.098466
v -4.298898 0.466164 -0.000083
v -4.193070 0.675901 -0.000120
vn -0.0000 -1.0000 0.0002
vn 0.1529 -0.9882 0.0002
vn 0.1590 -0.9872 0.0109
vn 0.0227 -0.5732 0.8191
vn 0.3414 -0.9399 0.0002
vn 0.1641 -0.9766 0.1390
vn -0.0000 -0.9900 0.1409
vn 0.3453 -0.9322 0.1087
vn 0.3252 -0.9218 0.2109
vn 0.5240 -0.8517 0.0002
vn 0.5306 -0.8365 0.1367
vn 0.6697 -0.7426 0.0001
vn 0.1785 -0.5959 0.7830
vn 0.1598 -0.5607 0.8125
vn 0.0020 -0.6210 0.7838
vn 0.0023 -0.5839 0.8118
vn 0.2910 -0.5106 0.8091
vn 0.3272 -0.5369 0.7776
vn 0.4809 -0.8402 0.2506
vn 0.3866 -0.4372 0.8121
vn 0.6657 -0.7250 0.1767
vn 0.8081 -0.5890 0.0001
vn 0.5426 -0.6165 0.5706
vn 0.5204 -0.3141 0.7941
vn 0.7836 -0.5803 0.2220
vn 0.6564 -0.4385 0.6139
vn 0.5659 -0.1428 0.8120
vn 0.8736 -0.3668 0.3197
vn 0.9206 -0.3904 0.0001
vn 0.9762 -0.2167 -0.0000
vn 0.9497 -0.2142 0.2283
vn 1.0000 -0.0002 -0.0000
vn 0.9751 -0.0004 0.2218
vn 0.7564 -0.1781 0.6293
vn 0.5813 0.0014 0.8137
vn 0.7852 0.0010 0.6193
vn -0.0000 0.6406 -0.7679
vn 0.0937 0.6384 -0.7640
vn -0.0000 0.6410 -0.7675
vn 0.1011 0.6390 -0.7625
vn 0.2148 0.6293 -0.7468
vn 0.2388 0.6284 -0.7403
vn 0.3580 0.6132 -0.7041
vn 0.3981 0.6066 -0.6881
vn 0.4929 0.5856 -0.6435
vn 0.5287 0.5741 -0.6252
vn 0.6640 0.4418 -0.6033
vn 0.6394 0.5045 -0.5802
vn -0.0000 -0.0002 -1.0000
vn 0.9763 0.2163 -0.0000
vn 0.9426 0.2269 0.2451
vn 0.9237 0.3831 -0.0001
vn 0.8619 0.3344 0.3812
vn 0.8122 0.5834 -0.0001
vn 0.7842 0.5720 0.2405
vn 0.1014 0.2570 0.9611
vn -0.0000 0.2756 0.9613
vn -0.0000 0.0002 1.0000
vn 0.1655 0.2248 0.9602
vn 0.1867 0.5463 0.8165
vn -0.0000 0.5801 0.8146
vn 0.3376 0.4742 0.8131
vn 0.3912 0.4078 0.8250
vn 0.4181 0.4383 0.7957
vn 0.5129 0.3187 0.7971
vn 0.4706 0.3022 0.8290
vn 0.5662 0.1320 0.8137
vn 0.5144 0.1239 0.8485
vn 0.5277 -0.0001 0.8494
vn 0.1557 -0.5193 0.8403
vn -0.0000 -0.5449 0.8385
vn 0.2690 -0.4677 0.8420
vn 0.3572 -0.3869 0.8501
vn 0.4750 -0.3012 0.8268
vn 0.5164 -0.1309 0.8463
vn 0.7556 0.1880 0.6275
vn 0.6475 0.4330 0.6270
vn 0.4951 0.5496 0.6729
vn 0.5398 0.6115 0.5785
vn 0.6641 0.7476 -0.0001
vn 0.5144 0.8112 0.2780
vn 0.5295 0.8483 -0.0002
vn 0.4083 0.6386 0.6523
vn 0.2318 0.7433 0.6275
vn -0.0000 0.7637 0.6456
vn 0.3177 0.9113 0.2617
vn 0.3406 0.9402 -0.0002
vn 0.1639 0.9236 0.3466
vn -0.0000 0.9678 0.2515
vn 0.1516 0.9884 -0.0002
vn -0.0000 1.0000 -0.0002
vn -0.0000 -0.6408 -0.7677
vn -0.0000 -0.6411 -0.7675
vn 0.0934 -0.6384 -0.7640
vn 0.1035 -0.6389 -0.7623
vn 0.2178 -0.6292 -0.7461
vn 0.2357 -0.6292 -0.7406
vn 0.3503 -0.6148 -0.7066
vn 0.3972 -0.6064 -0.6888
vn 0.4995 -0.5830 -0.6408
vn 0.5329 -0.5723 -0.6233
vn 0.6616 -0.4484 -0.6010
vn 0.6379 -0.5083 -0.5786
vn 0.7089 -0.2898 -0.6431
vn 0.7040 -0.3107 -0.6386
vn 0.7316 -0.1558 -0.6637
vn 0.7299 -0.1698 -0.6622
vn 0.7406 -0.0003 -0.6719
vn 0.7316 0.1552 -0.6638
vn 0.7299 0.1693 -0.6623
vn 0.7100 0.2846 -0.6442
vn 0.7057 0.3032 -0.6403
vn -0.1529 -0.9882 0.0002
vn -0.1590 -0.9872 0.0109
vn -0.0227 -0.5732 0.8191
vn -0.1641 -0.9766 0.1390
vn -0.1836 -0.5921 0.7847
vn -0.3414 -0.9399 0.0002
vn -0.1651 -0.5600 0.8119
vn -0.3453 -0.9322 0.1087
vn -0.3252 -0.9218 0.2109
vn -0.5240 -0.8517 0.0002
vn -0.5306 -0.8365 0.1367
vn -0.6697 -0.7426 0.0001
vn -0.3220 -0.5337 0.7820
vn -0.4809 -0.8402 0.2506
vn -0.2908 -0.5153 0.8062
vn -0.6657 -0.7250 0.1767
vn -0.8081 -0.5890 0.0001
vn -0.5423 -0.6157 0.5717
vn -0.3875 -0.4383 0.8110
vn -0.7836 -0.5803 0.2220
vn -0.6560 -0.4435 0.6107
vn -0.5126 -0.3191 0.7971
vn -0.8736 -0.3668 0.3197
vn -0.9206 -0.3904 0.0001
vn -0.9762 -0.2167 -0.0000
vn -0.9497 -0.2142 0.2283
vn -1.0000 -0.0002 -0.0000
vn -0.9751 -0.0004 0.2218
vn -0.7594 -0.1744 0.6269
vn -0.5643 -0.1349 0.8145
vn -0.7852 -0.0005 0.6193
vn -0.5813 -0.0017 0.8137
vn -0.0937 0.6384 -0.7640
vn -0.1011 0.6390 -0.7625
vn -0.2148 0.6293 -0.7468
vn -0.2388 0.6284 -0.7403
vn -0.3580 0.6132 -0.7041
vn -0.3981 0.6066 -0.6881
vn -0.4929 0.5856 -0.6435
vn -0.5287 0.5741 -0.6252
vn -0.6640 0.4418 -0.6033
vn -0.6394 0.5045 -0.5802
vn -0.9763 0.2163 -0.0000
vn -0.9426 0.2269 0.2451
vn -0.9237 0.3831 -0.0001
vn -0.8619 0.3344 0.3812
vn -0.8122 0.5834 -0.0001
vn -0.7846 0.5716 0.2402
vn -0.1014 0.2570 0.9611
vn -0.1655 0.2248 0.9602
vn -0.1867 0.5463 0.8165
vn -0.3436 0.4751 0.8101
vn -0.3912 0.4078 0.8250
vn -0.4173 0.4419 0.7941
vn -0.5202 0.3153 0.7937
vn -0.4706 0.3022 0.8290
vn -0.5676 0.1396 0.8114
vn -0.5144 0.1239 0.8485
vn -0.5277 -0.0001 0.8494
vn -0.1557 -0.5193 0.8403
vn -0.2690 -0.4677 0.8420
vn -0.3572 -0.3869 0.8501
vn -0.4750 -0.3012 0.8268
vn -0.5164 -0.1309 0.8463
vn -0.7528 0.1917 0.6298
vn -0.6472 0.4282 0.6307
vn -0.6324 0.7143 0.2997
vn -0.6641 0.7476 -0.0001
vn -0.4894 0.5494 0.6772
vn -0.5295 0.8483 -0.0002
vn -0.4523 0.7060 0.5449
vn -0.4084 0.6372 0.6536
vn -0.3406 0.9402 -0.0002
vn -0.2736 0.8112 0.5168
vn -0.2340 0.7434 0.6265
vn -0.1639 0.9236 0.3466
vn -0.1516 0.9884 -0.0002
vn -0.0934 -0.6384 -0.7640
vn -0.1035 -0.6389 -0.7623
vn -0.2178 -0.6292 -0.7461
vn -0.2357 -0.6292 -0.7406
vn -0.3503 -0.6148 -0.7066
vn -0.3972 -0.6064 -0.6888
vn -0.4995 -0.5830 -0.6408
vn -0.5329 -0.5723 -0.6233
vn -0.6616 -0.4484 -0.6010
vn -0.6378 -0.5083 -0.5786
vn -0.7089 -0.2898 -0.6431
vn -0.7040 -0.3107 -0.6386
vn -0.7316 -0.1558 -0.6637
vn -0.7299 -0.1698 -0.6622
vn -0.7406 -0.0003 -0.6719
vn -0.7316 0.1552 -0.6638
vn -0.7299 0.1693 -0.6623
vn -0.7100 0.2846 -0.6442
vn -0.7057 0.3032 -0.6403
vt 0.042500 0.917500
vt 0.041250 0.917500
vt 0.041250 0.915000
vt 0.082500 0.832500
vt 0.083750 0.832500
vt 0.083750 0.835000
vt 0.542500 0.917500
vt 0.541250 0.917500
vt 0.541250 0.915000
vt 0.582500 0.832500
vt 0.583750 0.832500
vt 0.583750 0.835000
vt 0.792500 0.917500
vt 0.791250 0.917500
vt 0.791250 0.915000
vt 0.832500 0.832500
vt 0.833750 0.832500
vt 0.833750 0.835000
vt 0.167500 0.917500
vt 0.166250 0.917500
vt 0.166250 0.915000
vt 0.207500 0.832500
vt 0.208750 0.832500
vt 0.208750 0.835000
vt 0.054356 0.262206
vt 0.050000 0.250000
vt 0.501032 0.250000
vt 0.069709 0.275255
vt 0.093725 0.289494
vt 0.453042 0.468619
vt 0.487333 0.473774
vt 0.514789 0.473767
vt 0.501061 0.475000
vt 0.548577 0.468619
vt 0.921600 0.280392
vt 0.945321 0.260262
vt 0.936970 0.271237
vt 0.950000 0.250000
vt 0.292500 0.917500
vt 0.291250 0.917500
vt 0.291250 0.915000
vt 0.332500 0.832500
vt 0.333750 0.832500
vt 0.333750 0.835000
vt 0.417500 0.917500
vt 0.416250 0.917500
vt 0.416250 0.915000
vt 0.457500 0.832500
vt 0.458750 0.832500
vt 0.458750 0.835000
vt 0.667500 0.917500
vt 0.666250 0.917500
vt 0.666250 0.915000
vt 0.707500 0.832500
vt 0.708750 0.832500
vt 0.708750 0.835000
vt 0.063125 0.876250
vt 0.061875 0.876250
vt 0.061875 0.873750
vt 0.063125 0.873750
vt 0.054356 0.237794
vt 0.069709 0.224745
vt 0.093725 0.210506
vt 0.453042 0.031381
vt 0.487333 0.026226
vt 0.514789 0.026233
vt 0.501061 0.025000
vt 0.548577 0.031381
vt 0.921600 0.219608
vt 0.945321 0.239738
vt 0.936970 0.228763
vt 0.188125 0.876250
vt 0.186875 0.876250
vt 0.186875 0.873750
vt 0.188125 0.873750
vt 0.686875 0.873750
vt 0.688125 0.873750
vt 0.688125 0.876250
vt 0.686875 0.876250
s 1
f 72/1/1 1/2/2 83/3/1
f 1/4/2 2/5/3 83/6/1
f 3/1/4 83/2/4 2/3/4
f 1/4/2 74/5/5 2/6/3
f 3/1/6 86/2/7 83/3/7
f 74/4/5 4/5/8 2/6/3
f 2/1/3 4/2/8 3/3/9
f 74/4/5 5/5/10 4/6/8
f 5/1/10 6/2/11 4/3/8
f 3/4/9 4/5/8 6/6/11
f 5/1/10 7/2/12 6/3/11
f 3/4/13 50/5/14 86/6/15
f 50/1/14 134/2/16 86/3/15
f 8/4/17 50/5/14 3/6/13
f 9/1/18 8/2/17 3/3/13
f 9/4/19 3/5/9 6/6/11
f 52/1/20 8/2/17 9/3/18
f 7/4/12 10/5/21 6/6/11
f 9/1/19 6/2/11 10/3/21
f 7/4/12 75/5/22 10/6/21
f 11/1/23 52/2/20 9/3/18
f 11/4/23 9/5/19 10/6/21
f 53/1/24 52/2/20 11/3/23
f 75/4/22 12/5/25 10/6/21
f 11/1/23 10/2/21 12/3/25
f 13/4/26 53/5/24 11/6/23
f 13/1/26 11/2/23 12/3/25
f 14/4/27 53/5/24 13/6/26
f 15/1/28 12/2/25 75/3/22
f 16/4/29 15/5/28 75/6/22
f 16/1/29 17/2/30 15/3/28
f 17/4/30 19/5/31 15/6/28
f 17/1/30 79/2/32 19/3/31
f 79/4/32 33/5/33 19/6/31
f 13/1/26 12/2/25 15/3/28
f 18/4/34 14/5/27 13/6/26
f 15/1/28 18/2/34 13/3/26
f 57/4/35 14/5/27 18/6/34
f 15/1/28 19/2/31 18/3/34
f 20/4/36 57/5/35 18/6/34
f 18/1/34 19/2/31 33/3/33
f 20/4/36 18/5/34 33/6/33
f 71/7/37 70/8/38 107/9/39
f 70/10/38 21/11/40 107/12/39
f 70/7/38 22/8/41 21/9/40
f 22/10/41 27/11/42 21/12/40
f 22/7/41 23/8/43 27/9/42
f 23/10/43 28/11/44 27/12/42
f 23/7/43 63/8/45 28/9/44
f 63/10/45 24/11/46 28/12/44
f 63/7/45 25/8/47 24/9/46
f 25/10/47 26/11/48 24/12/46
f 107/13/49 21/14/49 27/15/49
f 109/16/49 107/17/49 27/18/49
f 109/13/49 27/14/49 24/15/49
f 27/16/49 28/17/49 24/18/49
f 109/13/49 24/14/49 26/15/49
f 109/16/49 26/17/49 80/18/49
f 29/13/49 109/14/49 80/15/49
f 26/16/49 82/17/49 80/18/49
f 78/13/49 29/14/49 80/15/49
f 29/16/49 77/17/49 109/18/49
f 77/13/49 76/14/49 109/15/49
f 76/16/49 30/17/49 109/18/49
f 30/13/49 31/14/49 109/15/49
f 31/16/49 32/17/49 109/18/49
f 32/13/49 73/14/49 109/15/49
f 73/16/49 119/17/49 109/18/49
f 79/19/32 34/20/50 33/21/33
f 34/22/50 54/23/51 33/24/33
f 34/19/50 81/20/52 54/21/51
f 81/22/52 35/23/53 54/24/51
f 81/19/52 25/20/54 35/21/53
f 25/22/54 59/23/55 35/24/53
f 37/25/56 36/26/57 124/27/58
f 45/28/59 37/25/56 124/27/58
f 38/29/58 45/28/59 124/27/58
f 48/30/58 38/29/58 124/27/58
f 48/30/58 124/27/58 39/31/58
f 39/31/58 124/27/58 40/32/58
f 41/33/58 39/31/58 40/32/58
f 40/32/58 124/27/58 42/34/58
f 42/34/58 124/27/58 43/35/58
f 43/35/58 124/27/58 49/36/58
f 51/37/58 43/35/58 49/36/58
f 49/36/58 124/27/58 136/38/58
f 44/39/60 126/40/61 36/41/57
f 37/42/56 44/43/60 36/44/57
f 61/39/62 44/40/60 37/41/56
f 45/42/59 61/43/62 37/44/56
f 45/39/59 38/40/63 61/41/62
f 38/42/63 46/43/64 61/44/62
f 47/39/65 46/40/64 38/41/63
f 48/42/66 47/43/65 38/44/63
f 47/39/65 48/40/66 56/41/67
f 48/42/66 39/43/68 56/44/67
f 56/39/67 39/40/68 41/41/69
f 57/42/35 56/43/67 41/44/69
f 49/45/70 136/46/71 134/47/16
f 50/48/14 49/49/70 134/50/16
f 51/45/72 49/46/70 50/47/14
f 8/48/17 51/49/72 50/50/14
f 8/45/17 52/46/20 51/47/72
f 52/48/20 43/49/73 51/50/72
f 42/45/74 43/46/73 52/47/20
f 53/48/24 42/49/74 52/50/20
f 40/45/75 42/46/74 53/47/24
f 14/48/27 40/49/75 53/50/24
f 41/45/69 40/46/75 14/47/27
f 57/48/35 41/49/69 14/50/27
f 20/19/36 33/20/33 54/21/51
f 55/22/76 20/23/36 54/24/51
f 55/19/76 56/20/67 20/21/36
f 56/22/67 57/23/35 20/24/36
f 47/19/65 56/20/67 55/21/76
f 58/22/77 55/23/76 54/24/51
f 58/19/77 47/20/65 55/21/76
f 54/22/51 35/23/53 58/24/77
f 47/19/65 58/20/77 46/21/64
f 35/22/53 59/23/55 58/24/77
f 58/19/77 60/20/78 46/21/64
f 58/22/77 59/23/55 60/24/78
f 61/19/62 46/20/64 60/21/78
f 59/22/55 62/23/79 60/24/78
f 62/19/80 59/20/55 25/21/54
f 63/22/80 62/23/80 25/24/54
f 64/19/81 62/20/80 63/21/80
f 60/22/78 62/23/79 64/24/81
f 23/19/82 64/20/81 63/21/80
f 65/22/83 61/23/62 60/24/78
f 65/19/83 60/20/78 64/21/81
f 61/22/62 65/23/83 44/24/60
f 65/19/83 66/20/84 44/21/60
f 65/22/83 64/23/81 66/24/84
f 44/19/60 66/20/84 126/21/61
f 66/22/84 159/23/85 126/24/61
f 67/19/86 64/20/81 23/21/82
f 64/22/81 67/23/86 66/24/84
f 159/19/85 66/20/84 67/21/86
f 22/22/87 67/23/86 23/24/82
f 159/19/85 67/20/86 68/21/88
f 68/22/88 67/23/86 22/24/87
f 68/19/88 69/20/89 159/21/85
f 70/22/90 68/23/88 22/24/87
f 69/19/89 68/20/88 70/21/90
f 71/22/91 69/23/89 70/24/90
f 72/51/92 119/52/93 1/53/94
f 119/54/93 73/55/95 1/56/94
f 1/51/94 73/52/95 74/53/96
f 73/54/95 32/55/97 74/56/96
f 74/51/96 32/52/97 5/53/98
f 32/54/97 31/55/99 5/56/98
f 5/51/98 31/52/99 7/53/100
f 31/54/99 30/55/101 7/56/100
f 7/51/100 30/52/101 75/53/102
f 30/54/101 76/55/103 75/56/102
f 16/51/104 75/52/102 76/53/103
f 77/54/105 16/55/104 76/56/103
f 16/51/104 77/52/105 17/53/106
f 77/54/105 29/55/107 17/56/106
f 17/51/106 29/52/107 79/53/108
f 29/54/107 78/55/108 79/56/108
f 79/7/108 78/8/108 34/9/109
f 78/10/108 80/11/110 34/12/109
f 34/7/109 80/8/110 81/9/111
f 80/10/110 82/11/112 81/12/111
f 81/7/111 82/8/112 25/9/47
f 82/10/112 26/11/48 25/12/47
f 161/1/113 72/2/1 83/3/1
f 84/4/114 161/5/113 83/6/1
f 84/1/115 83/2/115 85/3/115
f 83/4/7 86/5/7 85/6/116
f 86/1/15 134/2/16 85/3/117
f 162/4/118 161/5/113 84/6/114
f 134/1/16 87/2/119 85/3/117
f 88/4/120 162/5/118 84/6/114
f 85/1/121 88/2/120 84/3/114
f 163/4/122 162/5/118 88/6/120
f 89/57/123 163/58/122 88/59/120
f 88/59/120 85/60/121 89/57/123
f 90/1/124 163/2/122 89/3/123
f 85/4/117 87/5/119 91/6/125
f 85/1/121 91/2/126 89/3/123
f 87/4/119 138/5/127 91/6/125
f 92/57/128 90/58/124 89/59/123
f 89/59/123 91/60/126 92/57/128
f 93/1/129 90/2/124 92/3/128
f 91/4/125 138/5/127 94/6/130
f 91/1/126 94/2/130 92/3/128
f 138/4/127 95/5/131 94/6/130
f 96/57/132 93/58/129 92/59/128
f 92/59/128 94/60/130 96/57/132
f 94/1/130 95/2/131 97/3/133
f 94/4/130 97/5/133 96/6/132
f 95/1/131 141/2/134 97/3/133
f 96/4/132 98/5/135 93/6/129
f 98/1/135 165/2/136 93/3/129
f 99/4/137 165/5/136 98/6/135
f 100/1/138 99/2/137 98/3/135
f 167/4/139 99/5/137 100/6/138
f 101/1/140 167/2/139 100/3/138
f 98/4/135 96/5/132 97/6/133
f 97/1/133 141/2/134 102/3/141
f 97/4/133 102/5/141 98/6/135
f 102/1/141 100/2/138 98/3/135
f 100/4/138 102/5/141 101/6/140
f 141/1/134 143/2/142 102/3/141
f 102/4/141 145/5/143 101/6/140
f 102/1/141 143/2/142 145/3/143
f 143/4/142 133/5/144 145/6/143
f 103/7/145 71/8/37 107/9/39
f 108/10/146 103/11/145 107/12/39
f 104/7/147 103/8/145 108/9/146
f 106/10/148 104/11/147 108/12/146
f 154/7/149 104/8/147 106/9/148
f 111/10/150 154/11/149 106/12/148
f 151/7/151 154/8/149 111/9/150
f 110/10/152 151/11/151 111/12/150
f 105/7/153 151/8/151 110/9/152
f 170/10/154 105/11/153 110/12/152
f 108/13/49 107/14/49 106/15/49
f 107/16/49 109/17/49 106/18/49
f 106/13/49 109/14/49 110/15/49
f 111/16/49 106/17/49 110/18/49
f 110/13/49 109/14/49 170/15/49
f 170/16/49 109/17/49 112/18/49
f 109/13/49 166/14/49 112/15/49
f 169/16/49 170/17/49 112/18/49
f 166/13/49 113/14/49 112/15/49
f 114/16/49 166/17/49 109/18/49
f 115/13/49 114/14/49 109/15/49
f 116/16/49 115/17/49 109/18/49
f 164/13/49 116/14/49 109/15/49
f 117/16/49 164/17/49 109/18/49
f 118/13/49 117/14/49 109/15/49
f 119/16/49 118/17/49 109/18/49
f 120/19/155 167/20/139 101/21/140
f 121/22/156 120/23/155 101/24/140
f 168/19/157 120/20/155 121/21/156
f 122/22/158 168/23/157 121/24/156
f 105/19/159 168/20/157 122/21/158
f 123/22/160 105/23/159 122/24/158
f 36/26/57 127/61/161 124/27/58
f 127/61/161 129/62/162 124/27/58
f 129/62/162 130/63/58 124/27/58
f 130/63/58 125/64/58 124/27/58
f 124/27/58 125/64/58 132/65/58
f 124/27/58 132/65/58 142/66/58
f 132/65/58 144/67/58 142/66/58
f 124/27/58 142/66/58 140/68/58
f 124/27/58 140/68/58 139/69/58
f 124/27/58 139/69/58 135/70/58
f 139/69/58 137/71/58 135/70/58
f 124/27/58 135/70/58 136/38/58
f 126/39/61 156/40/163 36/41/57
f 156/42/163 127/43/161 36/44/57
f 156/39/163 128/40/164 127/41/161
f 128/42/164 129/43/162 127/44/161
f 130/39/165 129/40/162 128/41/164
f 149/42/166 130/43/165 128/44/164
f 149/39/166 148/40/167 130/41/165
f 148/42/167 125/43/168 130/44/165
f 125/39/168 148/40/167 131/41/169
f 132/42/170 125/43/168 131/44/169
f 132/39/170 131/40/169 144/41/171
f 131/42/169 133/43/144 144/44/171
f 136/45/71 135/46/172 134/47/16
f 135/48/172 87/49/119 134/50/16
f 135/45/172 137/46/173 87/47/119
f 137/48/173 138/49/127 87/50/119
f 95/45/131 138/46/127 137/47/173
f 139/48/174 95/49/131 137/50/173
f 139/45/174 140/46/175 95/47/131
f 140/48/175 141/49/134 95/50/131
f 140/45/175 142/46/176 141/47/134
f 142/48/176 143/49/142 141/50/134
f 142/45/176 144/46/171 143/47/142
f 144/48/171 133/49/144 143/50/142
f 101/19/140 145/20/143 121/21/156
f 145/22/143 146/23/177 121/24/156
f 121/72/156 146/73/177 147/74/178
f 147/74/178 122/75/158 121/72/156
f 145/19/143 133/20/144 146/21/177
f 133/22/144 131/23/169 146/24/177
f 146/19/177 131/20/169 147/21/178
f 131/22/169 148/23/167 147/24/178
f 147/19/178 123/20/160 122/21/158
f 147/22/178 148/23/167 149/24/166
f 150/19/179 123/20/160 147/21/178
f 123/22/160 150/23/179 105/24/159
f 150/19/179 151/20/180 105/21/159
f 152/22/181 147/23/178 149/24/166
f 152/19/181 150/20/179 147/21/178
f 150/22/179 153/23/182 151/24/180
f 150/19/179 152/20/181 153/21/183
f 153/22/182 154/23/182 151/24/180
f 152/19/181 149/20/166 155/21/184
f 152/22/181 155/23/184 153/24/183
f 149/19/166 128/20/164 155/21/184
f 155/22/184 128/23/164 156/24/163
f 153/19/182 157/20/185 154/21/182
f 157/22/186 153/23/183 155/24/184
f 157/19/185 104/20/185 154/21/182
f 158/22/187 155/23/184 156/24/163
f 158/19/187 157/20/186 155/21/184
f 158/22/187 156/23/163 126/24/61
f 159/19/85 158/20/187 126/21/61
f 157/22/186 158/23/187 159/24/85
f 157/19/185 160/20/188 104/21/185
f 160/22/188 157/23/186 159/24/85
f 160/19/188 103/20/189 104/21/185
f 159/22/85 69/23/89 160/24/188
f 160/19/188 69/20/89 103/21/189
f 69/22/89 71/23/91 103/24/189
f 119/51/93 72/52/92 161/53/190
f 118/54/191 119/55/93 161/56/190
f 118/51/191 161/52/190 162/53/192
f 117/54/193 118/55/191 162/56/192
f 117/51/193 162/52/192 163/53/194
f 164/54/195 117/55/193 163/56/194
f 164/51/195 163/52/194 90/53/196
f 116/54/197 164/55/195 90/56/196
f 116/51/197 90/52/196 93/53/198
f 115/76/199 116/77/197 93/78/198
f 93/78/198 165/79/200 115/76/199
f 165/54/200 114/55/201 115/56/199
f 114/51/201 165/52/200 99/53/202
f 166/54/203 114/55/201 99/56/202
f 166/51/203 99/52/202 167/53/204
f 113/54/204 166/55/203 167/56/204
f 113/7/204 167/8/204 120/9/205
f 112/10/206 113/11/204 120/12/205
f 112/7/206 120/8/205 168/9/207
f 169/10/208 112/11/206 168/12/207
f 169/7/208 168/8/207 105/9/153
f 170/10/154 169/11/208 105/12/153
